<?xml version="1.0" standalone="no"?>
<!DOCTYPE svg PUBLIC "-//W3C//DTD SVG 20010904//EN"
 "http://www.w3.org/TR/2001/REC-SVG-20010904/DTD/svg10.dtd">
<svg version="1.0" xmlns="http://www.w3.org/2000/svg"
 width="1742.000000pt" height="1742.000000pt" viewBox="0 0 1742.000000 1742.000000"
 preserveAspectRatio="xMidYMid meet">
<metadata>
Created by potrace 1.14, written by Peter Selinger 2001-2017
</metadata>
<g transform="translate(0.000000,1742.000000) scale(0.100000,-0.100000)"
fill="#000000" stroke="none">
<path d="M8050 17411 c0 -4 -71 -11 -157 -15 -87 -4 -162 -11 -168 -16 -5 -4
-57 -11 -115 -15 -58 -4 -109 -10 -115 -14 -5 -3 -50 -11 -100 -18 -226 -31
-330 -47 -335 -54 -3 -3 -38 -10 -77 -14 -40 -4 -73 -11 -73 -15 0 -5 -29 -12
-65 -15 -36 -4 -65 -11 -65 -15 0 -4 -26 -11 -57 -15 -32 -4 -62 -10 -68 -15
-5 -4 -44 -13 -85 -20 -41 -7 -79 -16 -85 -20 -5 -5 -31 -11 -57 -15 -27 -4
-48 -11 -48 -15 0 -5 -22 -11 -50 -15 -27 -4 -50 -11 -50 -15 0 -4 -22 -11
-50 -15 -27 -4 -52 -11 -55 -15 -3 -5 -23 -11 -46 -15 -22 -4 -53 -13 -67 -21
-15 -7 -46 -16 -69 -20 -24 -3 -43 -10 -43 -15 0 -4 -20 -11 -45 -15 -25 -3
-45 -10 -45 -14 0 -5 -18 -11 -40 -15 -22 -4 -40 -10 -40 -15 0 -4 -16 -11
-35 -14 -19 -4 -47 -13 -62 -21 -15 -8 -35 -15 -43 -15 -8 0 -23 -7 -33 -15
-11 -7 -36 -17 -58 -20 -21 -4 -39 -11 -39 -15 0 -5 -16 -12 -35 -16 -19 -3
-35 -10 -35 -14 0 -5 -18 -11 -40 -15 -22 -4 -40 -11 -40 -15 0 -5 -16 -12
-35 -16 -19 -3 -35 -10 -35 -15 0 -5 -6 -9 -12 -9 -7 0 -35 -12 -63 -25 -27
-14 -58 -25 -67 -25 -10 0 -18 -4 -18 -9 0 -5 -13 -12 -30 -16 -16 -4 -30 -11
-30 -15 0 -5 -16 -12 -35 -16 -19 -3 -35 -10 -35 -15 0 -5 -5 -9 -12 -9 -13 0
-181 -81 -188 -91 -3 -4 -18 -11 -33 -14 -15 -4 -27 -11 -27 -15 0 -5 -13 -11
-30 -15 -16 -4 -30 -10 -30 -14 0 -8 -112 -61 -129 -61 -6 0 -11 -4 -11 -9 0
-5 -10 -13 -22 -17 -12 -3 -28 -13 -36 -20 -7 -8 -20 -14 -28 -14 -8 0 -14 -4
-14 -9 0 -5 -10 -13 -22 -17 -12 -3 -28 -13 -36 -20 -7 -8 -19 -14 -26 -14 -8
0 -19 -6 -25 -14 -7 -8 -26 -18 -42 -21 -16 -4 -29 -10 -29 -15 0 -5 -10 -12
-22 -16 -13 -4 -25 -9 -28 -13 -11 -13 -70 -51 -80 -51 -5 0 -10 -3 -10 -7 0
-5 -24 -21 -53 -37 -28 -17 -58 -36 -65 -43 -7 -7 -19 -13 -27 -13 -7 0 -15
-3 -17 -7 -5 -12 -66 -53 -78 -53 -5 0 -10 -4 -10 -8 0 -5 -11 -14 -25 -20
-14 -7 -31 -17 -38 -22 -48 -41 -62 -50 -74 -50 -7 0 -13 -5 -13 -10 0 -6 -8
-14 -17 -17 -10 -4 -23 -12 -30 -17 -30 -26 -41 -34 -63 -46 -13 -7 -29 -17
-34 -22 -29 -24 -56 -44 -76 -58 -12 -8 -38 -30 -58 -47 -20 -18 -40 -33 -43
-33 -3 0 -15 -8 -27 -17 -11 -10 -37 -31 -58 -48 -20 -16 -42 -35 -48 -41 -6
-6 -18 -15 -27 -20 -21 -12 -77 -58 -142 -116 -28 -27 -55 -48 -58 -48 -4 0
-29 -21 -57 -47 -28 -27 -70 -65 -94 -86 -151 -134 -506 -483 -590 -579 -20
-24 -57 -65 -82 -91 -25 -26 -46 -51 -46 -55 0 -4 -21 -26 -45 -50 -25 -24
-45 -46 -45 -49 0 -2 -6 -10 -12 -17 -7 -7 -29 -33 -48 -56 -19 -24 -50 -59
-67 -79 -18 -20 -33 -39 -33 -42 0 -3 -10 -17 -22 -31 -54 -61 -78 -91 -78
-99 0 -5 -3 -9 -8 -9 -4 0 -18 -18 -32 -41 -14 -22 -33 -45 -43 -50 -9 -5 -17
-16 -17 -24 0 -7 -4 -15 -8 -17 -8 -3 -24 -24 -106 -143 -12 -16 -24 -31 -28
-33 -5 -2 -8 -10 -8 -18 0 -8 -7 -17 -15 -20 -8 -4 -15 -12 -15 -18 0 -7 -8
-21 -18 -32 -10 -10 -21 -27 -25 -36 -3 -10 -11 -18 -16 -18 -5 0 -12 -11 -15
-25 -4 -14 -11 -25 -16 -25 -6 0 -10 -7 -10 -15 0 -7 -6 -18 -12 -22 -16 -10
-35 -38 -51 -75 -6 -16 -14 -28 -18 -28 -4 0 -12 -13 -19 -30 -7 -16 -16 -30
-21 -30 -5 0 -9 -7 -9 -15 0 -7 -6 -18 -12 -22 -7 -4 -22 -26 -33 -47 -11 -22
-25 -44 -30 -50 -6 -6 -23 -36 -39 -66 -46 -90 -61 -115 -68 -118 -5 -2 -8
-10 -8 -18 0 -8 -6 -17 -14 -20 -8 -3 -18 -19 -21 -35 -4 -16 -11 -29 -16 -29
-5 0 -9 -6 -9 -14 0 -7 -7 -19 -15 -26 -8 -7 -12 -16 -9 -21 3 -5 1 -9 -5 -9
-5 0 -12 -13 -16 -30 -4 -16 -10 -30 -15 -30 -5 0 -11 -13 -15 -30 -4 -16 -10
-30 -15 -30 -5 0 -11 -13 -15 -30 -4 -16 -10 -30 -15 -30 -4 0 -11 -12 -15
-27 -3 -15 -10 -30 -13 -33 -11 -8 -92 -175 -92 -188 0 -7 -4 -12 -10 -12 -5
0 -10 -6 -10 -12 -1 -7 -9 -31 -20 -53 -11 -22 -19 -46 -20 -52 0 -7 -4 -13
-9 -13 -5 0 -12 -12 -16 -27 -3 -15 -15 -46 -26 -70 -10 -23 -19 -47 -19 -52
0 -6 -4 -11 -10 -11 -5 0 -12 -16 -16 -35 -3 -19 -10 -35 -14 -35 -5 0 -11
-18 -15 -40 -4 -22 -10 -40 -15 -40 -4 0 -11 -16 -14 -35 -4 -19 -11 -35 -15
-35 -5 0 -11 -13 -14 -30 -4 -16 -16 -50 -27 -74 -11 -24 -27 -69 -37 -100 -9
-31 -20 -56 -24 -56 -4 0 -11 -20 -15 -45 -3 -25 -10 -45 -14 -45 -4 0 -11
-17 -15 -37 -4 -21 -10 -42 -15 -48 -4 -5 -13 -35 -20 -65 -7 -30 -16 -57 -19
-60 -7 -5 -25 -69 -44 -157 -6 -29 -15 -53 -19 -53 -4 0 -10 -22 -14 -50 -4
-27 -10 -50 -15 -50 -4 0 -11 -21 -15 -47 -3 -27 -10 -53 -15 -59 -4 -5 -13
-44 -20 -85 -6 -40 -15 -78 -19 -84 -5 -5 -11 -32 -15 -60 -4 -27 -11 -54 -15
-60 -5 -5 -11 -36 -15 -67 -4 -32 -11 -58 -15 -58 -4 0 -11 -36 -15 -80 -4
-44 -10 -80 -14 -80 -4 0 -13 -50 -20 -112 -7 -61 -17 -119 -22 -127 -8 -16
-17 -77 -42 -306 -7 -60 -15 -115 -19 -121 -4 -5 -10 -79 -14 -162 -4 -84 -11
-152 -15 -152 -5 0 -9 -301 -9 -670 0 -368 4 -670 9 -670 4 0 11 -68 15 -152
4 -83 10 -157 14 -162 4 -6 12 -60 19 -121 25 -229 34 -290 42 -306 5 -8 15
-66 22 -127 7 -62 16 -112 20 -112 4 0 10 -36 14 -80 4 -44 11 -80 15 -80 4 0
11 -26 15 -57 4 -32 10 -62 15 -68 4 -5 11 -32 15 -60 4 -27 10 -54 15 -60 4
-5 13 -44 19 -84 7 -41 16 -80 20 -85 5 -6 12 -32 15 -59 4 -26 11 -47 15 -47
5 0 11 -23 15 -50 4 -28 10 -50 14 -50 4 0 13 -24 19 -53 19 -88 37 -152 44
-157 3 -3 12 -30 19 -60 7 -30 16 -59 20 -65 5 -5 11 -27 15 -47 4 -21 11 -38
15 -38 4 0 11 -20 14 -45 4 -25 11 -45 15 -45 4 0 15 -25 24 -56 10 -31 26
-76 37 -100 11 -24 23 -58 27 -74 3 -17 9 -30 14 -30 4 0 11 -16 15 -35 3 -19
10 -35 14 -35 5 0 11 -18 15 -40 4 -22 10 -40 15 -40 4 0 11 -16 14 -35 4 -19
11 -35 16 -35 6 0 10 -5 10 -11 0 -5 9 -29 19 -52 11 -24 23 -55 26 -70 4 -15
11 -27 16 -27 5 0 9 -6 9 -12 1 -7 9 -31 20 -53 11 -22 19 -46 20 -52 0 -7 5
-13 10 -13 6 0 10 -5 10 -12 0 -13 81 -180 92 -188 3 -3 10 -18 13 -33 4 -15
11 -27 15 -27 5 0 11 -13 15 -30 4 -16 10 -30 15 -30 5 0 11 -14 15 -30 4 -17
10 -30 15 -30 5 0 11 -13 15 -30 4 -16 11 -30 16 -30 6 0 8 -4 5 -9 -3 -5 1
-14 9 -21 8 -7 15 -19 15 -26 0 -8 4 -14 9 -14 5 0 12 -13 16 -29 3 -16 13
-32 21 -35 8 -3 14 -12 14 -20 0 -8 3 -16 8 -18 7 -3 22 -28 68 -118 16 -30
33 -60 39 -66 5 -6 19 -28 30 -50 11 -21 26 -43 32 -47 7 -4 13 -15 13 -22 0
-8 4 -15 9 -15 5 0 14 -14 21 -30 7 -17 15 -30 19 -30 4 0 12 -12 18 -27 16
-38 35 -66 51 -76 6 -4 12 -15 12 -22 0 -8 4 -15 10 -15 5 0 12 -11 16 -24 3
-14 12 -27 20 -30 8 -3 14 -10 14 -16 0 -6 9 -20 20 -32 11 -12 20 -27 20 -34
0 -6 7 -14 15 -18 8 -3 15 -12 15 -20 0 -8 3 -16 8 -18 4 -1 16 -16 28 -33 82
-119 98 -140 106 -143 4 -2 8 -10 8 -17 0 -8 8 -19 18 -24 9 -5 28 -28 42 -50
14 -23 28 -41 32 -41 5 0 8 -4 8 -9 0 -8 24 -38 77 -99 13 -14 23 -28 23 -31
0 -3 15 -22 33 -42 17 -20 48 -55 67 -79 19 -23 41 -49 48 -56 6 -7 12 -15 12
-17 0 -3 20 -25 45 -49 24 -24 45 -46 45 -50 0 -4 21 -29 46 -55 25 -26 62
-67 82 -91 84 -96 439 -445 590 -579 24 -21 66 -59 94 -86 28 -26 53 -47 57
-47 3 0 30 -21 58 -48 65 -58 121 -104 142 -116 9 -5 21 -14 27 -20 6 -6 28
-24 48 -41 21 -16 47 -38 58 -48 12 -9 24 -17 27 -17 3 0 23 -15 43 -33 20
-17 46 -39 58 -47 20 -14 47 -34 76 -58 5 -5 21 -15 34 -22 14 -7 30 -18 37
-24 33 -29 43 -36 53 -36 6 0 13 -7 16 -15 4 -8 12 -15 19 -15 10 0 24 -9 72
-50 7 -5 24 -15 38 -22 14 -6 25 -15 25 -20 0 -4 5 -8 10 -8 12 0 73 -41 78
-52 2 -5 10 -8 17 -8 8 0 20 -6 27 -13 7 -7 37 -26 65 -43 29 -16 53 -32 53
-36 0 -5 5 -8 10 -8 10 0 69 -38 80 -51 3 -4 15 -9 28 -13 12 -4 22 -11 22
-16 0 -5 13 -11 29 -15 16 -3 35 -13 42 -21 6 -8 17 -14 25 -14 7 0 19 -6 26
-14 8 -7 24 -17 36 -20 12 -4 22 -12 22 -17 0 -5 6 -9 14 -9 8 0 21 -6 28 -14
8 -7 24 -17 36 -20 12 -4 22 -12 22 -17 0 -5 5 -9 11 -9 17 0 129 -53 129 -61
0 -4 13 -10 30 -14 16 -4 30 -10 30 -15 0 -4 12 -11 27 -15 15 -3 30 -10 33
-14 7 -10 175 -91 188 -91 7 0 12 -4 12 -9 0 -5 16 -12 35 -15 19 -4 35 -11
35 -16 0 -4 13 -11 30 -15 16 -4 30 -11 30 -16 0 -5 8 -9 18 -9 9 0 40 -11 67
-25 28 -13 56 -25 63 -25 6 0 12 -4 12 -9 0 -5 16 -12 35 -15 19 -4 35 -11 35
-16 0 -4 18 -11 40 -15 22 -4 40 -10 40 -15 0 -4 16 -11 35 -14 19 -4 35 -11
35 -16 0 -4 18 -11 39 -15 22 -3 47 -13 58 -20 10 -8 25 -15 33 -15 8 0 28 -7
43 -15 15 -8 43 -17 62 -21 19 -3 35 -10 35 -14 0 -5 18 -11 40 -15 22 -4 40
-10 40 -15 0 -4 20 -11 45 -14 25 -4 45 -11 45 -15 0 -5 19 -12 43 -15 23 -4
54 -13 69 -20 14 -8 45 -17 67 -21 23 -4 43 -10 46 -15 3 -4 28 -11 55 -15 28
-4 50 -11 50 -15 0 -4 23 -11 50 -15 28 -4 50 -10 50 -15 0 -4 21 -11 48 -15
26 -4 52 -10 57 -15 6 -4 44 -13 85 -20 41 -7 80 -16 85 -20 6 -5 36 -11 68
-15 31 -4 57 -11 57 -15 0 -4 29 -11 65 -15 36 -3 65 -10 65 -15 0 -4 33 -11
73 -15 39 -4 74 -11 77 -14 5 -7 109 -23 335 -54 50 -7 95 -15 100 -18 6 -4
57 -10 115 -14 58 -4 110 -11 115 -15 6 -5 81 -12 168 -16 86 -4 157 -11 157
-15 0 -5 297 -9 660 -9 363 0 660 4 660 9 0 4 71 11 157 15 87 4 162 11 168
16 5 4 57 11 115 15 58 4 110 10 115 14 6 3 51 11 100 18 226 31 330 47 335
54 3 3 38 10 78 14 39 4 72 11 72 15 0 5 29 12 65 15 36 4 65 11 65 15 0 4 26
11 58 15 31 4 62 10 67 15 6 4 44 13 85 20 41 7 80 16 85 20 6 5 31 11 58 15
26 4 47 11 47 15 0 5 23 11 50 15 28 4 50 11 50 15 0 4 22 11 50 15 27 4 52
11 55 15 3 5 23 11 46 15 22 4 53 13 67 21 15 7 46 16 69 20 24 3 43 10 43 15
0 4 20 11 45 15 25 3 45 10 45 14 0 5 18 11 40 15 22 4 40 10 40 15 0 4 16 11
35 14 19 4 47 13 62 21 15 8 35 15 43 15 8 0 23 7 33 15 11 7 36 17 58 20 21
4 39 11 39 15 0 5 16 12 35 16 19 3 35 10 35 14 0 5 18 11 40 15 22 4 40 11
40 15 0 5 16 12 35 16 19 3 35 10 35 15 0 5 6 9 13 9 6 0 35 12 62 25 28 14
58 25 68 25 9 0 17 4 17 9 0 5 14 12 30 16 17 4 30 11 30 15 0 5 16 12 35 16
19 3 35 10 35 15 0 5 5 9 12 9 13 0 181 81 188 91 3 4 18 11 33 14 15 4 27 11
27 15 0 5 14 11 30 15 17 4 30 10 30 14 0 8 112 61 129 61 6 0 11 4 11 9 0 5
10 13 22 17 12 3 28 13 36 20 7 8 20 14 28 14 8 0 14 4 14 9 0 5 10 13 22 17
12 3 28 13 36 20 7 8 19 14 26 14 8 0 19 6 25 14 7 8 26 18 42 21 16 4 29 10
29 15 0 5 10 12 23 16 12 4 24 9 27 13 11 13 70 51 80 51 5 0 10 3 10 8 0 4
24 20 53 36 28 17 58 36 65 43 7 7 19 13 27 13 7 0 15 3 17 8 5 11 66 52 78
52 5 0 10 4 10 8 0 5 11 14 25 20 14 7 31 17 38 22 48 41 62 50 72 50 7 0 15
7 19 15 3 8 10 15 16 15 6 0 18 6 25 13 29 25 42 35 65 47 13 7 29 17 34 22
29 24 56 44 76 58 12 8 38 30 58 47 20 18 40 33 43 33 3 0 15 8 27 18 11 9 37
31 58 47 20 17 42 35 48 41 6 6 18 15 27 20 21 12 77 58 142 116 28 27 55 48
58 48 4 0 29 21 57 48 28 26 70 64 94 85 151 134 506 483 590 579 20 24 57 65
82 91 25 26 46 51 46 55 0 4 21 26 45 50 25 24 45 46 45 49 0 2 6 10 13 17 6
7 28 33 47 56 19 24 50 59 67 79 18 20 33 39 33 42 0 3 10 17 23 31 53 61 77
91 77 99 0 5 3 9 8 9 4 0 18 18 32 41 14 22 33 45 43 50 9 5 17 16 17 24 0 7
4 15 8 17 8 3 24 24 106 143 12 17 24 32 29 33 4 2 7 10 7 18 0 8 7 17 15 20
8 4 15 12 15 18 0 7 8 21 18 32 10 10 21 27 25 37 3 9 11 17 16 17 5 0 12 11
15 25 4 14 11 25 16 25 6 0 10 7 10 15 0 7 6 18 13 22 15 10 34 38 50 75 6 16
14 28 18 28 4 0 12 14 19 30 7 17 16 30 21 30 5 0 9 7 9 15 0 7 6 18 13 22 6
4 21 26 32 47 11 22 25 44 30 50 6 6 23 36 39 66 46 90 61 115 69 118 4 2 7
10 7 18 0 8 6 17 14 20 8 3 18 19 21 35 4 16 11 29 16 29 5 0 9 6 9 14 0 7 7
19 15 26 8 7 12 16 9 21 -3 5 -1 9 5 9 5 0 12 13 16 30 4 16 10 30 15 30 5 0
11 14 15 30 4 16 10 30 15 30 5 0 11 13 15 30 4 16 10 30 15 30 4 0 11 12 15
27 3 15 10 30 13 33 11 8 92 175 92 188 0 7 5 12 10 12 6 0 10 6 10 13 1 6 9
30 20 52 11 22 19 46 20 53 0 6 4 12 9 12 5 0 12 12 16 27 3 15 15 46 26 70
10 23 19 47 19 52 0 6 4 11 10 11 5 0 12 16 16 35 3 19 10 35 14 35 5 0 11 18
15 40 4 22 10 40 15 40 4 0 11 16 14 35 4 19 11 35 15 35 5 0 11 13 14 30 4
16 16 50 27 74 11 24 27 69 37 100 9 31 20 56 24 56 4 0 11 20 15 45 3 25 10
45 14 45 4 0 11 17 15 38 4 20 10 42 15 47 4 6 13 35 20 65 7 30 16 57 19 60
7 5 25 69 44 158 6 28 15 52 19 52 4 0 10 23 14 50 4 28 10 50 15 50 4 0 11
21 15 48 3 26 10 52 15 58 4 5 13 44 20 85 6 40 15 79 19 84 5 6 11 33 15 60
4 28 11 55 15 60 5 6 11 36 15 67 4 32 11 58 15 58 4 0 11 36 15 80 4 44 10
80 14 80 4 0 13 50 20 112 7 61 17 119 22 127 8 16 17 77 42 306 7 61 15 115
19 121 4 5 10 79 14 162 4 84 11 152 15 152 5 0 9 302 9 670 0 369 -4 670 -9
670 -4 0 -11 68 -15 152 -4 83 -10 157 -14 162 -4 6 -12 61 -19 121 -25 229
-34 290 -42 306 -5 8 -15 66 -22 127 -7 62 -16 112 -20 112 -4 0 -10 36 -14
80 -4 44 -11 80 -15 80 -4 0 -11 26 -15 58 -4 31 -10 62 -15 67 -4 6 -11 33
-15 60 -4 28 -10 55 -15 60 -4 6 -13 44 -19 84 -7 41 -16 80 -20 85 -5 6 -12
32 -15 59 -4 26 -11 47 -15 47 -5 0 -11 23 -15 50 -4 28 -10 50 -14 50 -4 0
-13 24 -19 53 -19 88 -37 152 -44 157 -3 3 -12 30 -19 60 -7 30 -16 60 -20 65
-5 6 -11 27 -15 48 -4 20 -11 37 -15 37 -4 0 -11 20 -14 45 -4 25 -11 45 -15
45 -4 0 -15 25 -24 56 -10 31 -26 76 -37 100 -11 24 -23 58 -27 74 -3 17 -9
30 -14 30 -4 0 -11 16 -15 35 -3 19 -10 35 -14 35 -5 0 -11 18 -15 40 -4 22
-10 40 -15 40 -4 0 -11 16 -14 35 -4 19 -11 35 -16 35 -6 0 -10 5 -10 11 0 5
-9 29 -19 52 -11 24 -23 55 -26 70 -4 15 -11 27 -16 27 -5 0 -9 6 -9 13 -1 6
-9 30 -20 52 -11 22 -19 46 -20 53 0 6 -4 12 -10 12 -5 0 -10 5 -10 12 0 13
-81 180 -92 188 -3 3 -10 18 -13 33 -4 15 -11 27 -15 27 -5 0 -11 14 -15 30
-4 17 -10 30 -15 30 -5 0 -11 14 -15 30 -4 17 -10 30 -15 30 -5 0 -11 14 -15
30 -4 17 -11 30 -16 30 -6 0 -8 4 -5 9 3 5 -1 14 -9 21 -8 7 -15 19 -15 26 0
8 -4 14 -9 14 -5 0 -12 13 -16 29 -3 16 -13 32 -21 35 -8 3 -14 12 -14 20 0 8
-3 16 -7 18 -8 3 -23 28 -69 118 -16 30 -33 60 -39 66 -5 6 -19 28 -30 50 -11
21 -26 43 -32 47 -7 4 -13 15 -13 22 0 8 -4 15 -9 15 -5 0 -14 14 -21 30 -7
17 -15 30 -19 30 -4 0 -12 12 -18 28 -16 37 -35 65 -50 75 -7 4 -13 15 -13 22
0 8 -4 15 -10 15 -5 0 -12 11 -16 25 -3 14 -10 25 -15 25 -5 0 -13 8 -16 18
-4 9 -15 26 -25 36 -10 11 -18 25 -18 32 0 6 -7 14 -15 18 -8 3 -15 12 -15 20
0 8 -3 16 -7 18 -5 2 -17 17 -29 33 -82 119 -98 140 -106 143 -4 2 -8 10 -8
17 0 8 -8 19 -17 24 -10 5 -29 28 -43 50 -14 23 -28 41 -32 41 -5 0 -8 4 -8 9
0 8 -24 38 -77 99 -13 14 -23 28 -23 31 0 3 -15 22 -33 42 -17 20 -48 55 -67
79 -19 23 -41 49 -47 56 -7 7 -13 15 -13 17 0 3 -20 25 -45 49 -24 24 -45 46
-45 50 0 4 -21 29 -46 55 -25 26 -62 67 -82 91 -84 96 -439 445 -590 579 -24
21 -66 59 -94 86 -28 26 -53 47 -57 47 -3 0 -30 21 -58 48 -65 58 -121 104
-142 116 -9 5 -21 14 -27 20 -6 6 -28 25 -48 41 -21 17 -47 38 -58 48 -12 9
-24 17 -27 17 -3 0 -23 15 -43 33 -20 17 -46 39 -58 47 -20 14 -47 34 -76 58
-5 5 -21 15 -34 22 -14 7 -30 18 -37 24 -28 25 -39 32 -55 39 -10 3 -18 11
-18 17 0 5 -6 10 -13 10 -12 0 -26 9 -74 50 -7 5 -24 15 -38 22 -14 6 -25 15
-25 20 0 4 -5 8 -10 8 -12 0 -73 41 -78 53 -2 4 -10 7 -17 7 -8 0 -20 6 -27
13 -7 7 -37 26 -65 43 -29 16 -53 32 -53 37 0 4 -5 7 -10 7 -10 0 -69 38 -80
51 -3 4 -15 9 -27 13 -13 4 -23 11 -23 16 0 5 -13 11 -29 15 -16 3 -35 13 -42
21 -6 8 -17 14 -25 14 -7 0 -19 6 -26 14 -8 7 -24 17 -36 20 -12 4 -22 12 -22
17 0 5 -6 9 -14 9 -8 0 -21 6 -28 14 -8 7 -24 17 -36 20 -12 4 -22 12 -22 17
0 5 -5 9 -11 9 -17 0 -129 53 -129 61 0 4 -13 10 -30 14 -16 4 -30 10 -30 15
0 4 -12 11 -27 15 -15 3 -30 10 -33 14 -7 10 -175 91 -188 91 -7 0 -12 4 -12
9 0 5 -16 12 -35 15 -19 4 -35 11 -35 16 0 4 -13 11 -30 15 -16 4 -30 11 -30
16 0 5 -8 9 -17 9 -10 0 -40 11 -68 25 -27 13 -56 25 -62 25 -7 0 -13 4 -13 9
0 5 -16 12 -35 15 -19 4 -35 11 -35 16 0 4 -18 11 -40 15 -22 4 -40 10 -40 15
0 4 -16 11 -35 14 -19 4 -35 11 -35 16 0 4 -18 11 -39 15 -22 3 -47 13 -58 20
-10 8 -25 15 -33 15 -8 0 -28 7 -43 15 -15 8 -43 17 -62 21 -19 3 -35 10 -35
14 0 5 -18 11 -40 15 -22 4 -40 10 -40 15 0 4 -20 11 -45 14 -25 4 -45 11 -45
15 0 5 -19 12 -43 15 -23 4 -54 13 -69 20 -14 8 -45 17 -67 21 -23 4 -43 10
-46 15 -3 4 -28 11 -55 15 -28 4 -50 11 -50 15 0 4 -22 11 -50 15 -27 4 -50
10 -50 15 0 4 -21 11 -47 15 -27 4 -52 10 -58 15 -5 4 -44 13 -85 20 -41 7
-79 16 -85 20 -5 5 -36 11 -67 15 -32 4 -58 11 -58 15 0 4 -29 11 -65 15 -36
3 -65 10 -65 15 0 4 -33 11 -72 15 -40 4 -75 11 -78 14 -5 7 -109 23 -335 54
-49 7 -94 15 -100 18 -5 4 -57 10 -115 14 -58 4 -110 11 -115 15 -6 5 -81 12
-168 16 -86 4 -157 11 -157 15 0 5 -297 9 -660 9 -363 0 -660 -4 -660 -9z
m1140 -741 c14 -5 99 -12 190 -15 91 -4 170 -10 175 -15 6 -4 58 -11 118 -15
59 -4 107 -10 107 -14 0 -5 46 -11 102 -15 56 -3 105 -10 108 -14 3 -5 57 -16
120 -25 185 -26 254 -38 265 -46 5 -5 36 -12 67 -15 32 -4 60 -11 63 -16 3 -4
32 -11 65 -15 33 -4 60 -10 60 -15 0 -4 27 -10 60 -14 33 -4 60 -11 60 -15 0
-4 31 -13 70 -20 38 -7 72 -16 75 -21 3 -4 28 -11 55 -15 28 -4 50 -10 50 -15
0 -4 23 -10 50 -14 28 -4 50 -11 50 -15 0 -5 20 -12 45 -15 25 -4 45 -11 45
-15 0 -5 17 -12 38 -16 20 -4 42 -10 47 -15 6 -4 36 -13 68 -20 31 -7 57 -16
57 -20 0 -4 18 -10 40 -14 22 -3 40 -10 40 -15 0 -5 18 -12 40 -16 22 -4 40
-10 40 -15 0 -4 16 -11 35 -14 19 -4 35 -11 35 -16 0 -4 18 -11 39 -15 22 -3
47 -13 58 -20 10 -8 25 -15 33 -15 8 0 33 -9 55 -20 22 -11 46 -19 53 -20 6 0
12 -4 12 -9 0 -5 14 -12 30 -16 17 -4 30 -10 30 -15 0 -4 16 -11 35 -14 19 -4
35 -11 35 -15 0 -5 12 -12 28 -15 32 -8 235 -105 242 -117 3 -4 18 -11 33 -14
15 -4 27 -11 27 -16 0 -5 6 -9 12 -9 12 0 118 -50 128 -60 3 -3 26 -16 53 -30
26 -13 47 -28 47 -31 0 -4 14 -10 30 -14 17 -4 30 -10 30 -15 0 -5 16 -14 35
-20 19 -6 35 -16 35 -21 0 -5 6 -9 14 -9 8 0 21 -6 28 -14 8 -7 24 -17 36 -20
12 -4 22 -12 22 -17 0 -5 6 -9 14 -9 8 0 21 -6 28 -14 8 -7 24 -17 36 -20 12
-4 22 -11 22 -15 0 -5 14 -14 30 -21 17 -7 30 -16 30 -21 0 -5 6 -9 13 -9 12
0 23 -7 73 -49 6 -5 20 -12 32 -15 12 -4 22 -11 22 -16 0 -5 10 -12 23 -16 12
-4 32 -14 43 -23 12 -9 32 -23 44 -31 12 -8 30 -22 40 -30 10 -8 28 -22 40
-30 12 -8 31 -23 42 -32 12 -10 24 -18 28 -18 6 0 22 -12 67 -50 7 -5 16 -10
20 -10 5 0 16 -8 24 -17 9 -10 26 -25 38 -33 33 -22 60 -43 86 -65 13 -11 33
-27 46 -35 12 -8 34 -26 49 -40 15 -14 42 -36 61 -49 19 -13 41 -30 49 -38 8
-7 32 -29 53 -48 21 -19 43 -35 48 -35 6 0 7 -4 4 -10 -3 -5 -2 -10 3 -10 37
0 595 -543 741 -720 14 -18 42 -49 62 -69 19 -20 46 -52 59 -71 13 -19 32 -41
41 -47 10 -7 34 -37 55 -65 20 -29 42 -57 48 -63 6 -5 24 -28 41 -50 16 -22
34 -44 41 -50 6 -5 22 -26 35 -45 13 -19 36 -48 51 -65 15 -16 28 -35 28 -42
0 -6 3 -13 8 -15 4 -1 16 -16 28 -33 82 -119 98 -140 106 -143 4 -2 8 -10 8
-18 0 -8 7 -17 15 -20 8 -4 15 -10 15 -14 0 -8 97 -159 125 -195 8 -10 15 -25
15 -32 0 -7 5 -13 10 -13 6 0 10 -5 10 -11 0 -6 18 -36 40 -66 22 -31 40 -62
40 -70 0 -7 4 -13 8 -13 4 0 13 -12 19 -27 14 -31 34 -65 45 -73 3 -3 10 -18
13 -33 4 -15 11 -27 15 -27 5 0 20 -24 35 -52 34 -70 58 -112 67 -118 3 -3 10
-18 13 -33 4 -15 11 -27 15 -27 5 0 11 -13 15 -30 4 -16 11 -30 16 -30 5 0 8
-3 8 -7 -3 -14 23 -73 31 -73 5 0 11 -13 15 -30 4 -16 10 -30 15 -30 5 0 11
-13 15 -30 4 -16 10 -30 15 -30 5 0 11 -13 15 -30 4 -16 10 -30 15 -30 4 0 11
-12 15 -27 3 -15 15 -46 26 -70 10 -23 19 -47 19 -52 0 -6 5 -11 10 -11 6 0
10 -6 10 -12 1 -7 9 -31 20 -53 11 -22 19 -46 20 -52 0 -7 4 -13 9 -13 5 0 13
-15 16 -32 4 -18 11 -37 15 -43 4 -5 13 -28 20 -50 6 -22 18 -54 26 -72 8 -17
14 -38 14 -47 0 -9 4 -16 10 -16 5 0 12 -16 16 -35 3 -19 10 -35 15 -35 4 0
11 -17 15 -37 4 -21 10 -42 14 -48 9 -12 34 -100 29 -101 -2 0 1 -7 8 -15 7
-8 15 -34 19 -57 3 -23 10 -40 14 -37 4 3 11 -15 14 -40 4 -25 11 -45 16 -45
5 0 12 -22 16 -50 4 -27 10 -50 14 -50 5 0 11 -22 15 -50 4 -27 11 -52 15 -55
5 -3 14 -37 20 -75 6 -39 15 -70 20 -70 4 0 11 -27 15 -60 4 -33 10 -62 15
-65 4 -3 11 -31 15 -62 4 -32 11 -60 16 -63 4 -3 11 -33 15 -65 4 -33 11 -63
15 -66 5 -3 12 -34 15 -70 4 -35 10 -68 14 -74 4 -5 13 -59 20 -120 7 -60 17
-115 21 -121 5 -5 11 -54 15 -107 4 -53 10 -97 14 -97 4 0 11 -46 14 -102 4
-57 11 -112 16 -123 24 -54 49 -754 38 -1083 -10 -311 -27 -582 -38 -607 -5
-11 -12 -66 -16 -122 -3 -57 -10 -103 -14 -103 -4 0 -10 -44 -14 -97 -4 -53
-10 -102 -15 -107 -4 -6 -14 -60 -21 -121 -7 -60 -16 -114 -20 -120 -4 -5 -10
-39 -14 -74 -3 -36 -10 -67 -15 -70 -4 -3 -11 -33 -15 -66 -4 -32 -11 -62 -15
-65 -5 -3 -12 -31 -16 -63 -4 -31 -11 -59 -15 -62 -5 -3 -11 -32 -15 -65 -4
-33 -11 -60 -15 -60 -5 0 -14 -31 -20 -70 -6 -38 -15 -72 -20 -75 -4 -3 -11
-28 -15 -55 -4 -28 -10 -50 -15 -50 -4 0 -10 -22 -14 -50 -4 -28 -11 -50 -16
-50 -5 0 -12 -20 -16 -45 -3 -25 -10 -43 -14 -40 -4 3 -10 -14 -14 -37 -4 -22
-10 -46 -14 -52 -4 -6 -7 -13 -8 -16 -3 -23 -28 -97 -34 -105 -4 -5 -10 -27
-14 -47 -4 -21 -11 -38 -15 -38 -5 0 -12 -16 -15 -35 -4 -19 -11 -35 -16 -35
-6 0 -10 -7 -10 -16 0 -9 -6 -30 -14 -47 -8 -18 -20 -50 -26 -72 -7 -22 -16
-44 -20 -50 -4 -5 -11 -25 -15 -43 -3 -17 -11 -32 -16 -32 -5 0 -9 -6 -9 -12
-1 -7 -9 -31 -20 -53 -11 -22 -19 -46 -20 -52 0 -7 -4 -13 -10 -13 -5 0 -10
-5 -10 -11 0 -5 -9 -29 -19 -52 -11 -24 -23 -55 -26 -70 -4 -15 -11 -27 -15
-27 -5 0 -11 -14 -15 -30 -4 -17 -10 -30 -15 -30 -5 0 -11 -14 -15 -30 -4 -17
-10 -30 -15 -30 -5 0 -11 -14 -15 -30 -4 -17 -10 -30 -15 -30 -8 0 -34 -59
-31 -72 0 -5 -3 -8 -8 -8 -5 0 -12 -13 -16 -30 -4 -16 -10 -30 -15 -30 -4 0
-11 -12 -15 -27 -3 -15 -10 -30 -13 -33 -9 -6 -33 -48 -67 -118 -15 -28 -30
-52 -35 -52 -4 0 -11 -12 -15 -27 -3 -15 -10 -30 -13 -33 -11 -8 -31 -42 -45
-72 -6 -16 -15 -28 -19 -28 -4 0 -8 -6 -8 -13 0 -8 -18 -39 -40 -70 -22 -30
-40 -60 -40 -66 0 -6 -4 -11 -10 -11 -5 0 -10 -6 -10 -13 0 -7 -7 -22 -15 -32
-28 -36 -125 -187 -125 -195 0 -4 -7 -10 -15 -14 -8 -3 -15 -12 -15 -20 0 -8
-4 -16 -8 -18 -8 -3 -24 -24 -106 -143 -12 -16 -24 -32 -28 -33 -5 -2 -8 -9
-8 -15 0 -7 -13 -25 -28 -42 -15 -16 -38 -46 -51 -65 -13 -19 -29 -39 -35 -45
-7 -5 -25 -28 -41 -50 -17 -22 -35 -44 -41 -50 -6 -5 -28 -34 -48 -63 -21 -28
-45 -58 -55 -65 -9 -6 -28 -28 -41 -47 -13 -19 -40 -51 -59 -71 -20 -20 -48
-51 -62 -69 -82 -99 -330 -353 -493 -505 -198 -183 -234 -215 -248 -215 -5 0
-6 -4 -3 -10 3 -5 2 -10 -4 -10 -5 0 -27 -16 -48 -35 -21 -19 -45 -41 -53 -48
-8 -8 -30 -25 -49 -38 -19 -13 -46 -35 -61 -49 -15 -14 -37 -32 -49 -40 -13
-8 -33 -24 -45 -35 -13 -11 -33 -27 -45 -35 -42 -28 -63 -45 -79 -63 -9 -9
-20 -17 -25 -17 -4 0 -13 -5 -20 -10 -45 -38 -61 -50 -67 -50 -4 0 -16 -8 -28
-18 -11 -9 -30 -24 -42 -32 -12 -8 -30 -22 -40 -30 -10 -8 -28 -22 -40 -30
-12 -8 -32 -22 -44 -31 -11 -9 -31 -19 -43 -23 -13 -4 -23 -11 -23 -16 0 -5
-10 -12 -22 -16 -12 -3 -26 -10 -32 -15 -50 -42 -61 -49 -73 -49 -7 0 -13 -4
-13 -9 0 -5 -13 -14 -30 -21 -16 -7 -30 -16 -30 -21 0 -4 -10 -11 -22 -15 -12
-3 -28 -13 -36 -20 -7 -8 -20 -14 -28 -14 -8 0 -14 -4 -14 -9 0 -5 -10 -13
-22 -17 -12 -3 -28 -13 -36 -20 -7 -8 -20 -14 -28 -14 -8 0 -14 -4 -14 -9 0
-5 -16 -15 -35 -21 -19 -6 -35 -15 -35 -20 0 -5 -13 -11 -30 -15 -16 -4 -30
-10 -30 -14 0 -3 -21 -18 -47 -31 -27 -14 -50 -27 -53 -30 -10 -10 -116 -60
-128 -60 -6 0 -12 -4 -12 -9 0 -5 -12 -12 -27 -16 -15 -3 -30 -10 -33 -14 -7
-12 -210 -109 -242 -117 -16 -3 -28 -10 -28 -15 0 -4 -16 -11 -35 -15 -19 -3
-35 -10 -35 -14 0 -5 -13 -11 -30 -15 -16 -4 -30 -11 -30 -16 0 -5 -6 -9 -12
-9 -7 -1 -31 -9 -53 -20 -22 -11 -47 -20 -55 -20 -8 0 -23 -7 -33 -15 -11 -7
-36 -17 -58 -20 -21 -4 -39 -11 -39 -15 0 -5 -16 -12 -35 -16 -19 -3 -35 -10
-35 -14 0 -5 -18 -11 -40 -15 -22 -4 -40 -11 -40 -16 0 -5 -18 -12 -40 -15
-22 -4 -40 -10 -40 -14 0 -4 -26 -13 -57 -20 -32 -7 -62 -16 -68 -20 -5 -5
-27 -11 -47 -15 -21 -4 -38 -11 -38 -16 0 -4 -20 -11 -45 -15 -25 -3 -45 -10
-45 -15 0 -4 -22 -11 -50 -15 -27 -4 -50 -10 -50 -14 0 -5 -22 -11 -50 -15
-27 -4 -52 -11 -55 -15 -3 -5 -37 -14 -75 -21 -39 -7 -70 -16 -70 -20 0 -4
-27 -11 -60 -15 -33 -4 -60 -10 -60 -14 0 -5 -27 -11 -60 -15 -33 -4 -62 -11
-65 -15 -3 -5 -31 -12 -63 -16 -31 -3 -62 -10 -67 -15 -11 -8 -80 -20 -265
-46 -63 -9 -117 -20 -120 -25 -3 -4 -52 -11 -108 -14 -56 -4 -102 -10 -102
-14 0 -5 -46 -11 -102 -14 -57 -4 -112 -11 -123 -16 -53 -24 -753 -49 -1083
-38 -315 10 -582 27 -607 38 -11 5 -66 12 -122 16 -57 3 -103 9 -103 14 0 4
-46 10 -102 14 -56 3 -105 10 -108 14 -3 5 -57 16 -120 25 -185 26 -254 38
-265 46 -5 5 -36 12 -67 15 -32 4 -60 11 -63 16 -3 4 -32 11 -65 15 -33 4 -60
10 -60 15 0 4 -27 10 -60 14 -33 4 -60 11 -60 15 0 4 -31 13 -70 20 -38 7 -72
16 -75 21 -3 4 -28 11 -55 15 -28 4 -50 10 -50 15 0 4 -22 10 -50 14 -27 4
-50 11 -50 15 0 5 -20 12 -45 15 -25 4 -45 11 -45 15 0 5 -17 12 -37 16 -21 4
-42 10 -48 15 -5 4 -36 13 -67 20 -32 7 -58 16 -58 20 0 4 -18 10 -40 14 -22
3 -40 10 -40 15 0 5 -18 12 -40 16 -22 4 -40 10 -40 15 0 4 -16 11 -35 14 -19
4 -35 11 -35 16 0 4 -18 11 -39 15 -22 3 -47 13 -58 20 -10 8 -25 15 -33 15
-8 0 -33 9 -55 20 -22 11 -46 19 -52 20 -7 0 -13 4 -13 9 0 5 -13 12 -30 16
-16 4 -30 10 -30 15 0 4 -16 11 -35 14 -19 4 -35 11 -35 15 0 5 -12 12 -27 15
-33 8 -236 105 -243 117 -3 4 -18 11 -33 14 -15 4 -27 11 -27 16 0 5 -6 9 -12
9 -12 0 -118 50 -128 60 -3 3 -26 16 -52 30 -27 13 -48 28 -48 31 0 4 -14 10
-30 14 -17 4 -30 10 -30 15 0 5 -16 14 -35 20 -19 6 -35 16 -35 21 0 5 -6 9
-14 9 -8 0 -21 6 -28 14 -8 7 -24 17 -36 20 -12 4 -22 12 -22 17 0 5 -6 9 -14
9 -8 0 -21 6 -28 14 -8 7 -24 17 -36 20 -12 4 -22 11 -22 15 0 5 -13 14 -30
21 -16 7 -30 16 -30 21 0 5 -6 9 -13 9 -12 0 -23 7 -73 49 -6 5 -20 12 -32 15
-12 4 -22 11 -22 16 0 5 -10 12 -22 16 -13 4 -33 14 -44 23 -12 9 -32 23 -44
31 -12 8 -30 22 -40 30 -10 8 -28 22 -40 30 -12 8 -31 23 -42 32 -12 10 -24
18 -28 18 -6 0 -22 12 -67 50 -7 5 -16 10 -20 10 -5 0 -16 8 -24 18 -9 9 -26
24 -38 32 -33 22 -60 43 -86 65 -13 11 -33 27 -46 35 -12 8 -34 26 -49 40 -15
14 -42 36 -61 49 -19 13 -41 30 -49 38 -8 7 -32 29 -53 48 -21 19 -43 35 -48
35 -6 0 -7 5 -4 10 3 6 2 10 -3 10 -37 0 -595 543 -741 720 -14 18 -42 49 -62
69 -19 20 -46 52 -59 71 -13 19 -32 41 -41 47 -10 7 -34 37 -55 65 -20 29 -42
58 -48 63 -6 6 -24 28 -41 50 -16 22 -34 45 -41 50 -6 6 -22 26 -35 45 -13 19
-36 49 -51 65 -15 17 -28 35 -28 42 0 6 -3 13 -7 15 -5 1 -17 17 -29 33 -82
119 -98 140 -106 143 -4 2 -8 10 -8 18 0 8 -7 17 -15 20 -8 4 -15 10 -15 14 0
8 -97 159 -125 195 -8 10 -15 25 -15 32 0 7 -4 13 -10 13 -5 0 -10 5 -10 11 0
6 -18 36 -40 66 -22 31 -40 62 -40 70 0 7 -4 13 -8 13 -4 0 -13 12 -19 28 -14
30 -34 64 -45 72 -3 3 -10 18 -13 33 -4 15 -11 27 -15 27 -5 0 -20 24 -35 52
-34 70 -58 112 -67 118 -3 3 -10 18 -13 33 -4 15 -11 27 -15 27 -5 0 -11 14
-15 30 -4 17 -11 30 -16 30 -5 0 -8 3 -8 8 3 13 -23 72 -31 72 -5 0 -11 14
-15 30 -4 17 -10 30 -15 30 -5 0 -11 13 -15 30 -4 16 -10 30 -15 30 -5 0 -11
14 -15 30 -4 17 -10 30 -15 30 -4 0 -11 12 -15 27 -3 15 -15 46 -26 70 -10 23
-19 47 -19 52 0 6 -4 11 -10 11 -5 0 -10 6 -10 13 -1 6 -9 30 -20 52 -11 22
-19 46 -20 53 0 6 -4 12 -9 12 -5 0 -13 15 -16 32 -4 18 -11 38 -15 43 -4 6
-13 28 -20 50 -6 22 -18 54 -26 72 -8 17 -14 38 -14 47 0 9 -4 16 -10 16 -5 0
-12 16 -16 35 -3 19 -10 35 -15 35 -4 0 -11 17 -15 38 -4 20 -10 42 -14 47 -6
8 -31 82 -34 105 -1 3 -4 10 -8 16 -4 6 -10 30 -14 52 -4 23 -10 40 -14 37 -4
-3 -11 15 -14 40 -4 25 -11 45 -16 45 -5 0 -12 22 -16 50 -4 27 -10 50 -14 50
-5 0 -11 22 -15 50 -4 27 -11 52 -15 55 -5 3 -14 37 -20 75 -6 39 -15 70 -20
70 -4 0 -11 27 -15 60 -4 33 -10 62 -15 65 -4 3 -11 31 -15 62 -4 32 -11 60
-16 63 -4 3 -11 33 -15 65 -4 33 -11 63 -15 66 -5 3 -12 34 -15 70 -4 35 -10
69 -14 74 -4 6 -13 60 -20 120 -7 61 -17 115 -21 121 -5 5 -11 54 -15 107 -4
53 -10 97 -14 97 -4 0 -11 46 -14 103 -4 56 -11 111 -16 122 -24 54 -49 754
-38 1082 10 312 27 583 38 608 5 11 12 66 16 123 3 56 10 102 14 102 4 0 10
44 14 97 4 53 10 102 15 107 4 6 14 61 21 121 7 61 16 115 20 120 4 6 10 39
14 74 3 36 10 67 15 70 4 3 11 33 15 66 4 32 11 62 15 65 5 3 12 31 16 63 4
31 11 59 15 62 5 3 11 32 15 65 4 33 11 60 15 60 5 0 14 31 20 70 6 38 15 72
20 75 4 3 11 28 15 55 4 28 10 50 15 50 4 0 10 23 14 50 4 28 11 50 16 50 5 0
12 20 16 45 3 25 10 43 14 40 4 -3 11 14 14 37 4 23 12 49 19 57 7 8 10 15 8
15 -5 1 20 89 29 101 4 6 10 27 14 48 4 20 11 37 15 37 5 0 12 16 15 35 4 19
11 35 16 35 6 0 10 7 10 16 0 9 6 30 14 47 8 18 20 50 26 72 7 22 16 45 20 50
4 6 11 25 15 43 3 17 11 32 16 32 5 0 9 6 9 13 1 6 9 30 20 52 11 22 19 46 20
53 0 6 5 12 10 12 6 0 10 5 10 11 0 5 9 29 19 52 11 24 23 55 26 70 4 15 11
27 15 27 5 0 11 14 15 30 4 17 10 30 15 30 5 0 11 14 15 30 4 17 10 30 15 30
5 0 11 14 15 30 4 17 10 30 15 30 8 0 34 59 31 73 0 4 3 7 8 7 5 0 12 14 16
30 4 17 10 30 15 30 4 0 11 12 15 27 3 15 10 30 13 33 9 6 33 48 67 118 15 28
30 52 35 52 4 0 11 12 15 27 3 15 10 30 13 33 11 8 31 42 45 73 6 15 15 27 19
27 4 0 8 6 8 13 0 8 18 39 40 70 22 30 40 60 40 66 0 6 5 11 10 11 6 0 10 6
10 13 0 7 7 22 15 32 28 36 125 187 125 195 0 4 7 10 15 14 8 3 15 12 15 20 0
8 4 16 8 18 8 3 24 24 106 143 12 17 24 32 29 33 4 2 7 9 7 15 0 7 13 26 28
42 15 17 38 46 51 65 13 19 29 40 35 45 7 6 25 28 41 50 17 22 35 45 41 50 6
6 28 34 48 63 21 28 45 58 55 65 9 6 28 28 41 47 13 19 40 51 59 71 20 20 48
51 62 69 82 99 330 353 493 505 198 183 234 215 248 215 5 0 6 5 3 10 -3 6 -2
10 4 10 5 0 27 16 48 35 21 19 45 41 53 48 8 8 30 25 49 38 19 13 46 35 61 49
15 14 37 32 49 40 13 8 33 24 45 35 13 11 33 27 45 35 42 28 63 45 79 63 9 9
20 17 25 17 4 0 13 5 20 10 45 38 61 50 67 50 4 0 16 8 28 18 11 9 30 24 42
32 12 8 30 22 40 30 10 8 28 22 40 30 12 8 32 22 44 31 11 9 31 19 44 23 12 4
22 11 22 16 0 5 10 12 22 16 12 3 26 10 32 15 50 42 61 49 73 49 7 0 13 4 13
9 0 5 14 14 30 21 17 7 30 16 30 21 0 4 10 11 22 15 12 3 28 13 36 20 7 8 20
14 28 14 8 0 14 4 14 9 0 5 10 13 22 17 12 3 28 13 36 20 7 8 20 14 28 14 8 0
14 4 14 9 0 5 16 15 35 21 19 6 35 15 35 20 0 5 13 11 30 15 16 4 30 10 30 14
0 3 21 18 48 31 26 14 49 27 52 30 10 10 116 60 128 60 6 0 12 4 12 9 0 5 12
12 27 16 15 3 30 10 33 14 7 12 210 109 243 117 15 3 27 10 27 15 0 4 16 11
35 15 19 3 35 10 35 14 0 5 14 11 30 15 17 4 30 11 30 16 0 5 6 9 13 9 6 1 30
9 52 20 22 11 47 20 55 20 8 0 23 7 33 15 11 7 36 17 58 20 21 4 39 11 39 15
0 5 16 12 35 16 19 3 35 10 35 14 0 5 18 11 40 15 22 4 40 11 40 16 0 5 18 12
40 15 22 4 40 10 40 14 0 4 26 13 58 20 31 7 62 16 67 20 6 5 27 11 48 15 20
4 37 11 37 16 0 4 20 11 45 15 25 3 45 10 45 15 0 4 23 11 50 15 28 4 50 10
50 14 0 5 22 11 50 15 27 4 52 11 55 15 3 5 37 14 75 21 39 7 70 16 70 20 0 4
27 11 60 15 33 4 60 10 60 14 0 5 27 11 60 15 33 4 62 11 65 15 3 5 31 12 63
16 31 3 62 10 67 15 11 8 80 20 265 46 63 9 117 20 120 25 3 4 52 11 108 14
56 4 102 10 102 14 0 5 46 11 103 14 56 4 111 11 122 16 72 33 1239 59 1325
30z"/>
<path d="M6178 14405 c-4 -4 -77 -7 -163 -6 -131 1 -155 -2 -155 -14 0 -17
-10 -19 -101 -15 -53 1 -67 -1 -72 -14 -5 -12 -21 -16 -64 -16 -35 -1 -66 -6
-77 -15 -11 -8 -38 -15 -60 -15 -23 0 -50 -7 -60 -15 -11 -8 -37 -15 -57 -15
-21 0 -40 -4 -43 -9 -4 -5 -42 -17 -86 -27 -44 -10 -80 -22 -80 -26 0 -4 -16
-10 -35 -14 -19 -3 -39 -12 -46 -20 -6 -8 -24 -14 -39 -14 -25 0 -89 -26 -100
-40 -3 -4 -13 -8 -22 -8 -42 -4 -47 -6 -52 -19 -3 -7 -13 -13 -21 -13 -9 0
-35 -11 -58 -23 -23 -13 -48 -22 -54 -20 -7 3 -26 -5 -42 -16 -16 -12 -33 -21
-37 -21 -19 0 -176 -83 -180 -95 -3 -7 -14 -11 -25 -8 -10 3 -19 0 -19 -6 0
-6 -15 -17 -34 -25 -18 -8 -37 -19 -40 -25 -4 -6 -16 -11 -27 -11 -10 0 -19
-5 -19 -11 0 -5 -20 -19 -45 -30 -25 -11 -45 -24 -45 -29 0 -6 -11 -10 -25
-10 -14 0 -25 -4 -25 -10 0 -17 -39 -50 -58 -50 -10 0 -35 -18 -55 -40 -19
-22 -42 -40 -51 -40 -8 0 -38 -20 -66 -45 -28 -25 -55 -45 -60 -45 -5 0 -39
-29 -75 -65 -36 -36 -70 -65 -75 -65 -6 0 -10 -4 -10 -8 0 -4 -23 -25 -51 -47
-72 -54 -302 -286 -306 -308 -2 -10 -27 -42 -57 -71 -30 -29 -63 -67 -73 -84
-11 -17 -39 -53 -64 -79 -47 -51 -109 -143 -109 -160 0 -6 -6 -13 -14 -16 -7
-3 -23 -26 -36 -51 -12 -25 -26 -48 -31 -52 -5 -3 -15 -20 -23 -37 -7 -18 -25
-38 -39 -46 -15 -8 -27 -21 -27 -28 0 -16 -57 -135 -69 -143 -4 -3 -23 -38
-42 -77 -18 -40 -37 -73 -41 -73 -5 0 -8 -11 -8 -25 0 -14 -4 -25 -9 -25 -5 0
-12 -18 -16 -40 -4 -22 -11 -40 -16 -40 -5 0 -9 -9 -9 -19 0 -11 -6 -26 -12
-33 -25 -27 -48 -80 -48 -109 0 -17 -6 -32 -15 -35 -9 -4 -15 -19 -15 -40 0
-22 -6 -37 -15 -40 -8 -4 -15 -17 -15 -30 0 -14 -7 -27 -15 -30 -11 -4 -15
-21 -15 -55 0 -27 -4 -49 -10 -49 -5 0 -10 -17 -10 -39 0 -22 -6 -44 -15 -51
-8 -7 -15 -27 -15 -46 0 -18 -6 -37 -14 -41 -7 -4 -16 -26 -19 -48 -4 -22 -12
-62 -18 -90 -7 -27 -13 -61 -14 -75 -2 -14 -5 -32 -8 -40 -5 -14 -13 -58 -21
-120 -2 -14 -6 -32 -9 -40 -5 -14 -16 -91 -21 -156 -2 -17 -7 -37 -11 -45 -11
-17 -11 -841 0 -858 4 -8 9 -30 11 -50 12 -141 17 -181 24 -181 4 0 7 -6 7
-12 -2 -26 16 -119 23 -123 5 -3 6 -14 3 -25 -3 -11 0 -32 6 -48 6 -15 12 -40
12 -57 2 -42 22 -115 32 -115 4 0 5 -5 1 -11 -6 -10 12 -82 26 -104 4 -5 15
-45 25 -87 11 -43 23 -78 27 -78 4 0 11 -18 14 -39 4 -22 13 -42 20 -45 8 -3
14 -20 14 -40 0 -21 6 -36 15 -40 8 -3 15 -14 15 -25 0 -10 7 -32 15 -47 8
-16 12 -37 9 -46 -3 -11 3 -21 16 -28 12 -7 19 -18 16 -25 -3 -8 -1 -17 5 -20
12 -8 39 -72 39 -95 0 -10 6 -20 13 -23 6 -3 19 -20 28 -38 42 -92 85 -175 96
-187 7 -7 13 -22 13 -33 0 -10 3 -19 8 -19 4 0 16 -17 27 -37 11 -21 32 -48
48 -61 15 -13 27 -32 27 -41 0 -10 11 -30 25 -45 14 -15 25 -31 25 -36 0 -5
11 -21 25 -36 14 -15 25 -32 25 -39 0 -6 18 -31 40 -55 22 -23 37 -46 35 -51
-3 -4 15 -28 40 -53 24 -25 48 -56 51 -68 4 -13 44 -57 89 -98 46 -41 83 -79
84 -83 0 -4 25 -32 54 -61 57 -58 69 -72 86 -104 6 -12 16 -22 22 -22 21 0
119 -82 119 -100 0 -5 4 -10 8 -10 11 0 92 -79 92 -90 0 -5 15 -16 34 -24 18
-8 50 -30 71 -50 21 -21 54 -45 74 -56 20 -10 42 -28 49 -39 7 -12 21 -21 31
-21 10 0 34 -15 53 -32 36 -33 92 -68 109 -68 5 0 23 -14 39 -30 16 -17 36
-30 45 -30 9 0 18 -7 21 -15 4 -8 15 -15 25 -15 16 0 103 -52 119 -71 3 -3 28
-14 55 -25 28 -10 79 -35 115 -56 36 -21 75 -38 87 -38 14 0 23 -6 23 -15 0
-9 9 -15 23 -15 12 0 35 -7 51 -15 15 -8 32 -15 38 -15 18 0 138 -61 138 -70
0 -6 15 -10 34 -10 18 0 39 -7 46 -15 7 -8 28 -15 46 -15 19 0 34 -4 34 -10 0
-5 22 -10 49 -10 31 0 53 -5 61 -15 7 -8 28 -15 47 -15 21 0 36 -6 39 -15 4
-10 21 -15 54 -15 27 0 51 -4 54 -9 3 -4 29 -11 58 -15 29 -4 56 -12 60 -19 4
-7 33 -10 82 -8 62 2 77 -1 82 -13 5 -13 23 -16 93 -16 48 0 91 -4 96 -9 6 -5
82 -13 170 -17 93 -4 164 -11 170 -18 16 -15 272 -13 288 3 6 6 34 11 62 11
116 0 295 14 283 21 -7 5 34 9 95 9 90 0 107 2 107 16 0 13 12 15 64 13 36 -1
71 3 78 9 7 6 41 14 76 18 34 3 65 11 68 15 3 5 27 9 55 9 37 0 49 4 49 15 0
11 11 15 36 15 19 0 42 7 50 15 9 9 34 15 59 15 24 0 47 5 50 10 3 6 14 10 24
10 10 0 24 7 31 15 7 8 25 15 40 15 15 0 33 7 40 15 7 8 26 15 43 15 16 0 35
7 41 15 6 8 21 16 33 18 12 2 26 6 29 10 4 4 15 7 25 7 9 0 19 7 23 15 3 8 17
15 31 15 14 0 28 6 31 13 2 7 18 14 35 15 17 1 54 15 82 31 62 35 102 55 142
72 17 7 39 21 51 31 28 25 94 58 115 58 9 0 19 7 23 15 3 8 15 15 26 15 11 0
20 7 20 15 0 8 7 15 15 15 9 0 18 7 21 15 4 8 11 15 18 15 6 0 47 25 90 55 44
30 83 55 87 55 4 0 25 16 46 35 21 19 46 38 56 41 9 3 41 29 71 59 30 29 59
54 64 56 27 10 310 283 407 392 17 18 40 39 51 45 12 6 27 25 34 42 7 16 39
57 71 91 33 34 59 66 59 71 0 6 16 28 35 51 20 23 38 51 41 64 3 12 11 24 18
26 6 3 25 24 41 48 16 24 38 55 50 69 12 14 30 45 40 70 10 25 25 50 32 56 15
13 63 100 63 115 0 5 12 22 26 39 30 34 48 65 58 103 3 15 11 27 16 27 6 0 10
6 10 14 0 8 6 21 13 28 7 7 21 40 31 73 10 33 22 68 27 77 5 10 9 22 9 27 0 6
13 29 29 53 15 24 45 94 65 157 20 62 43 125 50 140 7 14 19 54 27 89 7 34 16
62 20 62 3 0 9 22 13 50 4 27 10 52 15 54 9 6 23 56 27 99 1 16 7 50 14 76 6
26 10 52 9 57 -1 5 0 16 4 24 11 30 20 76 21 118 0 23 4 42 8 42 6 0 10 35 24
195 7 80 7 736 0 805 -3 30 -8 83 -12 118 -3 34 -9 62 -12 62 -4 0 -8 17 -9
38 -1 40 -11 98 -20 122 -4 8 -5 19 -4 24 1 5 -3 31 -9 58 -7 27 -14 63 -15
81 -8 77 -45 200 -64 212 -6 3 -11 28 -11 55 0 27 -4 52 -10 55 -5 3 -10 21
-10 40 0 20 -6 35 -15 39 -8 3 -15 17 -15 30 0 14 -11 45 -24 68 -13 24 -27
58 -31 77 -4 19 -14 41 -21 49 -8 7 -14 26 -14 42 0 16 -7 30 -15 34 -8 3 -15
17 -15 31 0 14 -4 25 -8 25 -4 0 -16 23 -27 51 -11 28 -26 55 -32 61 -7 6 -13
19 -13 29 0 11 -4 19 -8 19 -5 0 -17 27 -28 60 -10 33 -22 60 -26 60 -6 0 -14
13 -55 93 -9 17 -22 36 -30 40 -7 4 -13 16 -13 25 0 10 -9 25 -20 35 -11 9
-20 22 -20 29 0 7 -15 30 -34 50 -19 21 -38 48 -42 60 -4 13 -15 29 -25 36 -9
6 -20 26 -24 42 -4 17 -10 30 -14 30 -15 0 -61 52 -61 69 0 9 -16 32 -35 50
-19 19 -37 43 -41 53 -3 10 -10 18 -15 18 -5 0 -9 7 -9 15 0 8 -4 15 -9 15 -4
0 -21 18 -36 40 -15 22 -33 40 -39 41 -6 0 -27 21 -46 45 -48 62 -106 120
-235 234 -60 54 -136 125 -167 158 -31 33 -70 68 -87 76 -16 9 -45 31 -63 50
-18 18 -43 36 -55 40 -12 4 -33 20 -46 36 -14 16 -27 26 -30 23 -8 -7 -77 36
-77 48 0 5 -6 9 -12 9 -7 0 -26 12 -43 26 -16 14 -47 35 -67 45 -21 11 -38 24
-38 29 0 6 -7 10 -15 10 -8 0 -31 11 -51 25 -21 14 -49 28 -63 32 -14 3 -37
16 -51 28 -21 19 -54 36 -80 40 -3 0 -15 6 -27 13 -13 7 -23 10 -23 6 0 -4
-11 3 -25 16 -14 13 -25 20 -25 16 0 -4 -12 2 -26 13 -15 11 -30 18 -34 16 -5
-3 -11 -1 -15 5 -3 5 -17 10 -31 10 -14 0 -27 7 -30 15 -4 9 -19 15 -39 15
-20 0 -35 6 -39 15 -3 8 -16 15 -30 15 -13 0 -26 6 -29 13 -2 6 -34 21 -71 32
-36 11 -66 23 -66 26 0 4 -16 10 -36 14 -20 3 -44 10 -53 14 -23 12 -80 28
-123 36 -21 3 -38 10 -38 15 0 6 -17 10 -38 10 -21 0 -47 7 -58 15 -10 8 -37
15 -60 15 -22 0 -49 7 -60 15 -11 9 -42 14 -77 15 -43 0 -59 4 -64 15 -4 13
-21 16 -81 14 -62 -2 -76 1 -84 15 -9 15 -26 18 -121 17 -62 0 -245 2 -407 5
-162 3 -298 2 -302 -1z m160 -632 c-10 -2 -28 -2 -40 0 -13 2 -5 4 17 4 22 1
32 -1 23 -4z m225 0 c-7 -2 -19 -2 -25 0 -7 3 -2 5 12 5 14 0 19 -2 13 -5z
m167 -27 c47 -9 102 -16 122 -16 20 0 63 -7 95 -15 31 -8 76 -15 99 -15 48 0
139 -20 264 -57 47 -14 108 -31 135 -38 56 -15 112 -34 137 -46 10 -5 46 -19
80 -30 35 -12 72 -28 83 -35 11 -8 27 -14 36 -14 9 0 22 -7 29 -15 7 -8 20
-15 30 -15 18 0 149 -66 190 -96 8 -6 31 -17 50 -24 19 -8 41 -20 48 -27 7 -7
20 -13 27 -13 8 0 18 -6 22 -13 4 -7 24 -21 44 -30 20 -9 42 -23 49 -32 7 -8
19 -15 26 -15 8 0 14 -4 14 -8 0 -5 12 -14 26 -21 45 -20 170 -119 356 -282
27 -23 60 -51 76 -63 37 -29 222 -215 222 -224 0 -4 17 -25 38 -46 20 -21 44
-49 52 -61 8 -12 32 -42 52 -66 66 -77 98 -121 192 -264 136 -207 202 -322
221 -385 4 -14 19 -50 33 -80 32 -70 72 -177 79 -212 3 -15 11 -33 19 -39 8
-6 14 -21 14 -33 0 -11 7 -43 16 -71 48 -159 99 -370 114 -475 6 -36 14 -87
19 -115 16 -81 23 -467 11 -635 -11 -166 -31 -334 -48 -415 -6 -27 -16 -84
-23 -125 -7 -41 -16 -83 -21 -92 -5 -10 -13 -37 -17 -60 -50 -235 -183 -578
-282 -726 -16 -24 -29 -45 -29 -48 0 -3 -19 -34 -42 -69 -60 -90 -100 -151
-122 -188 -11 -18 -34 -51 -53 -74 -18 -23 -33 -46 -33 -52 0 -6 -13 -25 -28
-43 -15 -18 -49 -62 -74 -98 -50 -72 -254 -283 -363 -375 -38 -33 -80 -70 -93
-82 -12 -13 -25 -23 -29 -23 -3 0 -44 -31 -92 -69 -47 -37 -101 -76 -118 -85
-18 -9 -33 -21 -33 -26 0 -6 -5 -10 -12 -10 -6 0 -19 -6 -27 -14 -9 -7 -43
-28 -76 -47 -33 -18 -94 -52 -135 -76 -68 -39 -168 -89 -260 -131 -19 -8 -51
-23 -70 -32 -19 -9 -56 -23 -83 -30 -26 -7 -50 -17 -53 -21 -3 -5 -13 -9 -22
-9 -9 0 -30 -7 -47 -16 -16 -8 -56 -21 -87 -29 -32 -7 -88 -25 -125 -39 -106
-40 -326 -88 -488 -106 -44 -5 -188 -12 -320 -15 -432 -11 -756 31 -1120 143
-71 22 -155 50 -185 62 -30 12 -77 30 -103 39 -26 10 -53 23 -60 30 -6 6 -16
11 -23 11 -10 0 -70 26 -114 48 -8 5 -68 35 -132 68 -65 32 -118 62 -118 65 0
4 -8 9 -17 13 -10 3 -27 11 -38 18 -11 7 -39 25 -63 41 -24 15 -47 27 -53 27
-5 0 -9 4 -9 10 0 5 -15 16 -32 25 -18 8 -55 36 -83 60 -27 25 -63 51 -80 59
-59 28 -256 212 -378 350 -15 17 -52 58 -82 91 -67 73 -155 182 -155 191 0 7
-4 12 -57 70 -15 17 -37 48 -47 68 -11 20 -23 36 -28 36 -4 0 -8 7 -8 14 0 8
-11 27 -25 42 -14 15 -25 31 -25 36 0 5 -14 29 -31 54 -17 25 -39 65 -50 89
-11 25 -24 45 -29 45 -6 0 -10 7 -10 15 0 8 -4 15 -9 15 -5 0 -19 25 -30 55
-11 30 -25 63 -29 72 -51 102 -85 185 -96 236 -4 15 -11 27 -16 27 -6 0 -10 8
-10 18 0 9 -7 30 -16 47 -18 35 -52 149 -67 225 -6 30 -14 57 -18 60 -4 3 -15
50 -24 105 -8 55 -20 118 -26 140 -6 22 -12 60 -15 85 -2 25 -9 70 -14 100
-32 182 -34 729 -4 851 8 31 14 72 14 90 0 18 6 58 14 88 8 31 19 88 26 126
19 113 26 148 38 175 6 14 22 66 37 115 15 50 33 104 41 122 8 17 14 37 14 45
0 7 6 22 14 33 7 11 16 34 20 50 4 17 34 84 67 150 32 67 59 126 59 132 0 6 6
18 13 25 17 20 33 46 61 103 14 28 37 65 51 84 14 19 25 39 25 45 0 5 23 42
50 82 27 40 50 76 50 81 0 4 18 28 40 53 23 25 46 55 53 67 51 91 273 340 418
468 68 61 225 182 284 220 33 21 62 40 65 44 3 3 23 15 44 26 68 35 76 40 76
47 0 4 20 17 45 28 25 11 45 25 45 30 0 6 9 10 20 10 11 0 20 7 20 15 0 8 9
15 20 15 11 0 48 17 83 38 34 20 94 52 132 71 39 19 81 42 95 51 14 9 63 30
110 45 47 16 89 32 95 37 5 4 21 8 35 8 14 0 30 4 35 9 6 6 42 17 80 25 39 9
111 27 160 41 107 30 162 41 274 55 46 6 91 14 100 19 9 4 54 12 101 16 47 4
112 10 145 14 135 14 458 12 545 -3z"/>
<path d="M7380 12995 c-83 -19 -137 -44 -225 -101 -107 -70 -166 -130 -253
-258 -76 -110 -131 -220 -173 -341 -23 -67 -24 -82 -24 -315 0 -314 5 -332
129 -547 56 -98 184 -229 261 -267 124 -63 319 -61 445 5 66 35 91 50 105 65
5 6 39 33 75 61 158 124 271 284 314 443 9 36 24 88 31 115 21 75 38 307 31
420 -8 115 -51 277 -97 369 -36 69 -129 186 -196 246 -67 59 -134 89 -233 106
-99 16 -117 16 -190 -1z"/>
<path d="M5385 12989 c-115 -16 -213 -52 -260 -96 -11 -10 -34 -29 -52 -41
-42 -30 -123 -142 -172 -239 -69 -137 -79 -178 -90 -363 -7 -121 -6 -170 10
-293 11 -82 24 -170 30 -195 12 -49 101 -230 122 -247 7 -5 30 -32 52 -60 22
-27 68 -77 101 -110 187 -183 317 -233 542 -205 122 15 205 53 312 145 59 50
78 75 116 150 98 193 118 294 112 563 l-5 187 -42 125 c-94 277 -178 402 -383
572 -89 74 -144 95 -303 112 -16 2 -57 0 -90 -5z"/>
<path d="M3961 11539 c-196 -62 -300 -170 -397 -408 -50 -125 -65 -218 -65
-416 0 -186 10 -240 70 -405 43 -117 129 -282 161 -310 3 -3 23 -28 45 -55 50
-64 135 -141 206 -187 113 -75 261 -92 424 -49 80 21 100 31 185 95 116 88
218 218 239 304 5 21 17 64 26 97 30 108 55 276 55 368 0 70 -8 123 -36 236
-56 226 -123 351 -287 541 -72 82 -172 141 -330 194 -69 23 -214 20 -296 -5z"/>
<path d="M8670 11553 c-14 -3 -29 -9 -34 -14 -6 -5 -16 -9 -22 -9 -26 0 -201
-111 -249 -158 -75 -73 -137 -148 -163 -195 -13 -23 -33 -58 -46 -77 -45 -70
-95 -205 -112 -305 -20 -115 -22 -458 -4 -541 6 -27 32 -94 59 -149 74 -155
166 -267 281 -343 81 -53 141 -66 305 -66 l130 -1 90 59 c103 68 290 249 349
340 87 132 147 273 160 371 3 22 7 58 10 80 13 91 15 188 6 292 -7 90 -15 125
-44 196 -69 166 -144 284 -241 381 -81 80 -129 109 -210 130 -55 15 -204 20
-265 9z"/>
<path d="M6415 10980 c-217 -23 -338 -58 -475 -137 -88 -51 -208 -160 -323
-293 -45 -52 -84 -97 -87 -100 -3 -3 -17 -21 -32 -40 -14 -19 -40 -51 -58 -70
-18 -19 -44 -51 -59 -70 -84 -113 -360 -450 -441 -538 -265 -291 -421 -511
-514 -729 -44 -103 -49 -142 -47 -374 1 -167 4 -204 21 -253 25 -75 108 -231
137 -261 13 -12 36 -39 52 -59 41 -51 195 -190 259 -232 29 -19 96 -58 149
-85 85 -45 108 -52 207 -65 164 -23 408 1 571 54 33 11 114 37 180 58 l120 39
390 0 c378 0 392 -1 465 -23 41 -12 122 -37 180 -54 58 -17 119 -38 135 -47
39 -20 290 -27 418 -12 112 13 293 69 350 107 106 71 265 195 298 230 163 181
229 371 229 659 0 177 -15 256 -73 375 -64 133 -96 181 -299 446 -23 31 -51
63 -168 197 -19 22 -56 62 -82 90 -27 28 -51 59 -54 69 -3 10 -9 18 -14 18 -5
0 -22 18 -37 39 -47 65 -296 371 -368 451 -37 41 -86 97 -109 123 -203 238
-315 338 -465 415 -116 60 -298 88 -456 72z"/>
<path d="M9731 7488 c-58 -68 -442 -450 -504 -503 -26 -22 -49 -47 -52 -56 -9
-28 15 -66 64 -97 51 -34 414 -391 501 -492 101 -119 155 -170 181 -170 47 1
88 54 189 246 50 95 214 239 301 265 54 17 119 78 119 113 0 38 -32 74 -282
324 -405 405 -423 422 -459 422 -7 0 -33 -24 -58 -52z"/>
<path d="M10725 6576 c-55 -19 -120 -40 -145 -47 -72 -20 -170 -78 -170 -100
0 -6 -20 -31 -44 -57 -79 -83 -156 -206 -156 -248 0 -7 -4 -16 -10 -19 -13 -8
-13 -275 -1 -324 6 -20 15 -64 22 -99 6 -34 18 -66 25 -70 6 -4 24 -34 38 -66
15 -33 41 -78 60 -100 18 -23 39 -52 46 -66 7 -14 16 -27 20 -30 3 -3 40 -43
80 -89 41 -46 98 -109 128 -140 29 -31 68 -72 86 -91 18 -19 41 -42 51 -50 17
-13 18 -13 10 0 -8 13 -7 13 8 1 9 -7 17 -20 17 -27 0 -8 6 -13 13 -12 6 2 12
-6 12 -17 0 -11 7 -20 15 -21 38 -2 42 -5 36 -21 -5 -11 8 -29 40 -59 25 -24
51 -42 58 -41 6 1 10 -4 8 -11 -1 -8 2 -11 6 -8 10 6 45 -28 37 -36 -3 -2 23
-29 58 -59 34 -30 143 -133 242 -229 99 -97 211 -205 249 -240 38 -36 76 -73
85 -84 35 -41 667 -669 791 -786 73 -69 162 -143 199 -166 36 -22 89 -55 118
-73 73 -47 177 -72 316 -78 110 -5 123 -4 200 22 89 30 93 33 212 111 95 63
143 127 190 255 71 192 68 178 67 299 0 104 -6 144 -40 270 -16 61 -74 173
-112 215 -9 11 -19 25 -21 32 -4 11 -99 119 -176 201 -18 19 -33 36 -33 39 0
8 -43 42 -75 60 -16 8 -35 22 -43 29 -7 8 -18 14 -24 14 -13 0 -195 175 -236
228 -40 51 -80 91 -337 337 -282 270 -634 616 -799 785 -376 386 -494 502
-526 521 -19 11 -69 40 -110 64 -41 25 -82 45 -90 45 -8 0 -28 7 -43 15 -15 8
-45 17 -65 21 -20 4 -42 11 -48 16 -7 5 -40 11 -75 13 -54 4 -80 -1 -164 -29z"/>
</g>
</svg>
