<?xml version="1.0" standalone="no"?>
<!DOCTYPE svg PUBLIC "-//W3C//DTD SVG 20010904//EN"
 "http://www.w3.org/TR/2001/REC-SVG-20010904/DTD/svg10.dtd">
<svg version="1.0" xmlns="http://www.w3.org/2000/svg"
 width="675.000000pt" height="675.000000pt" viewBox="0 0 675.000000 675.000000"
 preserveAspectRatio="xMidYMid meet">
<g transform="translate(0.000000,675.000000) scale(0.100000,-0.100000)"
fill="#000000" stroke="none">
<path d="M745 5458 c-33 -5 -67 -13 -75 -18 -8 -5 -33 -19 -55 -30 -42 -23
-115 -91 -115 -108 0 -5 -7 -15 -15 -22 -8 -7 -15 -20 -15 -30 0 -10 -7 -23
-15 -30 -8 -7 -15 -27 -15 -44 -1 -17 -7 -42 -15 -56 -19 -33 -19 -100 0 -136
8 -16 15 -43 15 -60 0 -17 7 -37 15 -44 8 -7 15 -18 15 -24 0 -24 123 -156
146 -156 6 0 17 -7 24 -15 7 -8 22 -15 34 -15 11 0 30 -7 40 -15 17 -13 353
-15 2651 -15 2298 0 2634 2 2651 15 10 8 29 15 40 15 12 0 27 7 34 15 7 8 18
15 24 15 23 0 146 133 146 158 0 5 7 15 15 22 8 7 15 27 15 44 1 17 7 42 15
56 18 32 18 108 0 140 -8 14 -14 39 -15 56 0 17 -7 37 -15 44 -8 7 -15 20 -15
30 0 10 -7 20 -15 24 -8 3 -15 12 -15 20 0 18 -78 96 -96 96 -8 0 -17 7 -20
15 -4 8 -14 15 -23 15 -9 0 -23 6 -29 12 -35 35 -136 36 -2717 35 -1467 0
-2565 -4 -2600 -9z"/>
<path d="M685 3752 c-16 -8 -37 -19 -45 -24 -8 -4 -22 -11 -30 -15 -30 -13
-140 -134 -140 -154 0 -11 -7 -22 -15 -25 -9 -4 -15 -20 -15 -43 -1 -20 -7
-47 -15 -61 -19 -33 -19 -89 0 -133 8 -20 15 -50 15 -66 0 -16 6 -31 15 -35 8
-3 15 -14 15 -25 0 -30 131 -159 180 -177 8 -3 28 -12 43 -20 25 -12 383 -14
2672 -14 2832 0 2645 -3 2725 42 8 4 22 11 30 15 28 12 140 134 140 152 0 10
7 24 15 31 8 7 15 27 15 44 1 17 7 42 15 56 19 33 19 92 0 137 -8 19 -15 48
-15 63 0 16 -7 30 -15 34 -8 3 -15 14 -15 25 0 30 -131 159 -180 177 -8 3 -28
12 -43 20 -25 12 -383 14 -2675 13 -2385 -1 -2650 -2 -2677 -17z"/>
<path d="M714 2075 c-10 -8 -29 -15 -40 -15 -12 0 -27 -7 -34 -15 -7 -8 -18
-15 -24 -15 -23 0 -146 -133 -146 -158 0 -5 -7 -15 -15 -22 -8 -7 -15 -27 -15
-44 -1 -17 -7 -42 -15 -56 -18 -32 -18 -108 0 -140 8 -14 14 -39 15 -56 0 -17
7 -37 15 -44 8 -7 15 -20 15 -30 0 -10 7 -20 15 -24 8 -3 15 -11 15 -18 0 -19
52 -73 88 -92 18 -9 32 -21 32 -26 0 -6 8 -10 19 -10 10 0 24 -6 30 -14 6 -7
35 -17 64 -22 82 -13 5136 -13 5234 0 45 6 88 17 95 24 6 6 20 12 30 12 10 0
18 4 18 9 0 5 17 20 38 32 41 25 81 67 82 87 0 7 7 15 15 18 8 4 15 14 15 24
0 10 7 23 15 30 8 7 15 27 15 44 1 17 7 42 15 56 8 14 14 45 14 70 0 25 -6 56
-14 70 -8 14 -14 39 -15 57 0 17 -5 35 -11 38 -5 4 -14 17 -20 28 -5 12 -15
31 -21 41 -20 31 -111 116 -124 116 -6 0 -17 7 -24 15 -7 8 -22 15 -34 15 -12
0 -31 7 -42 15 -17 13 -352 14 -2650 15 -2297 0 -2633 -2 -2650 -15z"/>
</g>
</svg>
