<svg version="1.1" id="Layer_1" xmlns="http://www.w3.org/2000/svg" xmlns:xlink="http://www.w3.org/1999/xlink" x="0px" y="0px"
	 width="100%" viewBox="0 0 365 543" enable-background="new 0 0 365 543" xml:space="preserve">
<path fill="#AD3C2A" opacity="1.000000" stroke="none" 
	d="
M366.000000,86.000000 
	C366.000000,88.370560 366.000000,90.741112 365.692993,93.841164 
	C365.255585,95.709366 365.011902,96.848022 365.011444,97.986778 
	C365.001831,122.328636 365.019470,146.670502 365.010193,171.479416 
	C365.021393,180.990372 365.054199,190.034286 365.066101,199.538773 
	C365.000946,205.982056 364.956757,211.964767 364.449677,217.964035 
	C354.331360,217.970551 344.675720,217.920181 335.020538,217.965408 
	C329.145416,217.992905 327.797852,219.340637 327.219238,225.241821 
	C326.866730,228.837463 326.442047,232.426056 325.588165,236.077209 
	C321.449341,236.183289 317.772156,236.229980 313.752441,236.208237 
	C312.945831,236.160660 312.481659,236.181519 311.593018,236.119446 
	C309.439514,236.073959 307.710510,236.111374 305.564331,236.096710 
	C303.746399,236.015717 302.345612,235.986801 300.713989,235.768814 
	C299.368958,235.722107 298.254761,235.864456 296.768890,236.007294 
	C295.412720,235.920959 294.428192,235.834152 293.448120,235.295563 
	C293.452576,185.423325 293.452576,136.002884 293.452576,85.888725 
	C303.271515,85.888725 312.472168,85.888725 321.808014,85.888725 
	C321.808014,70.714684 321.808014,56.235836 321.897034,41.325218 
	C321.985199,35.099377 322.095917,29.302540 321.952362,23.512009 
	C321.805878,17.603422 321.409607,11.701030 321.080200,5.601888 
	C321.037720,5.407852 321.131042,5.021700 321.035095,4.799403 
	C320.939178,4.577106 321.032227,4.101904 321.495087,4.049778 
	C326.952576,4.400754 331.947174,4.803855 336.992249,5.376349 
	C337.042725,5.545743 336.906860,5.872087 336.630188,6.199574 
	C336.233185,8.169106 336.009369,9.811082 336.008270,11.453208 
	C335.994659,31.707224 336.016388,51.961262 336.023163,72.215294 
	C336.027863,86.189865 336.023804,86.189865 350.546570,85.829346 
	C355.994049,85.825989 360.997040,85.912994 366.000000,86.000000 
z"/>
<path fill="#B6B5B6" opacity="1.000000" stroke="none" 
	d="
M293.443665,235.747360 
	C294.428192,235.834152 295.412720,235.920959 297.146912,236.033844 
	C298.912659,236.025940 299.928741,235.991913 300.944824,235.957886 
	C302.345612,235.986801 303.746399,236.015717 305.658722,236.444565 
	C308.310913,238.374786 310.371857,239.179565 312.017517,236.202377 
	C312.481659,236.181519 312.945831,236.160660 314.069672,236.449066 
	C331.819580,236.838882 348.909790,236.919434 366.000000,237.000000 
	C366.000000,262.687561 366.000000,288.375122 365.684448,314.467285 
	C364.628143,313.945984 363.887421,313.020111 363.102905,311.620789 
	C363.059113,302.757263 363.059113,294.367188 363.059113,285.977142 
	C358.394623,295.176880 351.786224,303.241364 348.701294,313.696136 
	C354.289429,313.080322 358.704834,312.593781 363.131836,312.495178 
	C360.763428,314.006317 358.383331,315.129425 355.535309,316.207214 
	C343.377380,316.189423 331.687378,316.216980 319.538452,316.148621 
	C313.053406,316.105072 307.027283,316.157471 300.680420,316.176575 
	C299.933807,316.195953 299.507965,316.248566 298.666687,316.205200 
	C296.836548,316.043365 295.421814,315.977478 293.981262,315.603943 
	C293.581970,314.835663 293.208496,314.375031 292.806519,313.788605 
	C292.778015,313.662781 292.950714,313.471100 292.964355,312.960419 
	C292.969330,287.671326 292.960602,262.892944 293.166107,237.951111 
	C293.401428,237.107590 293.422546,236.427475 293.443665,235.747360 
M307.686737,313.695923 
	C317.038483,313.695923 326.390198,313.695923 335.741943,313.695923 
	C335.735809,313.592896 335.729675,313.489838 335.723541,313.386810 
	C327.161804,312.922852 318.600067,312.458893 309.414795,311.683594 
	C305.035583,303.229523 300.656403,294.775452 296.277191,286.321381 
	C295.958008,286.510223 295.638824,286.699066 295.319641,286.887909 
	C295.319641,295.417786 295.319641,303.947662 295.319641,313.131287 
	C299.447021,313.131287 303.273834,313.131287 307.686737,313.695923 
M301.568939,240.007446 
	C299.452759,240.007446 297.336609,240.007446 295.423523,240.007446 
	C295.423523,248.851044 295.423523,257.175995 295.423523,265.500946 
	C295.781952,265.598175 296.140411,265.695374 296.498840,265.792603 
	C300.737671,257.436371 304.976501,249.080124 309.581055,240.002914 
	C306.431061,240.002914 304.454071,240.002914 301.568939,240.007446 
M362.966156,258.356201 
	C362.966156,252.416458 362.966156,246.476730 362.966156,240.436188 
	C358.039856,240.436188 353.735565,240.436188 348.657410,240.436188 
	C353.385406,249.458786 357.761383,257.809662 362.137390,266.160553 
	C362.413391,266.034058 362.689362,265.907532 362.965363,265.781006 
	C362.965363,263.619354 362.965363,261.457672 362.966156,258.356201 
M363.481049,268.593689 
	C363.481049,268.593689 363.408447,268.474915 363.481049,268.593689 
z"/>
<path fill="#B3B3B3" opacity="1.000000" stroke="none" 
	d="
M1.000000,249.000000 
	C1.000000,168.645767 1.000000,88.291542 1.455162,7.470466 
	C6.654686,6.996349 11.399048,6.989082 16.554291,7.021518 
	C17.284359,8.934208 17.880976,10.806928 17.882771,12.680219 
	C17.956675,89.743294 17.983183,166.806412 17.966301,243.869522 
	C17.965914,245.637848 17.399008,247.406052 16.841316,249.109512 
	C16.411640,249.031433 16.237003,249.018127 15.592400,249.025818 
	C10.414954,249.031204 5.707477,249.015610 1.000000,249.000000 
z"/>
<path fill="#1C1C1C" opacity="1.000000" stroke="none" 
	d="
M17.096355,249.174301 
	C17.399008,247.406052 17.965914,245.637848 17.966301,243.869522 
	C17.983183,166.806412 17.956675,89.743294 17.882771,12.680219 
	C17.880976,10.806928 17.284359,8.934208 16.618431,6.695072 
	C17.514462,4.552615 18.757231,2.776307 20.000000,1.000000 
	C109.687561,1.000000 199.375122,1.000000 289.313568,1.260913 
	C288.702209,2.406339 287.839966,3.290851 286.881958,4.340413 
	C286.786163,4.505463 286.415710,4.597269 286.073303,4.366567 
	C284.173920,4.469553 282.616882,4.803242 280.594604,5.048956 
	C194.227875,4.960981 108.326401,4.960981 22.264799,4.960981 
	C22.281590,4.923327 22.038803,5.213444 22.038977,5.503414 
	C22.059103,38.981827 22.097284,72.460228 21.874031,106.150452 
	C21.490015,107.227066 21.366451,108.091858 21.157202,109.216553 
	C21.065224,109.658791 21.058929,109.841118 20.959675,110.482941 
	C20.852310,122.368042 20.786354,133.793900 20.839401,145.219193 
	C20.883913,154.806503 21.067204,164.393158 21.209785,174.303238 
	C21.532423,175.436905 21.834326,176.247452 22.077576,177.474854 
	C22.018923,204.273682 22.018923,230.655624 22.018923,257.330170 
	C45.306713,257.330170 69.086372,257.330170 92.947006,257.813965 
	C93.097130,259.276337 93.166283,260.254883 93.000092,261.189575 
	C92.387657,261.109436 92.142021,261.271790 91.615814,261.591522 
	C68.280647,261.550262 45.357513,261.550262 22.346895,261.550262 
	C22.346895,279.083923 22.346895,296.645874 22.346895,314.510803 
	C45.722115,314.510803 68.831543,314.510803 92.003960,314.934082 
	C92.330383,316.456543 92.593834,317.555695 92.414124,318.528137 
	C68.723701,318.401398 45.476444,318.401398 22.099794,318.401398 
	C22.040930,319.362946 21.947468,320.177734 21.947376,320.992493 
	C21.939369,392.318970 21.931232,463.645447 21.979628,534.971924 
	C21.980833,536.748413 22.612541,538.524536 22.720051,540.515442 
	C21.658037,540.820496 20.826164,540.910950 19.671581,540.742188 
	C18.916462,534.960327 18.484055,529.437744 18.148081,523.675903 
	C18.284624,523.097839 18.324736,522.758972 18.597963,522.156860 
	C18.883144,521.210144 18.935207,520.526794 19.234062,519.530212 
	C19.393080,508.760925 19.423487,498.302002 19.171574,487.849823 
	C19.028877,481.929016 18.422976,476.019409 18.297787,469.947571 
	C18.077452,468.826263 17.585028,467.862122 17.046177,466.484344 
	C17.328867,463.056061 17.657988,460.041443 17.995789,456.752991 
	C17.990366,456.297089 17.976263,456.115021 18.025707,455.472107 
	C18.006245,416.056885 17.936653,377.102417 17.796207,338.148254 
	C17.789915,336.403381 17.140442,334.660767 16.884005,332.463257 
	C17.370609,306.246490 17.785400,280.483856 18.106745,254.720032 
	C18.127504,253.055725 17.427982,251.382431 17.106941,249.580719 
	C17.150362,249.448105 17.096357,249.174301 17.096355,249.174301 
z"/>
<path fill="#FEFCFC" opacity="1.000000" stroke="none" 
	d="
M366.000000,449.000000 
	C366.000000,479.020905 366.000000,509.041779 365.537842,539.614990 
	C356.047211,540.060242 347.018738,539.953125 337.936768,539.515808 
	C337.565796,538.116394 337.248322,537.047241 337.011505,535.516968 
	C337.038391,508.044739 336.984619,481.033630 337.061584,453.618134 
	C336.756958,449.987549 338.137726,449.008850 341.362000,449.076294 
	C349.570557,449.247955 357.786804,449.049988 366.000000,449.000000 
z"/>
<path fill="#FDFCFC" opacity="1.000000" stroke="none" 
	d="
M366.000000,85.531342 
	C360.997040,85.912994 355.994049,85.825989 350.210297,85.632751 
	C345.379303,85.305634 341.329102,85.084763 337.036713,84.850685 
	C337.036713,82.529526 337.040009,80.376228 337.036224,78.222946 
	C336.993744,54.105991 336.950134,29.989040 336.906860,5.872087 
	C336.906860,5.872087 337.042725,5.545743 337.326233,5.174373 
	C339.076416,4.504916 340.543121,4.206831 342.473389,3.978008 
	C350.624664,4.031515 358.312347,4.015758 366.000000,4.000000 
	C366.000000,31.020895 366.000000,58.041790 366.000000,85.531342 
M337.913239,61.496731 
	C337.913239,66.624878 337.913239,71.753029 337.913239,76.881180 
	C338.153717,76.870529 338.394226,76.859879 338.634705,76.849228 
	C338.634705,54.624329 338.634705,32.399429 338.634705,10.174529 
	C338.394775,10.174577 338.154846,10.174625 337.914917,10.174673 
	C337.914917,26.949083 337.914917,43.723492 337.913239,61.496731 
z"/>
<path fill="#B9B9B9" opacity="1.000000" stroke="none" 
	d="
M16.790552,332.917114 
	C17.140442,334.660767 17.789915,336.403381 17.796207,338.148254 
	C17.936653,377.102417 18.006245,416.056885 17.765985,455.483521 
	C17.269501,455.968903 17.096283,455.982025 16.557961,456.197571 
	C11.128569,456.599976 6.064284,456.799988 1.000000,457.000000 
	C1.000000,416.312439 1.000000,375.624878 1.439692,334.412598 
	C6.849774,333.564301 11.820164,333.240723 16.790552,332.917114 
z"/>
<path fill="#FDFDFD" opacity="1.000000" stroke="none" 
	d="
M16.884007,332.463287 
	C11.820164,333.240723 6.849774,333.564301 1.439692,333.943970 
	C1.000000,305.979095 1.000000,277.958221 1.000000,249.468658 
	C5.707477,249.015610 10.414954,249.031204 15.624384,249.294922 
	C16.438730,249.599792 16.751125,249.656555 17.063520,249.713318 
	C17.427982,251.382431 18.127504,253.055725 18.106745,254.720032 
	C17.785400,280.483856 17.370609,306.246490 16.884007,332.463287 
z"/>
<path fill="#0B0A0B" opacity="1.000000" stroke="none" 
	d="
M19.994293,541.001343 
	C20.826164,540.910950 21.658037,540.820496 23.191708,540.530640 
	C86.444046,540.283752 148.994629,540.255676 211.545120,540.178894 
	C234.994675,540.150085 258.444092,540.007996 282.304901,540.061401 
	C283.859467,540.063110 285.002686,539.921082 286.584900,539.925171 
	C298.332764,540.057678 309.641632,540.044067 321.031982,540.320312 
	C321.694519,541.406860 322.275574,542.203552 322.399902,542.991577 
	C313.945129,543.031128 305.947083,543.079468 297.484955,543.091675 
	C280.996613,543.103943 264.972321,543.152344 248.486359,543.141174 
	C204.363022,543.103516 160.701416,543.125427 116.569824,543.098694 
	C89.115265,543.037231 62.130665,543.009766 35.146179,543.053711 
	C33.763607,543.055908 32.382034,543.670532 31.000000,544.000000 
	C27.969406,544.000000 24.938814,544.000000 21.423975,543.678223 
	C20.624584,542.571411 20.309441,541.786377 19.994293,541.001343 
z"/>
<path fill="#BD9B4B" opacity="1.000000" stroke="none" 
	d="
M18.025698,470.104736 
	C18.422976,476.019409 19.028877,481.929016 19.171574,487.849823 
	C19.423487,498.302002 19.393080,508.760925 19.006519,519.520386 
	C18.532185,519.823669 18.081861,519.742004 17.741352,519.498657 
	C11.933893,519.170227 6.466947,519.085144 1.000000,519.000000 
	C1.000000,503.312439 1.000000,487.624878 1.466569,471.469177 
	C7.297325,470.702240 12.661511,470.403473 18.025698,470.104736 
z"/>
<path fill="#A15D53" opacity="1.000000" stroke="none" 
	d="
M366.000000,448.531342 
	C357.786804,449.049988 349.570557,449.247955 341.362000,449.076294 
	C338.137726,449.008850 336.756958,449.987549 336.744537,453.625549 
	C335.873962,454.023682 335.451233,454.010010 334.979675,453.624969 
	C333.467194,452.170471 331.743683,449.958954 330.590698,450.224518 
	C327.622192,450.908264 324.906311,452.688873 322.009827,453.640930 
	C321.811768,449.741302 319.705627,448.922882 316.584473,448.968903 
	C308.970306,449.081268 301.353302,449.005524 293.469269,449.005524 
	C293.469269,433.370483 293.469269,418.247528 293.594421,402.984802 
	C293.613739,402.517456 293.507874,402.189850 293.372742,401.404236 
	C293.356232,389.372284 293.369019,377.798370 293.607239,366.189819 
	C293.832703,366.155182 294.283142,366.078430 294.518005,366.404205 
	C294.833679,369.885590 294.981537,373.041107 294.984528,376.196777 
	C295.005127,398.015869 294.993622,419.834961 294.998322,441.654053 
	C294.998871,444.164703 294.635071,446.918396 298.451202,446.988068 
	C316.227997,447.312683 334.011627,448.024872 351.776062,447.695343 
	C355.872223,447.619324 362.468903,449.198853 363.976685,441.516205 
	C363.997375,402.411560 364.013519,363.773315 363.961853,325.135223 
	C363.959534,323.403992 363.341583,321.673584 362.895966,319.676880 
	C362.196411,318.932983 361.611298,318.455017 360.796387,317.715271 
	C359.045471,317.053223 357.524384,316.652893 356.003265,316.252533 
	C358.383331,315.129425 360.763428,314.006317 363.104065,312.436218 
	C363.064636,311.989288 363.146667,312.094269 363.146667,312.094269 
	C363.887421,313.020111 364.628143,313.945984 365.684448,314.935913 
	C366.000000,359.354218 366.000000,403.708466 366.000000,448.531342 
z"/>
<path fill="#AD3C2A" opacity="1.000000" stroke="none" 
	d="
M366.000000,222.000000 
	C366.000000,226.025177 366.000000,230.050369 365.633698,234.751923 
	C363.832886,235.658127 362.398926,236.081879 360.963806,236.085648 
	C353.039001,236.106445 345.103485,235.763321 337.192841,236.077682 
	C332.546112,236.262344 330.320221,234.867920 330.865631,229.612488 
	C330.913605,226.560822 330.913605,223.968307 330.913605,220.850876 
	C338.777893,220.850876 345.896942,220.850876 353.467773,220.911514 
	C357.946320,221.314774 361.973175,221.657394 366.000000,222.000000 
z"/>
<path fill="#FDFDFD" opacity="1.000000" stroke="none" 
	d="
M19.671585,540.742188 
	C20.309441,541.786377 20.624584,542.571411 20.969864,543.678223 
	C14.405400,544.000000 7.810800,544.000000 1.000000,544.000000 
	C1.000000,537.314148 1.000000,530.625977 1.424317,523.467041 
	C3.261706,522.973877 4.674778,522.951538 6.462215,523.076538 
	C10.574936,523.454224 14.313292,523.684692 18.051647,523.915100 
	C18.484055,529.437744 18.916462,534.960327 19.671585,540.742188 
z"/>
<path fill="#FFFEFE" opacity="1.000000" stroke="none" 
	d="
M1.000000,457.458069 
	C6.064284,456.799988 11.128569,456.599976 16.618530,456.470459 
	C17.358507,456.702881 17.672808,456.864838 17.987106,457.026794 
	C17.657988,460.041443 17.328867,463.056061 16.785969,466.828247 
	C11.381459,467.723816 6.190730,467.861908 1.000000,468.000000 
	C1.000000,464.638702 1.000000,461.277435 1.000000,457.458069 
z"/>
<path fill="#AFAEAE" opacity="1.000000" stroke="none" 
	d="
M353.016022,220.850876 
	C345.896942,220.850876 338.777893,220.850876 330.913605,220.850876 
	C330.913605,223.968307 330.913605,226.560822 330.627136,229.895691 
	C329.773193,233.119522 330.775787,236.853241 326.049774,236.017807 
	C326.442047,232.426056 326.866730,228.837463 327.219238,225.241821 
	C327.797852,219.340637 329.145416,217.992905 335.020538,217.965408 
	C344.675720,217.920181 354.331360,217.970551 364.720337,218.006378 
	C365.635895,218.021439 365.817963,218.010727 366.000000,218.000000 
	C366.000000,218.444443 366.000000,218.888901 365.540344,219.634720 
	C361.059113,220.241013 357.037567,220.545944 353.016022,220.850876 
z"/>
<path fill="#575657" opacity="1.000000" stroke="none" 
	d="
M117.039795,543.147339 
	C160.701416,543.125427 204.363022,543.103516 248.501160,543.340393 
	C248.977676,543.599182 249.000000,544.000000 249.000000,544.000000 
	C205.312439,544.000000 161.624878,544.000000 117.474289,543.786621 
	C117.011261,543.573242 117.039795,543.147339 117.039795,543.147339 
z"/>
<path fill="#080708" opacity="1.000000" stroke="none" 
	d="
M286.977722,4.175361 
	C287.839966,3.290851 288.702209,2.406339 289.782227,1.260913 
	C300.020905,1.000000 310.041779,1.000000 320.535126,1.387292 
	C321.015778,2.550358 321.023987,3.326131 321.032227,4.101904 
	C321.032227,4.101904 320.939178,4.577106 320.584534,4.693114 
	C309.145844,4.597867 298.061768,4.386613 286.977722,4.175361 
z"/>
<path fill="#FDFDFD" opacity="1.000000" stroke="none" 
	d="
M19.530624,1.000000 
	C18.757231,2.776307 17.514462,4.552615 16.207550,6.655369 
	C11.399048,6.989082 6.654686,6.996349 1.455162,7.001808 
	C1.000000,5.035817 1.000000,3.071633 1.000000,1.000000 
	C7.020124,1.000000 13.040687,1.000000 19.530624,1.000000 
z"/>
<path fill="#080708" opacity="1.000000" stroke="none" 
	d="
M337.990265,539.846008 
	C347.018738,539.953125 356.047211,540.060242 365.537842,540.083679 
	C366.000000,540.750000 366.000000,541.500000 365.531372,542.619385 
	C355.411316,542.963074 345.759888,542.937378 336.184235,542.608398 
	C336.836731,541.485474 337.413513,540.665710 337.990265,539.846008 
z"/>
<path fill="#474747" opacity="1.000000" stroke="none" 
	d="
M116.569824,543.098694 
	C117.039795,543.147339 117.011261,543.573242 117.005630,543.786621 
	C88.645775,544.000000 60.291542,544.000000 31.468657,544.000000 
	C32.382034,543.670532 33.763607,543.055908 35.146179,543.053711 
	C62.130665,543.009766 89.115265,543.037231 116.569824,543.098694 
z"/>
<path fill="#A15D53" opacity="1.000000" stroke="none" 
	d="
M365.031799,171.012360 
	C365.019470,146.670502 365.001831,122.328636 365.011444,97.986778 
	C365.011902,96.848022 365.255585,95.709366 365.692993,94.285324 
	C366.000000,119.354225 366.000000,144.708450 365.757935,170.532303 
	C365.515839,171.001923 365.031799,171.012360 365.031799,171.012360 
z"/>
<path fill="#A15D53" opacity="1.000000" stroke="none" 
	d="
M337.936768,539.515808 
	C337.413513,540.665710 336.836731,541.485474 336.147186,542.879456 
	C336.022919,543.635803 336.011444,543.817932 336.000000,544.000000 
	C332.638702,544.000000 329.277435,544.000000 325.277527,543.747375 
	C324.044800,543.329956 323.450714,543.165100 322.856628,543.000305 
	C322.275574,542.203552 321.694519,541.406860 321.065918,539.982422 
	C321.392181,538.566284 321.765961,537.777893 322.435852,537.153320 
	C328.176819,542.466797 332.076294,542.069519 335.348694,536.045105 
	C336.086975,536.010254 336.508911,535.994141 336.930847,535.978027 
	C337.248322,537.047241 337.565796,538.116394 337.936768,539.515808 
z"/>
<path fill="#080708" opacity="1.000000" stroke="none" 
	d="
M366.000000,3.499992 
	C358.312347,4.015758 350.624664,4.031515 342.468689,3.614436 
	C342.000244,2.454400 342.000122,1.727200 342.000000,1.000000 
	C349.333344,1.000000 356.667664,0.947504 363.998352,1.087069 
	C364.677490,1.099998 365.333344,2.333318 366.000000,3.499992 
z"/>
<path fill="#1C1C1C" opacity="1.000000" stroke="none" 
	d="
M341.531464,1.000000 
	C342.000122,1.727200 342.000244,2.454400 342.005066,3.545172 
	C340.543121,4.206831 339.076416,4.504916 337.275757,5.004979 
	C331.947174,4.803855 326.952576,4.400754 321.495087,4.049778 
	C321.023987,3.326131 321.015778,2.550358 321.003784,1.387292 
	C327.687653,1.000000 334.375275,1.000000 341.531464,1.000000 
z"/>
<path fill="#BE9B96" opacity="1.000000" stroke="none" 
	d="
M325.588165,236.077209 
	C330.775787,236.853241 329.773193,233.119522 330.579163,230.354874 
	C330.320221,234.867920 332.546112,236.262344 337.192841,236.077682 
	C345.103485,235.763321 353.039001,236.106445 360.963806,236.085648 
	C362.398926,236.081879 363.832886,235.658127 365.633698,235.214142 
	C366.000000,235.444443 366.000000,235.888901 366.000000,236.666672 
	C348.909790,236.919434 331.819580,236.838882 314.412170,236.517487 
	C317.772156,236.229980 321.449341,236.183289 325.588165,236.077209 
z"/>
<path fill="#B9B9B9" opacity="1.000000" stroke="none" 
	d="
M1.000000,468.375000 
	C6.190730,467.861908 11.381459,467.723816 16.832397,467.241882 
	C17.585028,467.862122 18.077452,468.826263 18.297787,469.947571 
	C12.661511,470.403473 7.297325,470.702240 1.466569,471.000488 
	C1.000000,470.250000 1.000000,469.500000 1.000000,468.375000 
z"/>
<path fill="#474747" opacity="1.000000" stroke="none" 
	d="
M249.468658,544.000000 
	C249.000000,544.000000 248.977676,543.599182 248.962860,543.399963 
	C264.972321,543.152344 280.996613,543.103943 297.502747,543.308960 
	C297.984589,543.562439 298.000000,544.000000 298.000000,544.000000 
	C281.979095,544.000000 265.958221,544.000000 249.468658,544.000000 
z"/>
<path fill="#B9B9B9" opacity="1.000000" stroke="none" 
	d="
M6.087850,522.929199 
	C4.674778,522.951538 3.261706,522.973877 1.424317,522.998108 
	C1.000000,522.250000 1.000000,521.500000 1.465934,520.329956 
	C7.315199,519.854004 12.698530,519.798035 18.081861,519.742004 
	C18.081861,519.742004 18.532185,519.823669 18.759727,519.833496 
	C18.935207,520.526794 18.883144,521.210144 18.136314,521.990479 
	C13.656981,522.367920 9.872415,522.648499 6.087850,522.929199 
z"/>
<path fill="#575657" opacity="1.000000" stroke="none" 
	d="
M336.468658,544.000000 
	C336.011444,543.817932 336.022919,543.635803 336.071442,543.182739 
	C345.759888,542.937378 355.411316,542.963074 365.531372,542.994385 
	C365.347656,543.333313 364.697357,543.952332 364.042725,543.956909 
	C355.007935,544.020691 345.972565,544.000000 336.468658,544.000000 
z"/>
<path fill="#A3665E" opacity="1.000000" stroke="none" 
	d="
M365.010193,171.479416 
	C365.031799,171.012360 365.515839,171.001923 365.757935,171.000961 
	C366.000000,180.020889 366.000000,189.041794 365.770996,198.541870 
	C365.541962,199.021057 365.087036,199.078186 365.087036,199.078186 
	C365.054199,190.034286 365.021393,180.990372 365.010193,171.479416 
z"/>
<path fill="#353535" opacity="1.000000" stroke="none" 
	d="
M298.468658,544.000000 
	C298.000000,544.000000 297.984589,543.562439 297.966797,543.345093 
	C305.947083,543.079468 313.945129,543.031128 322.399902,542.991577 
	C323.450714,543.165100 324.044800,543.329956 324.819458,543.747375 
	C316.312439,544.000000 307.624878,544.000000 298.468658,544.000000 
z"/>
<path fill="#797288" opacity="1.000000" stroke="none" 
	d="
M365.066101,199.538773 
	C365.087036,199.078186 365.541962,199.021057 365.770996,199.010529 
	C366.000000,205.021149 366.000000,211.042297 366.000000,217.531723 
	C365.817963,218.010727 365.635895,218.021439 365.183228,217.989807 
	C364.956757,211.964767 365.000946,205.982056 365.066101,199.538773 
z"/>
<path fill="#7A6D51" opacity="1.000000" stroke="none" 
	d="
M17.741352,519.498657 
	C12.698530,519.798035 7.315199,519.854004 1.465934,519.954956 
	C1.000000,520.000000 1.000000,519.500000 1.000000,519.250000 
	C6.466947,519.085144 11.933893,519.170227 17.741352,519.498657 
z"/>
<path fill="#797288" opacity="1.000000" stroke="none" 
	d="
M353.467773,220.911514 
	C357.037567,220.545944 361.059113,220.241013 365.540344,219.968048 
	C366.000000,220.444443 366.000000,220.888901 366.000000,221.666672 
	C361.973175,221.657394 357.946320,221.314774 353.467773,220.911514 
z"/>
<path fill="#FEFAFA" opacity="1.000000" stroke="none" 
	d="
M322.139771,536.989502 
	C321.765961,537.777893 321.392181,538.566284 320.984436,539.692566 
	C309.641632,540.044067 298.332764,540.057678 286.622803,539.472900 
	C286.109070,534.878906 285.898193,530.883484 285.897827,526.888000 
	C285.882080,355.777039 285.882355,184.666077 285.907715,13.555116 
	C285.908173,10.569141 286.239014,7.583216 286.415710,4.597269 
	C286.415710,4.597269 286.786163,4.505463 286.881958,4.340411 
	C298.061768,4.386613 309.145844,4.597867 320.680481,4.915411 
	C321.131042,5.021700 321.037720,5.407852 320.997131,6.086671 
	C321.240356,18.429323 321.524200,30.093159 321.808014,41.756992 
	C321.808014,56.235836 321.808014,70.714684 321.808014,85.888725 
	C312.472168,85.888725 303.271515,85.888725 293.452576,85.888725 
	C293.452576,136.002884 293.452576,185.423325 293.448120,235.295563 
	C293.422546,236.427475 293.401428,237.107590 292.827118,238.190430 
	C292.194641,262.815979 292.107208,287.038849 292.074768,311.261749 
	C292.073792,311.997803 292.645844,312.734619 292.950714,313.471100 
	C292.950714,313.471100 292.778015,313.662781 292.806824,314.267120 
	C292.855042,317.699188 292.864258,320.527008 292.895691,323.354584 
	C293.054504,337.644592 293.219177,351.934479 293.381805,366.224426 
	C293.369019,377.798370 293.356232,389.372284 293.286713,401.725464 
	C293.309753,402.711334 293.389526,402.917938 293.469269,403.124573 
	C293.469269,418.247528 293.469269,433.370483 293.469269,449.005524 
	C301.353302,449.005524 308.970306,449.081268 316.584473,448.968903 
	C319.705627,448.922882 321.811768,449.741302 321.934692,454.046295 
	C321.995056,456.216492 322.050873,457.591064 322.033569,459.432983 
	C321.956757,481.497253 321.924225,503.094299 321.989685,524.691040 
	C321.997009,527.108093 322.560242,529.523438 322.537354,532.147217 
	C322.185974,533.899719 322.162872,535.444580 322.139771,536.989502 
z"/>
<path fill="#873F35" opacity="1.000000" stroke="none" 
	d="
M336.630188,6.199574 
	C336.950134,29.989040 336.993744,54.105991 337.036224,78.222946 
	C337.040009,80.376228 337.036713,82.529526 337.036713,84.850685 
	C341.329102,85.084763 345.379303,85.305634 349.765747,85.723114 
	C336.023804,86.189865 336.027863,86.189865 336.023163,72.215294 
	C336.016388,51.961262 335.994659,31.707224 336.008270,11.453208 
	C336.009369,9.811082 336.233185,8.169106 336.630188,6.199574 
z"/>
<path fill="#797288" opacity="1.000000" stroke="none" 
	d="
M321.897034,41.325218 
	C321.524200,30.093159 321.240356,18.429323 321.039612,6.280707 
	C321.409607,11.701030 321.805878,17.603422 321.952362,23.512009 
	C322.095917,29.302540 321.985199,35.099377 321.897034,41.325218 
z"/>
<path fill="#BE9B96" opacity="1.000000" stroke="none" 
	d="
M311.593018,236.119446 
	C310.371857,239.179565 308.310913,238.374786 306.075867,236.496643 
	C307.710510,236.111374 309.439514,236.073959 311.593018,236.119446 
z"/>
<path fill="#BE9B96" opacity="1.000000" stroke="none" 
	d="
M300.713989,235.768814 
	C299.928741,235.991913 298.912659,236.025940 297.518555,236.033386 
	C298.254761,235.864456 299.368958,235.722107 300.713989,235.768814 
z"/>
<path fill="#FEFAFA" opacity="1.000000" stroke="none" 
	d="
M307.100677,313.131287 
	C303.273834,313.131287 299.447021,313.131287 295.319641,313.131287 
	C295.319641,303.947662 295.319641,295.417786 295.319641,286.887909 
	C295.638824,286.699066 295.958008,286.510223 296.277191,286.321381 
	C300.656403,294.775452 305.035583,303.229523 309.574219,312.141541 
	C308.855988,312.776764 307.978333,312.954010 307.100677,313.131287 
z"/>
<path fill="#FBFBFB" opacity="1.000000" stroke="none" 
	d="
M363.092407,312.048248 
	C358.704834,312.593781 354.289429,313.080322 348.701294,313.696136 
	C351.786224,303.241364 358.394623,295.176880 363.059113,285.977142 
	C363.059113,294.367188 363.059113,302.757263 363.102905,311.620789 
	C363.146667,312.094269 363.064636,311.989288 363.092407,312.048248 
z"/>
<path fill="#FBFBFB" opacity="1.000000" stroke="none" 
	d="
M302.023010,240.005188 
	C304.454071,240.002914 306.431061,240.002914 309.581055,240.002914 
	C304.976501,249.080124 300.737671,257.436371 296.498840,265.792603 
	C296.140411,265.695374 295.781952,265.598175 295.423523,265.500946 
	C295.423523,257.175995 295.423523,248.851044 295.423523,240.007446 
	C297.336609,240.007446 299.452759,240.007446 302.023010,240.005188 
z"/>
<path fill="#FBFBFB" opacity="1.000000" stroke="none" 
	d="
M362.965759,258.826111 
	C362.965363,261.457672 362.965363,263.619354 362.965363,265.781006 
	C362.689362,265.907532 362.413391,266.034058 362.137390,266.160553 
	C357.761383,257.809662 353.385406,249.458786 348.657410,240.436188 
	C353.735565,240.436188 358.039856,240.436188 362.966156,240.436188 
	C362.966156,246.476730 362.966156,252.416458 362.965759,258.826111 
z"/>
<path fill="#873F35" opacity="1.000000" stroke="none" 
	d="
M355.535309,316.207214 
	C357.524384,316.652893 359.045471,317.053223 360.324951,317.724976 
	C339.706268,317.986053 319.329254,317.975739 298.968811,317.687256 
	C299.017609,317.039764 299.049866,316.670471 299.082092,316.301178 
	C299.507965,316.248566 299.933807,316.195953 301.006348,316.424316 
	C307.767822,316.551758 313.882629,316.398163 319.997406,316.244568 
	C331.687378,316.216980 343.377380,316.189423 355.535309,316.207214 
z"/>
<path fill="#9C9C9C" opacity="1.000000" stroke="none" 
	d="
M292.964355,312.960419 
	C292.645844,312.734619 292.073792,311.997803 292.074768,311.261749 
	C292.107208,287.038849 292.194641,262.815979 292.612915,238.353836 
	C292.960602,262.892944 292.969330,287.671326 292.964355,312.960419 
z"/>
<path fill="#A15D53" opacity="1.000000" stroke="none" 
	d="
M298.666687,316.205200 
	C299.049866,316.670471 299.017609,317.039764 298.632751,317.730591 
	C297.507446,319.033142 296.734741,320.014191 295.668396,321.291260 
	C295.261230,334.390381 295.147766,347.193451 294.838501,360.031311 
	C294.642761,360.066071 294.250671,360.132141 294.155884,359.663696 
	C294.043060,344.767395 294.025055,330.339478 294.007080,315.911591 
	C295.421814,315.977478 296.836548,316.043365 298.666687,316.205200 
z"/>
<path fill="#BEA29E" opacity="1.000000" stroke="none" 
	d="
M293.981262,315.603943 
	C294.025055,330.339478 294.043060,344.767395 294.109253,360.081970 
	C294.199341,362.671936 294.241241,364.375183 294.283142,366.078430 
	C294.283142,366.078430 293.832703,366.155182 293.607239,366.189819 
	C293.219177,351.934479 293.054504,337.644592 292.895691,323.354584 
	C292.864258,320.527008 292.855042,317.699188 292.835327,314.392944 
	C293.208496,314.375031 293.581970,314.835663 293.981262,315.603943 
z"/>
<path fill="#9C9C9C" opacity="1.000000" stroke="none" 
	d="
M307.393707,313.413605 
	C307.978333,312.954010 308.855988,312.776764 309.885986,312.297211 
	C318.600067,312.458893 327.161804,312.922852 335.723541,313.386810 
	C335.729675,313.489838 335.735809,313.592896 335.741943,313.695923 
	C326.390198,313.695923 317.038483,313.695923 307.393707,313.413605 
z"/>
<path fill="#A15D53" opacity="1.000000" stroke="none" 
	d="
M319.538452,316.148621 
	C313.882629,316.398163 307.767822,316.551758 301.327087,316.457581 
	C307.027283,316.157471 313.053406,316.105072 319.538452,316.148621 
z"/>
<path fill="#AFAEAE" opacity="1.000000" stroke="none" 
	d="
M363.444763,268.534302 
	C363.408447,268.474915 363.481049,268.593689 363.444763,268.534302 
z"/>
<path fill="#474747" opacity="1.000000" stroke="none" 
	d="
M17.106941,249.580719 
	C16.751125,249.656555 16.438730,249.599792 16.094351,249.273926 
	C16.237003,249.018127 16.411640,249.031433 16.841316,249.109512 
	C17.096357,249.174301 17.150362,249.448105 17.106941,249.580719 
z"/>
<path fill="#FFFEFE" opacity="1.000000" stroke="none" 
	d="
M281.893585,539.917542 
	C258.444092,540.007996 234.994675,540.150085 211.545120,540.178894 
	C148.994629,540.255676 86.444046,540.283752 23.421846,540.316040 
	C22.612541,538.524536 21.980833,536.748413 21.979628,534.971924 
	C21.931232,463.645447 21.939369,392.318970 21.947376,320.992493 
	C21.947468,320.177734 22.040930,319.362946 22.099794,318.401398 
	C45.476444,318.401398 68.723701,318.401398 92.382248,318.912262 
	C93.342621,322.278687 93.891701,325.134216 94.440788,327.989777 
	C94.997261,328.057495 95.553741,328.125244 96.110222,328.192963 
	C96.424561,326.632935 97.006065,325.074127 97.013161,323.512695 
	C97.118996,300.237152 97.173401,276.961182 97.145447,253.685455 
	C97.143433,252.009491 96.409714,250.334412 96.016205,248.658920 
	C95.348320,248.687973 94.680435,248.717010 94.012558,248.746063 
	C93.693855,250.848969 93.375153,252.951874 93.003212,255.277557 
	C92.949974,255.500336 93.045959,255.948257 92.986313,256.177002 
	C92.779030,256.705536 92.758820,257.013672 92.866028,257.330170 
	C69.086372,257.330170 45.306713,257.330170 22.018923,257.330170 
	C22.018923,230.655624 22.018923,204.273682 22.535322,177.452591 
	C34.199249,176.975510 45.346909,176.959549 56.494251,176.891708 
	C63.619938,176.848343 65.004265,175.458420 65.005531,168.547379 
	C65.008949,149.902878 64.939529,131.257904 65.060555,112.614182 
	C65.090652,107.978172 63.233131,105.927231 58.587864,105.955864 
	C46.437233,106.030762 34.285671,105.954575 22.134483,105.938629 
	C22.097284,72.460228 22.059103,38.981827 22.038977,5.503414 
	C22.038803,5.213444 22.281590,4.923327 22.264799,4.960981 
	C108.326401,4.960981 194.227875,4.960981 280.704285,5.438329 
	C281.509552,9.048583 281.941376,12.181483 281.941498,15.314400 
	C281.948364,190.182114 281.919159,365.049835 281.893585,539.917542 
z"/>
<path fill="#FDFDFD" opacity="1.000000" stroke="none" 
	d="
M91.940979,314.510803 
	C68.831543,314.510803 45.722115,314.510803 22.346895,314.510803 
	C22.346895,296.645874 22.346895,279.083923 22.346895,261.550262 
	C45.357513,261.550262 68.280647,261.550262 91.768311,262.016296 
	C92.582016,270.308929 92.831184,278.135498 93.036636,286.431335 
	C92.985794,291.374054 93.109581,295.852661 92.935783,300.319672 
	C92.751503,305.055786 92.284500,309.780884 91.940979,314.510803 
z"/>
<path fill="#BE9A48" opacity="1.000000" stroke="none" 
	d="
M21.189049,173.980103 
	C21.067204,164.393158 20.883913,154.806503 20.839401,145.219193 
	C20.786354,133.793900 20.852310,122.368042 21.423901,110.478531 
	C34.852020,110.014641 47.722950,110.014641 61.056316,110.014641 
	C61.056316,131.191803 61.056316,151.586594 60.829918,172.297043 
	C57.049633,173.107956 53.495747,173.603210 49.479916,174.063553 
	C40.343060,174.037277 31.668154,174.045914 22.693314,174.018738 
	C21.991938,173.981979 21.590492,173.981049 21.189049,173.980103 
z"/>
<path fill="#A3665E" opacity="1.000000" stroke="none" 
	d="
M282.304901,540.061401 
	C281.919159,365.049835 281.948364,190.182114 281.941498,15.314400 
	C281.941376,12.181483 281.509552,9.048583 281.169525,5.526303 
	C282.616882,4.803242 284.173920,4.469553 286.073303,4.366566 
	C286.239014,7.583216 285.908173,10.569141 285.907715,13.555116 
	C285.882355,184.666077 285.882080,355.777039 285.897827,526.888000 
	C285.898193,530.883484 286.109070,534.878906 286.183838,539.326660 
	C285.002686,539.921082 283.859467,540.063110 282.304901,540.061401 
z"/>
<path fill="#A93F2E" opacity="1.000000" stroke="none" 
	d="
M49.941864,174.098450 
	C53.495747,173.603210 57.049633,173.107956 61.113754,171.996887 
	C61.744259,151.621414 61.835472,131.861511 62.012730,112.102371 
	C62.043079,108.718834 59.842903,109.001907 57.641628,109.000404 
	C45.508709,108.992134 33.375797,108.972435 21.242886,108.956650 
	C21.366451,108.091858 21.490015,107.227066 21.874031,106.150444 
	C34.285671,105.954575 46.437233,106.030762 58.587864,105.955864 
	C63.233131,105.927231 65.090652,107.978172 65.060555,112.614182 
	C64.939529,131.257904 65.008949,149.902878 65.005531,168.547379 
	C65.004265,175.458420 63.619938,176.848343 56.494251,176.891708 
	C45.346909,176.959549 34.199249,176.975510 22.593975,177.035706 
	C21.834326,176.247452 21.532423,175.436905 21.209785,174.303238 
	C21.590492,173.981049 21.991938,173.981979 22.993492,174.308136 
	C32.376354,174.455032 41.159111,174.276749 49.941864,174.098450 
z"/>
<path fill="#6B52A2" opacity="1.000000" stroke="none" 
	d="
M92.003960,314.934082 
	C92.284500,309.780884 92.751503,305.055786 92.935783,300.319672 
	C93.109581,295.852661 92.985794,291.374054 93.294830,286.114746 
	C93.476303,277.297119 93.355865,269.265289 93.235428,261.233429 
	C93.166283,260.254883 93.097130,259.276337 92.947006,257.813965 
	C92.758820,257.013672 92.779030,256.705536 93.127563,256.096954 
	C93.525635,255.462875 93.434975,255.218430 93.056450,255.054779 
	C93.375153,252.951874 93.693855,250.848969 94.012558,248.746063 
	C94.680435,248.717010 95.348320,248.687973 96.016205,248.658920 
	C96.409714,250.334412 97.143433,252.009491 97.145447,253.685455 
	C97.173401,276.961182 97.118996,300.237152 97.013161,323.512695 
	C97.006065,325.074127 96.424561,326.632935 96.110222,328.192963 
	C95.553741,328.125244 94.997261,328.057495 94.440788,327.989777 
	C93.891701,325.134216 93.342621,322.278687 92.825409,319.039001 
	C92.593834,317.555695 92.330383,316.456543 92.003960,314.934082 
z"/>
<path fill="#8D4D2E" opacity="1.000000" stroke="none" 
	d="
M21.157202,109.216553 
	C33.375797,108.972435 45.508709,108.992134 57.641628,109.000404 
	C59.842903,109.001907 62.043079,108.718834 62.012730,112.102371 
	C61.835472,131.861511 61.744259,151.621414 61.340157,171.681213 
	C61.056316,151.586594 61.056316,131.191803 61.056316,110.014641 
	C47.722950,110.014641 34.852020,110.014641 21.516863,110.019043 
	C21.058929,109.841118 21.065224,109.658791 21.157202,109.216553 
z"/>
<path fill="#797288" opacity="1.000000" stroke="none" 
	d="
M93.000099,261.189575 
	C93.355865,269.265289 93.476303,277.297119 93.338539,285.645538 
	C92.831184,278.135498 92.582016,270.308929 92.180351,262.057556 
	C92.142021,261.271790 92.387657,261.109436 93.000099,261.189575 
z"/>
<path fill="#797288" opacity="1.000000" stroke="none" 
	d="
M6.462214,523.076477 
	C9.872415,522.648499 13.656981,522.367920 17.903196,522.253723 
	C18.324736,522.758972 18.284624,523.097839 18.148081,523.675903 
	C14.313292,523.684692 10.574936,523.454224 6.462214,523.076477 
z"/>
<path fill="#3F3E3E" opacity="1.000000" stroke="none" 
	d="
M17.995789,456.752991 
	C17.672808,456.864838 17.358507,456.702881 16.983635,456.268066 
	C17.096283,455.982025 17.269501,455.968903 17.702438,455.944336 
	C17.976263,456.115021 17.990366,456.297089 17.995789,456.752991 
z"/>
<path fill="#873F35" opacity="1.000000" stroke="none" 
	d="
M337.011505,535.516968 
	C336.508911,535.994141 336.086975,536.010254 335.335693,535.569458 
	C335.013763,508.073853 335.021149,481.035126 335.028503,453.996368 
	C335.451233,454.010010 335.873962,454.023682 336.613770,454.029907 
	C336.984619,481.033630 337.038391,508.044739 337.011505,535.516968 
z"/>
<path fill="#B9B9B9" opacity="1.000000" stroke="none" 
	d="
M337.914062,60.997314 
	C337.914917,43.723492 337.914917,26.949083 337.914917,10.174673 
	C338.154846,10.174625 338.394775,10.174577 338.634705,10.174529 
	C338.634705,32.399429 338.634705,54.624329 338.634705,76.849228 
	C338.394226,76.859879 338.153717,76.870529 337.913239,76.881180 
	C337.913239,71.753029 337.913239,66.624878 337.914062,60.997314 
z"/>
<path fill="#AE3927" opacity="1.000000" stroke="none" 
	d="
M294.518005,366.404205 
	C294.241241,364.375183 294.199341,362.671936 294.204041,360.550415 
	C294.250671,360.132141 294.642761,360.066071 295.129150,359.734131 
	C295.731049,346.599884 295.846558,333.797546 295.962067,320.995209 
	C296.734741,320.014191 297.507446,319.033142 298.616180,318.008789 
	C319.329254,317.975739 339.706268,317.986053 360.554749,317.986694 
	C361.611298,318.455017 362.196411,318.932983 362.889465,320.151794 
	C362.998444,359.357025 362.985840,397.821381 363.041290,436.285645 
	C363.044006,438.185089 363.639740,440.083679 363.959320,441.982666 
	C362.468903,449.198853 355.872223,447.619324 351.776062,447.695343 
	C334.011627,448.024872 316.227997,447.312683 298.451202,446.988068 
	C294.635071,446.918396 294.998871,444.164703 294.998322,441.654053 
	C294.993622,419.834961 295.005127,398.015869 294.984528,376.196777 
	C294.981537,373.041107 294.833679,369.885590 294.518005,366.404205 
z"/>
<path fill="#AE3927" opacity="1.000000" stroke="none" 
	d="
M334.979675,453.624969 
	C335.021149,481.035126 335.013763,508.073853 335.019348,535.588257 
	C332.076294,542.069519 328.176819,542.466797 322.435852,537.153320 
	C322.162872,535.444580 322.185974,533.899719 322.871033,531.895386 
	C323.687500,530.635803 323.976196,529.835754 323.977081,529.035400 
	C324.001007,507.495392 324.040710,485.955109 323.912933,464.415863 
	C323.902130,462.595612 322.736053,460.782196 322.106689,458.965637 
	C322.050873,457.591064 321.995056,456.216492 322.014374,454.436554 
	C324.906311,452.688873 327.622192,450.908264 330.590698,450.224518 
	C331.743683,449.958954 333.467194,452.170471 334.979675,453.624969 
z"/>
<path fill="#923528" opacity="1.000000" stroke="none" 
	d="
M363.976685,441.516205 
	C363.639740,440.083679 363.044006,438.185089 363.041290,436.285645 
	C362.985840,397.821381 362.998444,359.357025 363.003906,320.417725 
	C363.341583,321.673584 363.959534,323.403992 363.961853,325.135223 
	C364.013519,363.773315 363.997375,402.411560 363.976685,441.516205 
z"/>
<path fill="#BEA29E" opacity="1.000000" stroke="none" 
	d="
M293.594421,402.984802 
	C293.389526,402.917938 293.309753,402.711334 293.315979,402.183472 
	C293.507874,402.189850 293.613739,402.517456 293.594421,402.984802 
z"/>
<path fill="#925249" opacity="1.000000" stroke="none" 
	d="
M322.033569,459.432983 
	C322.736053,460.782196 323.902130,462.595612 323.912933,464.415863 
	C324.040710,485.955109 324.001007,507.495392 323.977081,529.035400 
	C323.976196,529.835754 323.687500,530.635803 323.199310,531.687805 
	C322.560242,529.523438 321.997009,527.108093 321.989685,524.691040 
	C321.924225,503.094299 321.956757,481.497253 322.033569,459.432983 
z"/>
<path fill="#873F35" opacity="1.000000" stroke="none" 
	d="
M295.668396,321.291260 
	C295.846558,333.797546 295.731049,346.599884 295.324890,359.699371 
	C295.147766,347.193451 295.261230,334.390381 295.668396,321.291260 
z"/>
<path fill="#797288" opacity="1.000000" stroke="none" 
	d="
M93.003212,255.277557 
	C93.434975,255.218430 93.525635,255.462875 93.187202,255.868195 
	C93.045959,255.948257 92.949974,255.500336 93.003212,255.277557 
z"/>
<path fill="#923528" opacity="1.000000" stroke="none" 
	d="
M49.479916,174.063568 
	C41.159111,174.276749 32.376354,174.455032 23.293423,174.343933 
	C31.668154,174.045914 40.343060,174.037277 49.479916,174.063568 
z"/>
</svg>