<svg version="1.1" id="Layer_1" xmlns="http://www.w3.org/2000/svg" xmlns:xlink="http://www.w3.org/1999/xlink" x="0px" y="0px"
	 width="100%" viewBox="0 0 371 545" enable-background="new 0 0 371 545" xml:space="preserve">
<path fill="#420BBB" opacity="1.000000" stroke="none" 
	d="
M1.000000,222.000000 
	C1.000000,177.645767 1.000000,133.291550 1.398864,88.340591 
	C10.791169,87.162117 19.784611,86.580376 29.137579,85.846985 
	C30.331673,83.523079 31.876585,81.355759 31.891756,79.177795 
	C32.057129,55.433388 31.983135,31.687307 32.144474,7.641218 
	C34.521759,4.546739 37.655159,4.911498 39.870422,6.406023 
	C41.275219,7.353767 41.927158,10.261402 41.941029,12.296732 
	C42.084564,33.361431 41.940845,54.428223 42.116318,75.492439 
	C42.145649,79.013199 43.320930,82.524414 44.236115,86.064156 
	C44.681404,86.048355 44.857269,86.008438 45.031509,85.980721 
	C45.029884,85.992920 45.022095,86.016289 45.320660,86.303131 
	C51.038433,86.741692 56.457638,86.893402 62.315571,87.005341 
	C64.512413,87.027199 66.270531,87.088829 68.321915,87.387329 
	C72.694061,87.822243 72.023598,90.824966 72.023705,93.415802 
	C72.025520,138.530869 72.038887,183.645966 71.974922,228.760956 
	C71.971954,230.850128 71.269608,232.938324 70.819077,235.127640 
	C70.745155,235.228302 70.588737,235.423050 70.164230,235.327011 
	C69.122993,235.462662 68.499329,235.912552 67.890579,235.893188 
	C59.101067,235.613937 50.306999,235.371841 41.535164,234.797821 
	C40.602890,234.736801 39.123505,232.680054 39.059753,231.487091 
	C38.776394,226.184555 36.352894,223.526199 30.627352,223.567215 
	C25.560585,223.208633 20.815550,223.177872 16.078949,222.962082 
	C11.048465,222.732864 6.025979,222.328110 1.000000,222.000000 
z"/>
<path fill="#430CBB" opacity="1.000000" stroke="none" 
	d="
M1.000000,449.000000 
	C1.000000,404.979095 1.000000,360.958221 1.403841,316.468750 
	C2.883225,315.966400 3.958770,315.932617 5.495445,315.952026 
	C23.019613,315.952942 40.082653,315.900604 57.596149,315.907990 
	C62.659855,315.640259 67.273102,315.312805 71.930923,315.451050 
	C71.966270,360.225372 71.957047,404.534058 71.486809,448.909973 
	C63.652752,448.971069 56.279705,448.964874 48.674099,448.740845 
	C46.976997,448.677521 45.512459,448.832062 43.629379,449.004517 
	C42.464638,450.403656 41.054707,451.798615 41.083054,453.163727 
	C41.234470,460.454926 41.745232,467.738678 42.119816,475.491760 
	C42.119770,495.454895 42.097229,514.951355 42.175838,534.447449 
	C42.189671,537.878784 41.716579,540.335693 37.370384,540.162292 
	C33.628246,540.013062 31.902977,538.459106 31.907848,534.682129 
	C31.942671,507.686981 31.892178,480.691681 32.008072,453.696991 
	C32.014473,452.205933 33.260742,450.720154 34.476578,448.016083 
	C32.541519,449.775940 31.232632,450.966309 29.809271,451.752625 
	C28.571409,450.468475 27.458778,448.843597 26.322924,448.827209 
	C17.884541,448.705261 9.441546,448.902771 1.000000,449.000000 
z"/>
<path fill="#B6B5B6" opacity="1.000000" stroke="none" 
	d="
M71.886353,314.985382 
	C67.273102,315.312805 62.659855,315.640259 57.303635,315.586975 
	C43.462303,315.166473 30.363617,315.060822 17.265776,315.125854 
	C13.187444,315.146118 9.111404,315.628204 5.034315,315.898834 
	C3.958770,315.932617 2.883225,315.966400 1.403841,316.000092 
	C1.000000,311.643097 1.000000,307.286194 1.397349,302.486725 
	C2.170078,303.411621 2.776796,304.761902 2.879902,306.149597 
	C3.278741,311.517456 4.563693,312.918884 9.872972,312.750519 
	C11.876191,312.686981 13.858731,311.971375 16.325071,311.453400 
	C11.923563,302.783264 7.874986,294.808350 3.826410,286.833435 
	C2.887306,289.187714 3.130212,291.223022 2.813270,293.167023 
	C2.541770,294.832306 1.629097,296.393036 0.999997,298.000000 
	C1.000000,288.312439 1.000000,278.624878 1.333372,268.375183 
	C4.789407,262.233612 7.942592,256.670898 11.023952,251.068710 
	C13.059769,247.367416 14.992404,243.609360 17.436029,239.000000 
	C11.203499,239.000000 6.101749,239.000000 1.000000,239.000000 
	C1.000000,237.933334 1.000000,236.866653 1.290812,235.404968 
	C1.767931,235.063705 1.954237,235.117447 2.447230,235.434448 
	C8.552372,235.808395 14.352576,236.056000 20.148666,235.981888 
	C24.047810,235.932022 27.941135,235.427155 32.254478,235.036026 
	C36.232033,235.236511 36.037560,232.944443 36.035183,230.424896 
	C36.032341,227.410645 34.493664,226.919647 31.932133,226.943649 
	C21.622150,227.040222 11.310827,226.993652 1.000000,227.000000 
	C1.000000,226.250000 1.000000,225.500000 1.465088,224.309540 
	C11.604382,223.850586 21.278589,223.832108 30.952795,223.813629 
	C36.352894,223.526199 38.776394,226.184555 39.059753,231.487091 
	C39.123505,232.680054 40.602890,234.736801 41.535164,234.797821 
	C50.306999,235.371841 59.101067,235.613937 67.890579,235.893188 
	C68.499329,235.912552 69.122993,235.462662 70.387512,235.574738 
	C71.232742,236.182480 71.590302,236.438034 71.604691,236.711639 
	C72.378304,251.424240 73.454254,266.131409 73.762352,280.854553 
	C73.994576,291.951691 73.239517,303.069427 72.681732,314.192108 
	C72.157753,314.396759 71.973358,314.656494 71.886353,314.985382 
M55.034855,312.840515 
	C58.351757,312.850647 61.694675,313.097900 64.971024,312.738403 
	C66.072693,312.617493 67.833672,310.991364 67.879005,309.989258 
	C68.152321,303.948761 68.014854,297.889709 68.014854,291.836853 
	C67.619156,291.706909 67.223465,291.576965 66.827766,291.446991 
	C64.871704,294.950928 63.036232,298.529572 60.925945,301.938019 
	C58.778267,305.406860 56.359962,308.708191 53.112434,312.031921 
	C46.487190,312.031921 39.861946,312.031921 33.236702,312.031921 
	C33.240356,312.281677 33.244015,312.531433 33.247673,312.781189 
	C40.205532,312.781189 47.163387,312.781189 55.034855,312.840515 
M60.245098,248.288971 
	C62.489075,252.587616 64.733047,256.886261 67.628342,262.432617 
	C67.628342,253.696701 67.628342,246.570404 67.628342,239.258835 
	C63.703777,239.258835 60.157772,239.258835 55.878330,239.258835 
	C57.396744,242.366165 58.675652,244.983368 60.245098,248.288971 
z"/>
<path fill="#B3B3B3" opacity="1.000000" stroke="none" 
	d="
M372.000000,298.000000 
	C372.000000,378.687561 372.000000,459.375122 371.531433,540.530518 
	C365.582123,540.870972 360.101349,540.743591 354.491211,540.188965 
	C354.278961,530.449341 354.148712,521.137085 354.122253,511.824615 
	C354.050415,486.545959 354.022583,461.267151 354.024414,435.608337 
	C354.010803,434.466644 353.950104,433.705017 353.936584,432.479401 
	C353.944122,410.729889 353.904510,389.444366 353.931000,367.780457 
	C353.989929,366.639374 353.982788,365.876709 354.008575,364.639221 
	C354.063446,348.517639 353.917023,332.867950 354.188751,317.225525 
	C354.299866,310.827759 355.315491,304.445648 356.305420,298.027222 
	C361.794159,297.998718 366.897064,297.999359 372.000000,298.000000 
z"/>
<path fill="#FEFEFF" opacity="1.000000" stroke="none" 
	d="
M1.000000,449.468658 
	C9.441546,448.902771 17.884541,448.705261 26.322924,448.827209 
	C27.458778,448.843597 28.571409,450.468475 29.699554,452.122192 
	C29.625198,463.172943 29.560717,473.450165 29.463810,483.727081 
	C29.284046,502.791229 29.085342,521.855225 28.439039,541.002930 
	C18.989035,541.057739 9.994517,541.028870 1.000000,541.000000 
	C1.000000,510.645782 1.000000,480.291534 1.000000,449.468658 
z"/>
<path fill="#FEFEFE" opacity="1.000000" stroke="none" 
	d="
M28.778053,85.998634 
	C19.784611,86.580376 10.791169,87.162117 1.398864,87.871933 
	C1.000000,60.645771 1.000000,33.291542 1.463909,5.497401 
	C6.281437,4.997687 10.635056,4.937886 15.441032,4.964174 
	C20.100828,5.134150 24.308268,5.218036 28.546200,5.761177 
	C28.852791,8.330300 29.326782,10.436061 29.370674,12.550750 
	C29.559208,21.634266 29.621296,30.720407 29.559561,40.257843 
	C29.436182,45.150608 29.482695,49.591125 29.414898,54.260338 
	C29.341799,54.654427 29.383005,54.819817 29.316202,55.420219 
	C29.222609,58.247658 29.237024,60.640076 29.152061,63.262585 
	C29.102110,63.652283 29.151533,63.811890 29.143932,64.438751 
	C28.983957,71.936890 28.881006,78.967758 28.778053,85.998634 
z"/>
<path fill="#B9B9B9" opacity="1.000000" stroke="none" 
	d="
M372.000000,86.000000 
	C372.000000,127.020897 372.000000,168.041794 371.530640,209.541870 
	C366.867584,209.911301 362.673859,209.801559 358.129333,209.796051 
	C356.862701,207.471390 355.160431,205.046188 355.149109,202.613098 
	C354.979065,166.081299 355.016541,129.548447 355.066589,93.015907 
	C355.069885,90.618645 355.569672,88.222054 356.309967,85.902840 
	C361.854279,85.987030 366.927124,85.993515 372.000000,86.000000 
z"/>
<path fill="#FCFCFC" opacity="1.000000" stroke="none" 
	d="
M358.480133,209.691833 
	C362.673859,209.801559 366.867584,209.911301 371.530640,210.010529 
	C372.000000,239.020889 372.000000,268.041779 372.000000,297.531342 
	C366.897064,297.999359 361.794159,297.998718 355.958130,297.772156 
	C355.593506,269.468201 355.935638,241.389664 356.419495,213.313583 
	C356.440460,212.094864 357.763580,210.898575 358.480133,209.691833 
z"/>
<path fill="#BB9E55" opacity="1.000000" stroke="none" 
	d="
M372.000000,19.000000 
	C372.000000,36.687561 372.000000,54.375122 371.532776,72.527412 
	C365.765808,73.014587 360.466125,73.037033 355.091644,72.600906 
	C354.688477,56.586430 354.296051,41.031353 354.091644,25.473814 
	C354.055542,22.727823 353.424438,19.127331 358.486267,18.959307 
	C363.300659,18.978336 367.650330,18.989168 372.000000,19.000000 
z"/>
<path fill="#070607" opacity="1.000000" stroke="none" 
	d="
M86.000000,1.000000 
	C86.750000,1.000000 87.500000,1.000000 88.836990,1.378463 
	C96.230560,1.837214 103.037209,1.990930 109.843727,1.985567 
	C146.905365,1.956361 183.966980,1.887963 221.490631,1.904232 
	C264.981842,1.964089 308.011017,1.952764 351.054108,2.014776 
	C351.068054,2.088112 350.928589,2.141383 350.948547,2.538192 
	C350.948059,3.726635 350.927551,4.518269 350.444641,5.293345 
	C290.485229,5.237092 230.988144,5.221967 171.491150,5.147028 
	C142.998001,5.111140 114.504982,4.961963 86.010437,4.477695 
	C86.005974,3.060863 86.002983,2.030432 86.000000,1.000000 
z"/>
<path fill="#FEFEFE" opacity="1.000000" stroke="none" 
	d="
M354.620575,540.616211 
	C360.101349,540.743591 365.582123,540.870972 371.531433,540.999146 
	C372.000000,542.664429 372.000000,544.328918 372.000000,545.996704 
	C248.333328,546.000000 124.666664,546.000000 1.468148,545.476501 
	C11.342288,544.883911 20.748280,544.814819 30.585896,544.826538 
	C35.030319,544.712219 39.043121,544.517212 43.458721,544.399048 
	C45.849392,544.599487 47.837082,544.826660 49.825157,544.830139 
	C66.305672,544.858948 82.786255,544.845703 99.266815,544.846375 
	C181.836075,544.849731 264.405334,544.846069 346.974609,544.884399 
	C350.140411,544.885864 352.972900,544.684387 354.161804,540.914917 
	C354.320587,540.824707 354.620575,540.616211 354.620575,540.616211 
z"/>
<path fill="#FAFAFA" opacity="1.000000" stroke="none" 
	d="
M372.000000,18.530293 
	C367.650330,18.989168 363.300659,18.978336 358.341309,18.635277 
	C356.979553,17.040840 355.713593,15.834690 355.568634,14.506250 
	C355.070984,9.944472 356.594147,4.741638 350.928589,2.141383 
	C350.928589,2.141383 351.068054,2.088112 351.037170,1.779710 
	C351.006287,1.471308 351.000000,1.000000 351.000000,1.000000 
	C357.920105,1.000000 364.840210,1.000000 372.000000,1.000000 
	C372.000000,6.684634 372.000000,12.372608 372.000000,18.530293 
z"/>
<path fill="#FAFAFA" opacity="1.000000" stroke="none" 
	d="
M1.000000,239.468658 
	C6.101749,239.000000 11.203499,239.000000 17.436029,239.000000 
	C14.992404,243.609360 13.059769,247.367416 11.023952,251.068710 
	C7.942592,256.670898 4.789407,262.233612 1.333372,267.906555 
	C1.000000,258.645782 1.000000,249.291550 1.000000,239.468658 
z"/>
<path fill="#181819" opacity="1.000000" stroke="none" 
	d="
M85.531342,1.000000 
	C86.002983,2.030432 86.005974,3.060863 85.620392,4.569515 
	C83.653854,5.206655 82.075897,5.365574 80.088211,5.381841 
	C77.848488,5.451743 76.018494,5.664299 73.742126,5.843617 
	C63.856861,5.685235 54.417976,5.560090 44.637566,5.253389 
	C38.994747,2.324199 33.730923,2.146246 28.515705,5.301922 
	C24.308268,5.218036 20.100828,5.134150 15.444277,4.576387 
	C14.996776,3.068341 14.998387,2.034171 15.000000,1.000000 
	C15.000000,1.000000 15.500000,1.000000 15.929558,1.401331 
	C27.259394,1.868739 38.159664,1.952055 49.059975,1.957594 
	C49.706486,1.957922 50.353317,1.333632 51.000000,1.000001 
	C62.354229,1.000000 73.708458,1.000000 85.531342,1.000000 
z"/>
<path fill="#3F1C8E" opacity="1.000000" stroke="none" 
	d="
M2.140543,235.171188 
	C1.954237,235.117447 1.767931,235.063705 1.290812,235.004974 
	C1.000000,232.629440 1.000000,230.258896 1.000000,227.444153 
	C11.310827,226.993652 21.622150,227.040222 31.932133,226.943649 
	C34.493664,226.919647 36.032341,227.410645 36.035183,230.424896 
	C36.037560,232.944443 36.232033,235.236511 31.806637,234.951355 
	C21.341105,235.028076 11.740824,235.099640 2.140543,235.171188 
M13.630402,232.017044 
	C19.814510,231.576324 26.188463,233.046143 32.214783,231.017471 
	C32.185577,230.556747 32.156372,230.096039 32.127167,229.635315 
	C23.249796,229.635315 14.372424,229.635315 5.495052,229.635315 
	C5.446893,230.230103 5.398735,230.824890 5.350577,231.419662 
	C7.792150,231.618317 10.233725,231.816956 13.630402,232.017044 
z"/>
<path fill="#FAFAFA" opacity="1.000000" stroke="none" 
	d="
M0.999997,298.399994 
	C1.629097,296.393036 2.541770,294.832306 2.813270,293.167023 
	C3.130212,291.223022 2.887306,289.187714 3.826410,286.833435 
	C7.874986,294.808350 11.923563,302.783264 16.325071,311.453400 
	C13.858731,311.971375 11.876191,312.686981 9.872972,312.750519 
	C4.563693,312.918884 3.278741,311.517456 2.879902,306.149597 
	C2.776796,304.761902 2.170078,303.411621 1.397349,302.022095 
	C1.000000,300.933319 1.000000,299.866669 0.999997,298.399994 
z"/>
<path fill="#FCFCFC" opacity="1.000000" stroke="none" 
	d="
M355.166412,73.059479 
	C360.466125,73.037033 365.765808,73.014587 371.532776,72.996071 
	C372.000000,76.361290 372.000000,79.722572 371.541443,83.640862 
	C365.845154,84.051544 360.607391,83.905228 355.302734,83.348602 
	C355.212677,79.645348 355.189545,76.352417 355.166412,73.059479 
z"/>
<path fill="#959495" opacity="1.000000" stroke="none" 
	d="
M221.028595,1.833049 
	C183.966980,1.887963 146.905365,1.956361 109.843727,1.985567 
	C103.037209,1.990930 96.230560,1.837214 89.211990,1.378463 
	C132.687561,1.000000 176.375122,1.000000 220.537598,1.208293 
	C221.012527,1.416586 221.028595,1.833049 221.028595,1.833049 
z"/>
<path fill="#ADADAD" opacity="1.000000" stroke="none" 
	d="
M221.490631,1.904231 
	C221.028595,1.833049 221.012527,1.416586 221.006256,1.208293 
	C264.020905,1.000000 307.041779,1.000000 350.531342,1.000000 
	C351.000000,1.000000 351.006287,1.471308 351.023224,1.706374 
	C308.011017,1.952764 264.981842,1.964089 221.490631,1.904231 
z"/>
<path fill="#232224" opacity="1.000000" stroke="none" 
	d="
M30.154272,544.745728 
	C20.748280,544.814819 11.342288,544.883911 1.468148,544.976501 
	C1.000000,543.933289 1.000000,542.866638 1.000000,541.399963 
	C9.994517,541.028870 18.989035,541.057739 28.607094,541.299194 
	C29.538515,542.589783 29.846395,543.667725 30.154272,544.745728 
z"/>
<path fill="#070607" opacity="1.000000" stroke="none" 
	d="
M14.525872,1.000000 
	C14.998387,2.034171 14.996776,3.068341 14.991919,4.490299 
	C10.635056,4.937886 6.281437,4.997687 1.463909,5.028744 
	C1.000000,3.700819 1.000000,2.401639 1.000000,1.000000 
	C5.350260,1.000000 9.701002,1.000000 14.525872,1.000000 
z"/>
<path fill="#DEDDE1" opacity="1.000000" stroke="none" 
	d="
M50.531342,1.000001 
	C50.353317,1.333632 49.706486,1.957922 49.059975,1.957594 
	C38.159664,1.952055 27.259394,1.868739 16.179558,1.401331 
	C27.354227,1.000000 38.708454,1.000000 50.531342,1.000001 
z"/>
<path fill="#7A6F8C" opacity="1.000000" stroke="none" 
	d="
M355.369659,83.758911 
	C360.607391,83.905228 365.845154,84.051544 371.541443,84.098930 
	C372.000000,84.444443 372.000000,84.888893 372.000000,85.666672 
	C366.927124,85.993515 361.854279,85.987030 356.227539,85.644867 
	C355.572296,84.792442 355.470978,84.275681 355.369659,83.758911 
z"/>
<path fill="#4217A3" opacity="1.000000" stroke="none" 
	d="
M30.627352,223.567215 
	C21.278589,223.832108 11.604382,223.850586 1.465088,223.934540 
	C1.000000,223.555557 1.000000,223.111099 1.000000,222.333328 
	C6.025979,222.328110 11.048465,222.732864 16.078949,222.962082 
	C20.815550,223.177872 25.560585,223.208633 30.627352,223.567215 
z"/>
<path fill="#FAF8FD" opacity="1.000000" stroke="none" 
	d="
M44.979092,5.434944 
	C54.417976,5.560090 63.856861,5.685235 73.915756,6.230064 
	C74.780243,10.427680 75.247002,14.206449 75.232811,17.983408 
	C75.146477,40.960358 74.950653,63.936893 74.485092,86.908684 
	C73.773857,86.944077 73.368904,86.984352 72.551147,87.022682 
	C70.768456,87.063988 69.398552,87.107224 68.028648,87.150452 
	C66.270531,87.088829 64.512413,87.027199 61.938217,86.883087 
	C55.755459,86.539162 50.388775,86.277725 45.022095,86.016289 
	C45.022095,86.016289 45.029884,85.992920 44.905197,85.528488 
	C44.816628,58.691776 44.852749,32.319492 45.004227,5.835483 
	C45.119583,5.723762 44.979092,5.434944 44.979092,5.434944 
z"/>
<path fill="#4E3090" opacity="1.000000" stroke="none" 
	d="
M68.321915,87.387329 
	C69.398552,87.107224 70.768456,87.063988 72.617767,87.480896 
	C73.297386,93.417114 73.678101,98.893486 73.669121,104.369209 
	C73.600128,146.424179 73.459015,188.479034 73.319466,230.533859 
	C73.314552,232.012878 73.091637,233.491180 72.624352,234.985901 
	C71.816582,235.010315 71.354782,235.018646 70.892990,235.026978 
	C71.269608,232.938324 71.971954,230.850128 71.974922,228.760956 
	C72.038887,183.645966 72.025520,138.530869 72.023705,93.415802 
	C72.023598,90.824966 72.694061,87.822243 68.321915,87.387329 
z"/>
<path fill="#4E28A6" opacity="1.000000" stroke="none" 
	d="
M44.637566,5.253389 
	C44.979092,5.434944 45.119583,5.723762 44.730663,6.155521 
	C44.227833,7.572353 44.015511,8.557313 44.014381,9.542513 
	C43.985100,35.041672 43.977795,60.540859 43.966690,86.040039 
	C43.320930,82.524414 42.145649,79.013199 42.116318,75.492439 
	C41.940845,54.428223 42.084564,33.361431 41.941029,12.296732 
	C41.927158,10.261402 41.275219,7.353767 39.870422,6.406023 
	C37.655159,4.911498 34.521759,4.546739 31.844357,7.888830 
	C30.959459,10.494698 30.246487,12.543267 30.182556,14.611895 
	C29.923130,23.006445 29.863054,31.407154 29.729452,39.805592 
	C29.621296,30.720407 29.559208,21.634266 29.370674,12.550750 
	C29.326782,10.436061 28.852791,8.330300 28.546200,5.761177 
	C33.730923,2.146246 38.994747,2.324199 44.637566,5.253389 
z"/>
<path fill="#EAE7EF" opacity="1.000000" stroke="none" 
	d="
M70.819077,235.127625 
	C71.354782,235.018646 71.816582,235.010315 72.911255,235.024841 
	C73.930595,235.049957 74.317055,235.052200 74.794296,235.512115 
	C74.921158,239.763168 74.900856,243.558090 75.004715,247.349625 
	C75.243004,256.048096 75.541847,264.744904 75.735367,273.877472 
	C75.644493,280.773651 75.724968,287.236481 75.599869,293.695343 
	C75.462410,300.791718 75.135658,307.884460 74.636032,314.994202 
	C74.211365,315.029907 74.042038,315.050232 73.656174,314.993042 
	C73.167686,314.739624 72.995781,314.493774 72.923904,314.178009 
	C73.239517,303.069427 73.994576,291.951691 73.762352,280.854553 
	C73.454254,266.131409 72.378304,251.424240 71.604691,236.711639 
	C71.590302,236.438034 71.232742,236.182480 70.812019,235.670776 
	C70.588737,235.423050 70.745155,235.228302 70.819077,235.127625 
z"/>
<path fill="#37118A" opacity="1.000000" stroke="none" 
	d="
M29.559561,40.257843 
	C29.863054,31.407154 29.923130,23.006445 30.182556,14.611895 
	C30.246487,12.543267 30.959459,10.494698 31.674179,8.189295 
	C31.983135,31.687307 32.057129,55.433388 31.891756,79.177795 
	C31.876585,81.355759 30.331673,83.523079 29.137579,85.846985 
	C28.881006,78.967758 28.983957,71.936890 29.276848,64.352982 
	C29.655989,63.478821 29.584208,63.223003 29.251440,63.032497 
	C29.237024,60.640076 29.222609,58.247658 29.459206,55.345428 
	C29.913170,54.512325 29.852833,54.244331 29.529205,54.031643 
	C29.482695,49.591125 29.436182,45.150608 29.559561,40.257843 
z"/>
<path fill="#6B4FA5" opacity="1.000000" stroke="none" 
	d="
M44.236115,86.064156 
	C43.977795,60.540859 43.985100,35.041672 44.014381,9.542513 
	C44.015511,8.557313 44.227833,7.572353 44.615311,6.267243 
	C44.852749,32.319492 44.816628,58.691776 44.906818,85.516296 
	C44.857269,86.008438 44.681404,86.048355 44.236115,86.064156 
z"/>
<path fill="#4E28A6" opacity="1.000000" stroke="none" 
	d="
M45.320660,86.303131 
	C50.388775,86.277725 55.755459,86.539162 61.499493,86.922852 
	C56.457638,86.893402 51.038433,86.741692 45.320660,86.303131 
z"/>
<path fill="#FAF8FD" opacity="1.000000" stroke="none" 
	d="
M48.906662,448.958679 
	C56.279705,448.964874 63.652752,448.971069 71.810738,448.980499 
	C73.035751,448.970551 73.475822,448.957367 74.082916,449.014282 
	C74.249939,449.084381 74.610031,449.043915 74.811409,449.470703 
	C75.023346,480.230560 75.033913,510.563599 74.664696,541.098022 
	C72.709213,541.525696 71.127831,541.979309 69.558754,541.940125 
	C61.369999,541.735779 53.184368,541.406250 44.917725,540.710205 
	C44.597847,538.164001 44.133751,536.025879 44.151974,533.891907 
	C44.380360,507.146179 44.748096,480.401337 44.867790,453.655365 
	C44.882195,450.436462 45.929245,449.127930 48.906662,448.958679 
z"/>
<path fill="#483476" opacity="1.000000" stroke="none" 
	d="
M48.674099,448.740845 
	C45.929245,449.127930 44.882195,450.436462 44.867790,453.655365 
	C44.748096,480.401337 44.380360,507.146179 44.151974,533.891907 
	C44.133751,536.025879 44.597847,538.164001 44.776073,540.994995 
	C44.161537,542.567261 43.608727,543.444763 43.055916,544.322205 
	C39.043121,544.517212 35.030319,544.712219 30.585897,544.826477 
	C29.846395,543.667725 29.538515,542.589783 29.062580,541.215515 
	C29.085342,521.855225 29.284046,502.791229 29.463810,483.727081 
	C29.560717,473.450165 29.625198,463.172943 29.814026,452.526276 
	C31.232632,450.966309 32.541519,449.775940 34.476578,448.016083 
	C33.260742,450.720154 32.014473,452.205933 32.008072,453.696991 
	C31.892178,480.691681 31.942671,507.686981 31.907848,534.682129 
	C31.902977,538.459106 33.628246,540.013062 37.370384,540.162292 
	C41.716579,540.335693 42.189671,537.878784 42.175838,534.447449 
	C42.097229,514.951355 42.119770,495.454895 42.383648,475.172211 
	C42.791653,471.283630 42.889046,468.179443 43.063915,465.079590 
	C43.366611,459.713837 43.717339,454.350769 44.047920,448.986572 
	C45.512459,448.832062 46.976997,448.677521 48.674099,448.740845 
z"/>
<path fill="#32127E" opacity="1.000000" stroke="none" 
	d="
M73.915894,448.944153 
	C73.475822,448.957367 73.035751,448.970551 72.271751,448.913208 
	C71.957047,404.534058 71.966270,360.225372 71.930923,315.451050 
	C71.973358,314.656494 72.157753,314.396759 72.681732,314.192108 
	C72.995781,314.493774 73.167686,314.739624 73.670074,315.441467 
	C73.875473,318.970520 73.850441,321.973602 73.602737,325.323181 
	C73.294640,344.669678 73.205185,363.669678 73.148254,382.669708 
	C73.146904,383.120728 73.509613,383.572845 73.727371,384.489990 
	C73.716927,390.629028 73.681618,396.302551 73.439926,402.278412 
	C73.354263,404.727356 73.474968,406.873932 73.637421,409.412415 
	C73.651047,410.853546 73.622910,411.902863 73.455566,413.054138 
	C73.276169,413.263641 73.176117,413.395020 73.207565,413.474121 
	C73.287239,413.674561 73.425941,413.851562 73.569016,414.502625 
	C73.703316,426.292938 73.809608,437.618530 73.915894,448.944153 
z"/>
<path fill="#695E81" opacity="1.000000" stroke="none" 
	d="
M5.495445,315.952026 
	C9.111404,315.628204 13.187444,315.146118 17.265776,315.125854 
	C30.363617,315.060822 43.462303,315.166473 56.853180,315.527283 
	C40.082653,315.900604 23.019613,315.952942 5.495445,315.952026 
z"/>
<path fill="#32127E" opacity="1.000000" stroke="none" 
	d="
M43.629379,449.004517 
	C43.717339,454.350769 43.366611,459.713837 43.063915,465.079590 
	C42.889046,468.179443 42.791653,471.283630 42.395557,474.705444 
	C41.745232,467.738678 41.234470,460.454926 41.083054,453.163727 
	C41.054707,451.798615 42.464638,450.403656 43.629379,449.004517 
z"/>
<path fill="#FAF8FD" opacity="1.000000" stroke="none" 
	d="
M54.060158,312.082855 
	C56.359962,308.708191 58.778267,305.406860 60.925945,301.938019 
	C63.036232,298.529572 64.871704,294.950928 66.827766,291.446991 
	C67.223465,291.576965 67.619156,291.706909 68.014854,291.836853 
	C68.014854,297.889709 68.152321,303.948761 67.879005,309.989258 
	C67.833672,310.991364 66.072693,312.617493 64.971024,312.738403 
	C61.694675,313.097900 58.351757,312.850647 54.558548,312.637390 
	C54.082245,312.434265 54.060158,312.082855 54.060158,312.082855 
z"/>
<path fill="#FAFAFA" opacity="1.000000" stroke="none" 
	d="
M60.099831,247.944763 
	C58.675652,244.983368 57.396744,242.366165 55.878330,239.258835 
	C60.157772,239.258835 63.703777,239.258835 67.628342,239.258835 
	C67.628342,246.570404 67.628342,253.696701 67.628342,262.432617 
	C64.733047,256.886261 62.489075,252.587616 60.099831,247.944763 
z"/>
<path fill="#EAE7EF" opacity="1.000000" stroke="none" 
	d="
M2.447230,235.434448 
	C11.740824,235.099640 21.341105,235.028076 31.389225,235.041168 
	C27.941135,235.427155 24.047810,235.932022 20.148666,235.981888 
	C14.352576,236.056000 8.552372,235.808395 2.447230,235.434448 
z"/>
<path fill="#DEDDE1" opacity="1.000000" stroke="none" 
	d="
M53.586296,312.057373 
	C54.060158,312.082855 54.082245,312.434265 54.101746,312.607727 
	C47.163387,312.781189 40.205532,312.781189 33.247673,312.781189 
	C33.244015,312.531433 33.240356,312.281677 33.236702,312.031921 
	C39.861946,312.031921 46.487190,312.031921 53.586296,312.057373 
z"/>
<path fill="#302F2C" opacity="1.000000" stroke="none" 
	d="
M355.302734,83.348602 
	C355.470978,84.275681 355.572296,84.792442 355.756104,85.567169 
	C355.569672,88.222054 355.069885,90.618645 355.066589,93.015907 
	C355.016541,129.548447 354.979065,166.081299 355.149109,202.613098 
	C355.160431,205.046188 356.862701,207.471390 358.129333,209.796051 
	C357.763580,210.898575 356.440460,212.094864 356.419495,213.313583 
	C355.935638,241.389664 355.593506,269.468201 355.572327,297.801361 
	C355.315491,304.445648 354.299866,310.827759 354.188751,317.225525 
	C353.917023,332.867950 354.063446,348.517639 353.659790,364.632507 
	C352.734100,364.705078 352.190094,364.309540 351.710754,363.446289 
	C351.491455,335.074463 351.207550,307.170410 350.953796,278.816528 
	C350.958588,277.466675 350.933197,276.566559 350.967896,275.221924 
	C351.009216,257.889435 350.990509,241.001511 350.920258,223.780975 
	C350.573334,222.611237 350.277954,221.774124 350.270996,220.622162 
	C350.922699,217.698380 351.602386,215.089371 351.601746,212.480530 
	C351.592346,172.874741 351.535889,133.268829 351.402283,93.663239 
	C351.302979,64.211906 351.076721,34.760998 350.907043,5.309902 
	C350.927551,4.518269 350.948059,3.726635 350.948547,2.538192 
	C356.594147,4.741638 355.070984,9.944472 355.568634,14.506250 
	C355.713593,15.834690 356.979553,17.040840 357.876587,18.627079 
	C353.424438,19.127331 354.055542,22.727823 354.091644,25.473814 
	C354.296051,41.031353 354.688477,56.586430 355.091644,72.600906 
	C355.189545,76.352417 355.212677,79.645348 355.302734,83.348602 
z"/>
<path fill="#62439E" opacity="1.000000" stroke="none" 
	d="
M351.646118,363.914032 
	C352.190094,364.309540 352.734100,364.705078 353.626831,365.107361 
	C353.982788,365.876709 353.989929,366.639374 353.648895,367.893402 
	C352.590088,368.765991 351.879486,369.147186 350.787964,369.379089 
	C344.466187,369.074036 338.526001,368.834442 332.584198,368.782318 
	C323.841583,368.705536 315.097809,368.762512 305.993408,368.762512 
	C305.993408,390.322845 305.993408,411.029846 306.242035,432.091248 
	C321.713715,432.589783 336.936737,432.733917 352.447998,432.901550 
	C353.120605,432.931122 353.505005,432.937256 353.889404,432.943420 
	C353.950104,433.705017 354.010803,434.466644 353.704773,435.614838 
	C352.559235,436.327789 351.780457,436.654144 350.535889,436.926117 
	C336.428375,436.819580 322.785950,436.835297 309.145264,436.686523 
	C302.370178,436.612671 300.921051,435.221039 300.902405,428.976166 
	C300.846710,410.334656 300.835205,391.692657 300.914154,373.051300 
	C300.942719,366.301483 302.327850,365.168213 309.249146,365.008484 
	C323.382385,364.682251 337.513885,364.283142 351.646118,363.914032 
z"/>
<path fill="#33322F" opacity="1.000000" stroke="none" 
	d="
M351.001648,436.980499 
	C351.780457,436.654144 352.559235,436.327789 353.657654,435.994934 
	C354.022583,461.267151 354.050415,486.545959 354.122253,511.824615 
	C354.148712,521.137085 354.278961,530.449341 354.491211,540.188965 
	C354.620575,540.616211 354.320587,540.824707 353.950134,540.668762 
	C352.746368,540.351990 351.913055,540.191223 351.381683,539.647827 
	C351.456299,505.170258 351.228973,471.075378 351.001648,436.980499 
z"/>
<path fill="#1C1B1A" opacity="1.000000" stroke="none" 
	d="
M351.168884,369.528381 
	C351.879486,369.147186 352.590088,368.765991 353.582794,368.271851 
	C353.904510,389.444366 353.944122,410.729889 353.936584,432.479401 
	C353.505005,432.937256 353.120605,432.931122 352.382263,432.622192 
	C351.922119,431.956696 351.815918,431.593994 351.760345,430.750916 
	C351.596954,410.023132 351.382935,389.775757 351.168884,369.528381 
z"/>
<path fill="#4E28A6" opacity="1.000000" stroke="none" 
	d="
M29.152061,63.262585 
	C29.584208,63.223003 29.655989,63.478821 29.333870,63.885727 
	C29.151533,63.811890 29.102110,63.652283 29.152061,63.262585 
z"/>
<path fill="#4E28A6" opacity="1.000000" stroke="none" 
	d="
M29.414898,54.260338 
	C29.852833,54.244331 29.913170,54.512325 29.567215,54.910416 
	C29.383005,54.819817 29.341799,54.654427 29.414898,54.260338 
z"/>
<path fill="#FFFEFF" opacity="1.000000" stroke="none" 
	d="
M350.535889,436.926117 
	C351.228973,471.075378 351.456299,505.170258 350.957794,539.724609 
	C348.655426,540.505005 347.078552,541.108093 345.502319,541.106445 
	C257.066071,541.013916 168.629868,540.870972 80.161873,540.296265 
	C80.053452,536.893433 79.976807,533.927490 79.963425,530.499756 
	C80.020187,490.643890 80.049171,451.249725 79.992798,411.855682 
	C79.962837,390.919189 79.784943,369.982941 79.732681,348.578796 
	C79.802879,347.111603 79.824562,346.112183 79.824127,345.112762 
	C79.777023,238.006088 79.714783,130.899414 79.714920,23.792736 
	C79.714928,17.703321 80.225166,11.613909 80.497940,5.524494 
	C82.075897,5.365574 83.653854,5.206655 85.621857,4.955915 
	C114.504982,4.961963 142.998001,5.111140 171.491150,5.147028 
	C230.988144,5.221967 290.485229,5.237092 350.444641,5.293345 
	C351.076721,34.760998 351.302979,64.211906 351.402283,93.663239 
	C351.535889,133.268829 351.592346,172.874741 351.601746,212.480530 
	C351.602386,215.089371 350.922699,217.698380 349.804993,220.581665 
	C346.553192,220.849930 344.055725,220.861618 341.558624,220.834946 
	C320.428986,220.609283 299.299469,220.376617 278.157776,219.726379 
	C277.732208,217.079071 277.318726,214.851456 276.905212,212.623840 
	C276.444153,212.699524 275.983063,212.775192 275.521973,212.850876 
	C275.521973,238.194107 275.521973,263.537323 275.521973,288.880554 
	C276.060760,288.947235 276.599548,289.013885 277.138336,289.080566 
	C277.584198,286.333374 278.030060,283.586212 278.758972,280.464752 
	C303.002533,279.815765 326.963074,279.541046 350.923615,279.266327 
	C351.207550,307.170410 351.491455,335.074463 351.710754,363.446289 
	C337.513885,364.283142 323.382385,364.682251 309.249146,365.008484 
	C302.327850,365.168213 300.942719,366.301483 300.914154,373.051300 
	C300.835205,391.692657 300.846710,410.334656 300.902405,428.976166 
	C300.921051,435.221039 302.370178,436.612671 309.145264,436.686523 
	C322.785950,436.835297 336.428375,436.819580 350.535889,436.926117 
z"/>
<path fill="#131213" opacity="1.000000" stroke="none" 
	d="
M80.193649,540.733032 
	C168.629868,540.870972 257.066071,541.013916 345.502319,541.106445 
	C347.078552,541.108093 348.655426,540.505005 350.655884,540.107300 
	C351.913055,540.191223 352.746368,540.351990 353.791321,540.758972 
	C352.972900,544.684387 350.140411,544.885864 346.974609,544.884399 
	C264.405334,544.846069 181.836075,544.849731 99.266815,544.846375 
	C82.786255,544.845703 66.305672,544.858948 49.825157,544.830139 
	C47.837082,544.826660 45.849392,544.599487 43.458717,544.399048 
	C43.608727,543.444763 44.161537,542.567261 44.855999,541.405029 
	C53.184368,541.406250 61.369999,541.735779 69.558754,541.940125 
	C71.127831,541.979309 72.709213,541.525696 75.081184,541.218445 
	C77.316185,541.002625 78.754921,540.867859 80.193649,540.733032 
z"/>
<path fill="#6B4FA5" opacity="1.000000" stroke="none" 
	d="
M80.161873,540.296265 
	C78.754921,540.867859 77.316185,541.002625 75.460960,541.017090 
	C75.033913,510.563599 75.023346,480.230560 74.985825,449.085968 
	C75.206528,446.839478 75.666862,445.405090 75.670685,443.969452 
	C75.759567,410.571259 75.871651,377.172729 75.801750,343.774658 
	C75.781662,334.175446 75.210091,324.577393 74.891380,314.978790 
	C75.135658,307.884460 75.462410,300.791718 75.599869,293.695343 
	C75.724968,287.236481 75.644493,280.773651 75.786728,273.372040 
	C75.890495,248.184433 75.862175,223.937363 75.791580,199.242630 
	C75.788521,176.973969 75.970909,155.151932 75.818436,133.332260 
	C75.710304,117.857727 75.149895,102.386353 74.791367,86.913567 
	C74.950653,63.936893 75.146477,40.960358 75.232811,17.983408 
	C75.247002,14.206449 74.780243,10.427680 74.362137,6.263300 
	C76.018494,5.664299 77.848488,5.451743 80.088211,5.381842 
	C80.225166,11.613909 79.714928,17.703321 79.714920,23.792736 
	C79.714783,130.899414 79.777023,238.006088 79.824127,345.112762 
	C79.824562,346.112183 79.802879,347.111603 79.526215,348.929840 
	C79.180092,350.406738 79.028702,351.064789 79.028519,351.722900 
	C79.012047,410.053802 79.000870,468.384674 79.039154,526.715576 
	C79.040085,528.131042 79.600624,529.546204 79.900162,530.961487 
	C79.976807,533.927490 80.053452,536.893433 80.161873,540.296265 
z"/>
<path fill="#420BBB" opacity="1.000000" stroke="none" 
	d="
M13.152850,232.016327 
	C10.233725,231.816956 7.792150,231.618317 5.350577,231.419662 
	C5.398735,230.824890 5.446893,230.230103 5.495052,229.635315 
	C14.372424,229.635315 23.249796,229.635315 32.127167,229.635315 
	C32.156372,230.096039 32.185577,230.556747 32.214783,231.017471 
	C26.188463,233.046143 19.814510,231.576324 13.152850,232.016327 
z"/>
<path fill="#D4C3DE" opacity="1.000000" stroke="none" 
	d="
M74.485092,86.908684 
	C75.149895,102.386353 75.710304,117.857727 75.818436,133.332260 
	C75.970909,155.151932 75.788521,176.973969 75.582626,199.625031 
	C75.178474,211.988190 74.941002,223.521332 74.703522,235.054443 
	C74.317055,235.052200 73.930595,235.049957 73.257233,235.008759 
	C73.091637,233.491180 73.314552,232.012878 73.319466,230.533859 
	C73.459015,188.479034 73.600128,146.424179 73.669121,104.369209 
	C73.678101,98.893486 73.297386,93.417114 73.030563,87.482834 
	C73.368904,86.984352 73.773857,86.944077 74.485092,86.908684 
z"/>
<path fill="#DACAE1" opacity="1.000000" stroke="none" 
	d="
M74.636032,314.994202 
	C75.210091,324.577393 75.781662,334.175446 75.801750,343.774658 
	C75.871651,377.172729 75.759567,410.571259 75.670685,443.969452 
	C75.666862,445.405090 75.206528,446.839478 74.784439,448.659180 
	C74.610031,449.043915 74.249939,449.084381 74.082916,449.014282 
	C73.809608,437.618530 73.703316,426.292938 73.666626,414.235291 
	C73.689079,413.319550 73.641930,413.135834 73.594780,412.952148 
	C73.622910,411.902863 73.651047,410.853546 73.737770,408.980835 
	C73.746338,406.096954 73.696320,404.036499 73.646301,401.976074 
	C73.681618,396.302551 73.716927,390.629028 73.826050,384.028931 
	C73.875053,363.727142 73.850235,344.351929 73.825424,324.976685 
	C73.850441,321.973602 73.875473,318.970520 73.886612,315.518982 
	C74.042038,315.050232 74.211365,315.029907 74.636032,314.994202 
z"/>
<path fill="#7A6F8C" opacity="1.000000" stroke="none" 
	d="
M74.794296,235.512115 
	C74.941002,223.521332 75.178474,211.988190 75.624901,200.072662 
	C75.862175,223.937363 75.890495,248.184433 75.867462,272.936951 
	C75.541847,264.744904 75.243004,256.048096 75.004715,247.349625 
	C74.900856,243.558090 74.921158,239.763168 74.794296,235.512115 
z"/>
<path fill="#5D468B" opacity="1.000000" stroke="none" 
	d="
M73.602737,325.323181 
	C73.850235,344.351929 73.875053,363.727142 73.801193,383.563416 
	C73.509613,383.572845 73.146904,383.120728 73.148254,382.669708 
	C73.205185,363.669678 73.294640,344.669678 73.602737,325.323181 
z"/>
<path fill="#5D468B" opacity="1.000000" stroke="none" 
	d="
M73.439926,402.278412 
	C73.696320,404.036499 73.746338,406.096954 73.696014,408.588959 
	C73.474968,406.873932 73.354263,404.727356 73.439926,402.278412 
z"/>
<path fill="#5D468B" opacity="1.000000" stroke="none" 
	d="
M73.455566,413.054138 
	C73.641930,413.135834 73.689079,413.319550 73.638611,413.770569 
	C73.425941,413.851562 73.287239,413.674561 73.207565,413.474121 
	C73.176117,413.395020 73.276169,413.263641 73.455566,413.054138 
z"/>
<path fill="#FAFAFA" opacity="1.000000" stroke="none" 
	d="
M350.971802,224.113602 
	C350.990509,241.001511 351.009216,257.889435 350.505066,275.234497 
	C344.824493,275.762177 339.665833,275.935852 334.509338,275.884857 
	C315.716949,275.699036 296.925293,275.438141 278.164490,274.746460 
	C278.407104,257.804749 278.618561,241.322205 279.092346,224.486160 
	C303.227020,224.126328 327.099426,224.119965 350.971802,224.113602 
z"/>
<path fill="#131213" opacity="1.000000" stroke="none" 
	d="
M278.133362,275.205566 
	C296.925293,275.438141 315.716949,275.699036 334.509338,275.884857 
	C339.665833,275.935852 344.824493,275.762177 350.445007,275.679047 
	C350.933197,276.566559 350.958588,277.466675 350.953796,278.816528 
	C326.963074,279.541046 303.002533,279.815765 278.715454,280.109680 
	C278.303741,278.487762 278.218567,276.846649 278.133362,275.205566 
z"/>
<path fill="#0B0A0B" opacity="1.000000" stroke="none" 
	d="
M350.920258,223.780975 
	C327.099426,224.119965 303.227020,224.126328 278.841736,224.244354 
	C278.275879,222.952713 278.222870,221.549393 278.169891,220.146057 
	C299.299469,220.376617 320.428986,220.609283 341.558624,220.834946 
	C344.055725,220.861618 346.553192,220.849930 349.516541,220.896515 
	C350.277954,221.774124 350.573334,222.611237 350.920258,223.780975 
z"/>
<path fill="#BB994B" opacity="1.000000" stroke="none" 
	d="
M350.787964,369.379089 
	C351.382935,389.775757 351.596954,410.023132 351.378418,430.793640 
	C335.961700,431.456818 320.977570,431.596832 305.993408,431.736847 
	C305.993408,411.029846 305.993408,390.322845 305.993408,368.762512 
	C315.097809,368.762512 323.841583,368.705536 332.584198,368.782318 
	C338.526001,368.834442 344.466187,369.074036 350.787964,369.379089 
z"/>
<path fill="#483476" opacity="1.000000" stroke="none" 
	d="
M306.242035,432.091248 
	C320.977570,431.596832 335.961700,431.456818 351.327789,431.274048 
	C351.815918,431.593994 351.922119,431.956696 352.094055,432.598755 
	C336.936737,432.733917 321.713715,432.589783 306.242035,432.091248 
z"/>
<path fill="#62479E" opacity="1.000000" stroke="none" 
	d="
M278.157776,219.726379 
	C278.222870,221.549393 278.275879,222.952713 278.579437,224.597839 
	C278.618561,241.322205 278.407104,257.804749 278.164490,274.746460 
	C278.218567,276.846649 278.303741,278.487762 278.432434,280.483948 
	C278.030060,283.586212 277.584198,286.333374 277.138336,289.080566 
	C276.599548,289.013885 276.060760,288.947235 275.521973,288.880554 
	C275.521973,263.537323 275.521973,238.194107 275.521973,212.850876 
	C275.983063,212.775192 276.444153,212.699524 276.905212,212.623840 
	C277.318726,214.851456 277.732208,217.079071 278.157776,219.726379 
z"/>
<path fill="#695E81" opacity="1.000000" stroke="none" 
	d="
M79.963425,530.499756 
	C79.600624,529.546204 79.040085,528.131042 79.039154,526.715576 
	C79.000870,468.384674 79.012047,410.053802 79.028519,351.722900 
	C79.028702,351.064789 79.180092,350.406738 79.467361,349.397614 
	C79.784943,369.982941 79.962837,390.919189 79.992798,411.855682 
	C80.049171,451.249725 80.020187,490.643890 79.963425,530.499756 
z"/>
</svg>