<svg version="1.1" viewBox="0.0 0.0 2192.1259842519685 1058.267716535433" fill="none" stroke="none" stroke-linecap="square" stroke-miterlimit="10" xmlns:xlink="http://www.w3.org/1999/xlink" xmlns="http://www.w3.org/2000/svg"><clipPath id="p.0"><path d="m0 0l2192.126 0l0 1058.2677l-2192.126 0l0 -1058.2677z" clip-rule="nonzero"/></clipPath><g clip-path="url(#p.0)"><path fill="#000000" fill-opacity="0.0" d="m0 0l2192.126 0l0 1058.2677l-2192.126 0z" fill-rule="evenodd"/><path fill="#2d2d2d" d="m0.0131233595 -4.383202l2192.126 0l0 1058.2677l-2192.126 0z" fill-rule="evenodd"/><path fill="#000000" fill-opacity="0.0" d="m27.66929 883.91077l199.74803 202.04724" fill-rule="evenodd"/><path stroke="#999999" stroke-width="8.0" stroke-linejoin="round" stroke-linecap="butt" d="m27.66929 883.91077l199.74803 202.04724" fill-rule="evenodd"/><path fill="#000000" fill-opacity="0.0" d="m91.66929 819.91077l199.74805 202.04724" fill-rule="evenodd"/><path stroke="#999999" stroke-width="8.0" stroke-linejoin="round" stroke-linecap="butt" d="m91.66929 819.91077l199.74805 202.04724" fill-rule="evenodd"/><path fill="#000000" fill-opacity="0.0" d="m31.934383 885.7113l63.49606 -63.68506" fill-rule="evenodd"/><path stroke="#999999" stroke-width="8.0" stroke-linejoin="round" stroke-linecap="butt" d="m31.934383 885.7113l63.49606 -63.68506" fill-rule="evenodd"/><path fill="#000000" fill-opacity="0.0" d="m226.96667 1080.7435l63.496063 -63.684998" fill-rule="evenodd"/><path stroke="#999999" stroke-width="8.0" stroke-linejoin="round" stroke-linecap="butt" d="m226.96667 1080.7435l63.496063 -63.684998" fill-rule="evenodd"/><path fill="#cccccc" d="m54.91601 145.7979l41.165356 0l0 200.69292l-41.165356 0z" fill-rule="evenodd"/><path fill="#cccccc" d="m54.91601 367.63254l41.165356 0l0 200.6929l-41.165356 0z" fill-rule="evenodd"/><path fill="#cccccc" d="m54.91601 589.46716l41.165356 0l0 200.69293l-41.165356 0z" fill-rule="evenodd"/><path fill="#cccccc" d="m97.79684 800.3583l16.818901 -16.818909l217.32283 217.32288l-16.818909 16.818848z" fill-rule="evenodd"/><path fill="#000000" fill-opacity="0.0" d="m89.220474 37.73491l0.40944672 89.196846" fill-rule="evenodd"/><path stroke="#ffffff" stroke-width="8.0" stroke-linejoin="round" stroke-linecap="butt" d="m89.220474 37.73491l0.40944672 89.196846" fill-rule="evenodd"/><path fill="#cccccc" d="m98.16451 813.8945l15.023621 15.023621l-72.34646 72.3465l-15.023621 -15.023621z" fill-rule="evenodd"/><path stroke="#666666" stroke-width="4.0" stroke-linejoin="round" stroke-linecap="butt" d="m98.16451 813.8945l15.023621 15.023621l-72.34646 72.3465l-15.023621 -15.023621z" fill-rule="evenodd"/><path fill="#cccccc" d="m116.50363 832.2336l15.023621 15.023621l-72.34646 72.3465l-15.023624 -15.023621z" fill-rule="evenodd"/><path stroke="#666666" stroke-width="4.0" stroke-linejoin="round" stroke-linecap="butt" d="m116.50363 832.2336l15.023621 15.023621l-72.34646 72.3465l-15.023624 -15.023621z" fill-rule="evenodd"/><path fill="#cccccc" d="m135.32185 851.0518l15.023636 15.023621l-72.346466 72.3465l-15.023621 -15.023621z" fill-rule="evenodd"/><path stroke="#666666" stroke-width="4.0" stroke-linejoin="round" stroke-linecap="butt" d="m135.32185 851.0518l15.023636 15.023621l-72.346466 72.3465l-15.023621 -15.023621z" fill-rule="evenodd"/><path fill="#cccccc" d="m153.66098 869.3909l15.023621 15.023621l-72.34646 72.3465l-15.023621 -15.023621z" fill-rule="evenodd"/><path stroke="#666666" stroke-width="4.0" stroke-linejoin="round" stroke-linecap="butt" d="m153.66098 869.3909l15.023621 15.023621l-72.34646 72.3465l-15.023621 -15.023621z" fill-rule="evenodd"/><path fill="#cccccc" d="m171.9987 887.7287l15.023621 15.023621l-72.34645 72.346436l-15.023621 -15.023621z" fill-rule="evenodd"/><path stroke="#666666" stroke-width="4.0" stroke-linejoin="round" stroke-linecap="butt" d="m171.9987 887.7287l15.023621 15.023621l-72.34645 72.346436l-15.023621 -15.023621z" fill-rule="evenodd"/><path fill="#cccccc" d="m190.33783 906.0678l15.023621 15.023621l-72.346466 72.346436l-15.023613 -15.023621z" fill-rule="evenodd"/><path stroke="#666666" stroke-width="4.0" stroke-linejoin="round" stroke-linecap="butt" d="m190.33783 906.0678l15.023621 15.023621l-72.346466 72.346436l-15.023613 -15.023621z" fill-rule="evenodd"/><path fill="#cccccc" d="m209.15605 924.88605l15.023621 15.023621l-72.34645 72.346436l-15.023621 -15.023621z" fill-rule="evenodd"/><path stroke="#666666" stroke-width="4.0" stroke-linejoin="round" stroke-linecap="butt" d="m209.15605 924.88605l15.023621 15.023621l-72.34645 72.346436l-15.023621 -15.023621z" fill-rule="evenodd"/><path fill="#cccccc" d="m227.49518 943.22516l15.023621 15.023621l-72.346466 72.346436l-15.023621 -15.023621z" fill-rule="evenodd"/><path stroke="#666666" stroke-width="4.0" stroke-linejoin="round" stroke-linecap="butt" d="m227.49518 943.22516l15.023621 15.023621l-72.346466 72.346436l-15.023621 -15.023621z" fill-rule="evenodd"/><path fill="#cccccc" d="m245.8329 961.56287l15.023636 15.023621l-72.346466 72.3465l-15.023621 -15.023682z" fill-rule="evenodd"/><path stroke="#666666" stroke-width="4.0" stroke-linejoin="round" stroke-linecap="butt" d="m245.8329 961.56287l15.023636 15.023621l-72.346466 72.3465l-15.023621 -15.023682z" fill-rule="evenodd"/><path fill="#cccccc" d="m264.17203 979.902l15.023621 15.023621l-72.346466 72.3465l-15.023621 -15.023682z" fill-rule="evenodd"/><path stroke="#666666" stroke-width="4.0" stroke-linejoin="round" stroke-linecap="butt" d="m264.17203 979.902l15.023621 15.023621l-72.346466 72.3465l-15.023621 -15.023682z" fill-rule="evenodd"/><path fill="#cccccc" d="m282.99026 998.7202l15.023621 15.023621l-72.346466 72.3465l-15.023621 -15.023682z" fill-rule="evenodd"/><path stroke="#666666" stroke-width="4.0" stroke-linejoin="round" stroke-linecap="butt" d="m282.99026 998.7202l15.023621 15.023621l-72.346466 72.3465l-15.023621 -15.023682z" fill-rule="evenodd"/><path fill="#000000" fill-opacity="0.0" d="m294.11548 52.307087l0 326.74014" fill-rule="evenodd"/><path stroke="#9c6cff" stroke-width="8.0" stroke-linejoin="round" stroke-linecap="butt" d="m294.11548 52.307087l0 326.74014" fill-rule="evenodd"/><path fill="#000000" fill-opacity="0.0" d="m366.11548 52.307087l0 326.55118" fill-rule="evenodd"/><path stroke="#9c6cff" stroke-width="8.0" stroke-linejoin="round" stroke-linecap="butt" d="m366.11548 52.307087l0 326.55118" fill-rule="evenodd"/><path fill="#000000" fill-opacity="0.0" d="m222.11548 52.307087l0 327.1181" fill-rule="evenodd"/><path stroke="#9c6cff" stroke-width="8.0" stroke-linejoin="round" stroke-linecap="butt" d="m222.11548 52.307087l0 327.1181" fill-rule="evenodd"/><path fill="#b7b7b7" d="m102.89762 322.09186l74.4567 0l0 74.456696l-74.4567 0z" fill-rule="evenodd"/><path fill="#b7b7b7" d="m434.2572 322.09186l74.456696 0l0 74.456696l-74.456696 0z" fill-rule="evenodd"/><path fill="#000000" fill-opacity="0.0" d="m175.29276 341.59055l0 31.84253" fill-rule="evenodd"/><path stroke="#999999" stroke-width="4.0" stroke-linejoin="round" stroke-linecap="butt" d="m175.29276 341.59055l0 31.84253" fill-rule="evenodd"/><path fill="#000000" fill-opacity="0.0" d="m152.18373 373.61942l303.49603 -1.4173279" fill-rule="evenodd"/><path stroke="#999999" stroke-width="4.0" stroke-linejoin="round" stroke-linecap="butt" d="m152.18373 373.61942l303.49603 -1.4173279" fill-rule="evenodd"/><path fill="#000000" fill-opacity="0.0" d="m211.12335 341.59055l0 31.84253" fill-rule="evenodd"/><path stroke="#999999" stroke-width="4.0" stroke-linejoin="round" stroke-linecap="butt" d="m211.12335 341.59055l0 31.84253" fill-rule="evenodd"/><path fill="#000000" fill-opacity="0.0" d="m229.39757 341.59055l0 31.84253" fill-rule="evenodd"/><path stroke="#999999" stroke-width="4.0" stroke-linejoin="round" stroke-linecap="butt" d="m229.39757 341.59055l0 31.84253" fill-rule="evenodd"/><path fill="#000000" fill-opacity="0.0" d="m246.53468 341.59055l0 31.84253" fill-rule="evenodd"/><path stroke="#999999" stroke-width="4.0" stroke-linejoin="round" stroke-linecap="butt" d="m246.53468 341.59055l0 31.84253" fill-rule="evenodd"/><path fill="#000000" fill-opacity="0.0" d="m193.56697 341.59055l0 31.84253" fill-rule="evenodd"/><path stroke="#999999" stroke-width="4.0" stroke-linejoin="round" stroke-linecap="butt" d="m193.56697 341.59055l0 31.84253" fill-rule="evenodd"/><path fill="#000000" fill-opacity="0.0" d="m378.32504 341.59055l0 31.84253" fill-rule="evenodd"/><path stroke="#999999" stroke-width="4.0" stroke-linejoin="round" stroke-linecap="butt" d="m378.32504 341.59055l0 31.84253" fill-rule="evenodd"/><path fill="#000000" fill-opacity="0.0" d="m412.2202 341.59055l0 31.84253" fill-rule="evenodd"/><path stroke="#999999" stroke-width="4.0" stroke-linejoin="round" stroke-linecap="butt" d="m412.2202 341.59055l0 31.84253" fill-rule="evenodd"/><path fill="#999999" d="m299.06036 341.59055l52.692932 0l0 31.84253l-52.692932 0z" fill-rule="evenodd"/><path fill="#999999" d="m255.55118 341.6719l33.88977 0l0 31.84253l-33.88977 0z" fill-rule="evenodd"/><path fill="#999999" d="m351.4252 346.21783l20.251953 0l0 21.322845l-20.251953 0z" fill-rule="evenodd"/><path fill="#000000" fill-opacity="0.0" d="m152.75066 344.81366l303.81104 -2.2362366" fill-rule="evenodd"/><path stroke="#999999" stroke-width="4.0" stroke-linejoin="round" stroke-linecap="butt" d="m152.75066 344.81366l303.81104 -2.2362366" fill-rule="evenodd"/><path fill="#999999" d="m454.69815 340.7638l33.57483 0l0 33.5748l-33.57483 0z" fill-rule="evenodd"/><path fill="#000000" fill-opacity="0.0" d="m436.26047 341.59055l0 31.84253" fill-rule="evenodd"/><path stroke="#999999" stroke-width="4.0" stroke-linejoin="round" stroke-linecap="butt" d="m436.26047 341.59055l0 31.84253" fill-rule="evenodd"/><path fill="#999999" d="m123.338585 342.5328l33.574806 0l0 33.5748l-33.574806 0z" fill-rule="evenodd"/><path fill="#b7b7b7" d="m102.89762 30.154842l74.4567 0l0 74.456696l-74.4567 0z" fill-rule="evenodd"/><path fill="#b7b7b7" d="m434.2572 30.154842l74.456696 0l0 74.456696l-74.456696 0z" fill-rule="evenodd"/><path fill="#000000" fill-opacity="0.0" d="m175.29276 49.65354l0 31.842522" fill-rule="evenodd"/><path stroke="#999999" stroke-width="4.0" stroke-linejoin="round" stroke-linecap="butt" d="m175.29276 49.65354l0 31.842522" fill-rule="evenodd"/><path fill="#000000" fill-opacity="0.0" d="m152.18373 81.68241l303.49603 -1.4173203" fill-rule="evenodd"/><path stroke="#999999" stroke-width="4.0" stroke-linejoin="round" stroke-linecap="butt" d="m152.18373 81.68241l303.49603 -1.4173203" fill-rule="evenodd"/><path fill="#000000" fill-opacity="0.0" d="m211.12335 49.65354l0 31.842522" fill-rule="evenodd"/><path stroke="#999999" stroke-width="4.0" stroke-linejoin="round" stroke-linecap="butt" d="m211.12335 49.65354l0 31.842522" fill-rule="evenodd"/><path fill="#000000" fill-opacity="0.0" d="m229.39757 49.65354l0 31.842522" fill-rule="evenodd"/><path stroke="#999999" stroke-width="4.0" stroke-linejoin="round" stroke-linecap="butt" d="m229.39757 49.65354l0 31.842522" fill-rule="evenodd"/><path fill="#000000" fill-opacity="0.0" d="m246.53468 49.65354l0 31.842522" fill-rule="evenodd"/><path stroke="#999999" stroke-width="4.0" stroke-linejoin="round" stroke-linecap="butt" d="m246.53468 49.65354l0 31.842522" fill-rule="evenodd"/><path fill="#000000" fill-opacity="0.0" d="m193.56697 49.65354l0 31.842522" fill-rule="evenodd"/><path stroke="#999999" stroke-width="4.0" stroke-linejoin="round" stroke-linecap="butt" d="m193.56697 49.65354l0 31.842522" fill-rule="evenodd"/><path fill="#000000" fill-opacity="0.0" d="m378.32504 49.65354l0 31.842522" fill-rule="evenodd"/><path stroke="#999999" stroke-width="4.0" stroke-linejoin="round" stroke-linecap="butt" d="m378.32504 49.65354l0 31.842522" fill-rule="evenodd"/><path fill="#000000" fill-opacity="0.0" d="m412.2202 49.65354l0 31.842522" fill-rule="evenodd"/><path stroke="#999999" stroke-width="4.0" stroke-linejoin="round" stroke-linecap="butt" d="m412.2202 49.65354l0 31.842522" fill-rule="evenodd"/><path fill="#999999" d="m299.06036 49.65354l52.692932 0l0 31.842522l-52.692932 0z" fill-rule="evenodd"/><path fill="#999999" d="m255.55118 49.73491l33.88977 0l0 31.842522l-33.88977 0z" fill-rule="evenodd"/><path fill="#999999" d="m351.4252 54.280838l20.251953 0l0 21.322838l-20.251953 0z" fill-rule="evenodd"/><path fill="#000000" fill-opacity="0.0" d="m152.75066 52.87664l303.81104 -2.2362213" fill-rule="evenodd"/><path stroke="#999999" stroke-width="4.0" stroke-linejoin="round" stroke-linecap="butt" d="m152.75066 52.87664l303.81104 -2.2362213" fill-rule="evenodd"/><path fill="#999999" d="m454.69815 48.82677l33.57483 0l0 33.574802l-33.57483 0z" fill-rule="evenodd"/><path fill="#000000" fill-opacity="0.0" d="m436.26047 49.65354l0 31.842522" fill-rule="evenodd"/><path stroke="#999999" stroke-width="4.0" stroke-linejoin="round" stroke-linecap="butt" d="m436.26047 49.65354l0 31.842522" fill-rule="evenodd"/><path fill="#999999" d="m123.338585 50.595802l33.574806 0l0 33.5748l-33.574806 0z" fill-rule="evenodd"/><path fill="#000000" fill-opacity="0.0" d="m496.53806 30.322834l0 351.74802" fill-rule="evenodd"/><path stroke="#9c6cff" stroke-width="8.0" stroke-linejoin="round" stroke-linecap="butt" d="m496.53806 30.322834l0 351.74802" fill-rule="evenodd"/><path fill="#000000" fill-opacity="0.0" d="m500.70602 382.26083l-397.6063 0" fill-rule="evenodd"/><path stroke="#9c6cff" stroke-width="8.0" stroke-linejoin="round" stroke-linecap="butt" d="m500.70602 382.26083l-397.6063 0" fill-rule="evenodd"/><path fill="#000000" fill-opacity="0.0" d="m2159.406 169.85023l-199.74817 -202.04724" fill-rule="evenodd"/><path stroke="#999999" stroke-width="8.0" stroke-linejoin="round" stroke-linecap="butt" d="m2159.406 169.85023l-199.74817 -202.04724" fill-rule="evenodd"/><path fill="#000000" fill-opacity="0.0" d="m2095.406 233.85023l-199.74817 -202.04724" fill-rule="evenodd"/><path stroke="#999999" stroke-width="8.0" stroke-linejoin="round" stroke-linecap="butt" d="m2095.406 233.85023l-199.74817 -202.04724" fill-rule="evenodd"/><path fill="#000000" fill-opacity="0.0" d="m2155.1409 168.04971l-63.496094 63.685043" fill-rule="evenodd"/><path stroke="#999999" stroke-width="8.0" stroke-linejoin="round" stroke-linecap="butt" d="m2155.1409 168.04971l-63.496094 63.685043" fill-rule="evenodd"/><path fill="#000000" fill-opacity="0.0" d="m1960.1085 -26.982576l-63.496094 63.685043" fill-rule="evenodd"/><path stroke="#999999" stroke-width="8.0" stroke-linejoin="round" stroke-linecap="butt" d="m1960.1085 -26.982576l-63.496094 63.685043" fill-rule="evenodd"/><path fill="#cccccc" d="m2132.1592 907.9631l-41.165283 0l0 -200.69287l41.165283 0z" fill-rule="evenodd"/><path fill="#cccccc" d="m2132.1592 686.1285l-41.165283 0l0 -200.69293l41.165283 0z" fill-rule="evenodd"/><path fill="#cccccc" d="m2132.1592 464.2938l-41.165283 0l0 -200.6929l41.165283 0z" fill-rule="evenodd"/><path fill="#cccccc" d="m2089.2783 253.40271l-16.818848 16.818909l-217.32288 -217.32285l16.81897 -16.818901z" fill-rule="evenodd"/><path fill="#000000" fill-opacity="0.0" d="m2097.8547 1016.02606l-0.40942383 -89.19684" fill-rule="evenodd"/><path stroke="#ffffff" stroke-width="8.0" stroke-linejoin="round" stroke-linecap="butt" d="m2097.8547 1016.02606l-0.40942383 -89.19684" fill-rule="evenodd"/><path fill="#cccccc" d="m2088.9106 239.8665l-15.023682 -15.023621l72.34668 -72.34645l15.0234375 15.023621z" fill-rule="evenodd"/><path stroke="#666666" stroke-width="4.0" stroke-linejoin="round" stroke-linecap="butt" d="m2088.9106 239.8665l-15.023682 -15.023621l72.34668 -72.34645l15.0234375 15.023621z" fill-rule="evenodd"/><path fill="#cccccc" d="m2070.5715 221.52739l-15.023682 -15.023621l72.34668 -72.34645l15.0234375 15.023621z" fill-rule="evenodd"/><path stroke="#666666" stroke-width="4.0" stroke-linejoin="round" stroke-linecap="butt" d="m2070.5715 221.52739l-15.023682 -15.023621l72.34668 -72.34645l15.0234375 15.023621z" fill-rule="evenodd"/><path fill="#cccccc" d="m2051.7534 202.70915l-15.023682 -15.023621l72.346436 -72.34645l15.023682 15.023621z" fill-rule="evenodd"/><path stroke="#666666" stroke-width="4.0" stroke-linejoin="round" stroke-linecap="butt" d="m2051.7534 202.70915l-15.023682 -15.023621l72.346436 -72.34645l15.023682 15.023621z" fill-rule="evenodd"/><path fill="#cccccc" d="m2033.4142 184.37004l-15.02356 -15.023621l72.346436 -72.34646l15.023682 15.023621z" fill-rule="evenodd"/><path stroke="#666666" stroke-width="4.0" stroke-linejoin="round" stroke-linecap="butt" d="m2033.4142 184.37004l-15.02356 -15.023621l72.346436 -72.34646l15.023682 15.023621z" fill-rule="evenodd"/><path fill="#cccccc" d="m2015.0765 166.03232l-15.023682 -15.023636l72.34656 -72.34645l15.0234375 15.023621z" fill-rule="evenodd"/><path stroke="#666666" stroke-width="4.0" stroke-linejoin="round" stroke-linecap="butt" d="m2015.0765 166.03232l-15.023682 -15.023636l72.34656 -72.34645l15.0234375 15.023621z" fill-rule="evenodd"/><path fill="#cccccc" d="m1996.7374 147.69319l-15.023682 -15.023621l72.34656 -72.34645l15.0234375 15.023617z" fill-rule="evenodd"/><path stroke="#666666" stroke-width="4.0" stroke-linejoin="round" stroke-linecap="butt" d="m1996.7374 147.69319l-15.023682 -15.023621l72.34656 -72.34645l15.0234375 15.023617z" fill-rule="evenodd"/><path fill="#cccccc" d="m1977.9192 128.87495l-15.023682 -15.023613l72.346436 -72.34646l15.023682 15.023621z" fill-rule="evenodd"/><path stroke="#666666" stroke-width="4.0" stroke-linejoin="round" stroke-linecap="butt" d="m1977.9192 128.87495l-15.023682 -15.023613l72.346436 -72.34646l15.023682 15.023621z" fill-rule="evenodd"/><path fill="#cccccc" d="m1959.5801 110.53584l-15.023682 -15.023621l72.346436 -72.34646l15.023682 15.023624z" fill-rule="evenodd"/><path stroke="#666666" stroke-width="4.0" stroke-linejoin="round" stroke-linecap="butt" d="m1959.5801 110.53584l-15.023682 -15.023621l72.346436 -72.34646l15.023682 15.023624z" fill-rule="evenodd"/><path fill="#cccccc" d="m1941.2423 92.19811l-15.023682 -15.023621l72.34656 -72.34646l15.02356 15.0236225z" fill-rule="evenodd"/><path stroke="#666666" stroke-width="4.0" stroke-linejoin="round" stroke-linecap="butt" d="m1941.2423 92.19811l-15.023682 -15.023621l72.34656 -72.34646l15.02356 15.0236225z" fill-rule="evenodd"/><path fill="#cccccc" d="m1922.9032 73.85899l-15.023682 -15.023621l72.34656 -72.34646l15.02356 15.0236225z" fill-rule="evenodd"/><path stroke="#666666" stroke-width="4.0" stroke-linejoin="round" stroke-linecap="butt" d="m1922.9032 73.85899l-15.023682 -15.023621l72.34656 -72.34646l15.02356 15.0236225z" fill-rule="evenodd"/><path fill="#cccccc" d="m1904.085 55.040764l-15.023682 -15.023621l72.34656 -72.34646l15.02356 15.0236225z" fill-rule="evenodd"/><path stroke="#666666" stroke-width="4.0" stroke-linejoin="round" stroke-linecap="butt" d="m1904.085 55.040764l-15.023682 -15.023621l72.34656 -72.34646l15.02356 15.0236225z" fill-rule="evenodd"/><path fill="#000000" fill-opacity="0.0" d="m1892.9597 1001.4539l0 -326.74017" fill-rule="evenodd"/><path stroke="#9c6cff" stroke-width="8.0" stroke-linejoin="round" stroke-linecap="butt" d="m1892.9597 1001.4539l0 -326.74017" fill-rule="evenodd"/><path fill="#000000" fill-opacity="0.0" d="m1820.9597 1001.4539l0 -326.5512" fill-rule="evenodd"/><path stroke="#9c6cff" stroke-width="8.0" stroke-linejoin="round" stroke-linecap="butt" d="m1820.9597 1001.4539l0 -326.5512" fill-rule="evenodd"/><path fill="#000000" fill-opacity="0.0" d="m1964.9597 1001.4539l0 -327.1181" fill-rule="evenodd"/><path stroke="#9c6cff" stroke-width="8.0" stroke-linejoin="round" stroke-linecap="butt" d="m1964.9597 1001.4539l0 -327.1181" fill-rule="evenodd"/><path fill="#b7b7b7" d="m2084.1775 731.6691l-74.45654 0l0 -74.456665l74.45654 0z" fill-rule="evenodd"/><path fill="#b7b7b7" d="m1752.818 731.6691l-74.456665 0l0 -74.456665l74.456665 0z" fill-rule="evenodd"/><path fill="#000000" fill-opacity="0.0" d="m2011.7825 712.1705l0 -31.84253" fill-rule="evenodd"/><path stroke="#999999" stroke-width="4.0" stroke-linejoin="round" stroke-linecap="butt" d="m2011.7825 712.1705l0 -31.84253" fill-rule="evenodd"/><path fill="#000000" fill-opacity="0.0" d="m2034.8915 680.1416l-303.4961 1.4172974" fill-rule="evenodd"/><path stroke="#999999" stroke-width="4.0" stroke-linejoin="round" stroke-linecap="butt" d="m2034.8915 680.1416l-303.4961 1.4172974" fill-rule="evenodd"/><path fill="#000000" fill-opacity="0.0" d="m1975.9519 712.1705l0 -31.84253" fill-rule="evenodd"/><path stroke="#999999" stroke-width="4.0" stroke-linejoin="round" stroke-linecap="butt" d="m1975.9519 712.1705l0 -31.84253" fill-rule="evenodd"/><path fill="#000000" fill-opacity="0.0" d="m1957.6776 712.1705l0 -31.84253" fill-rule="evenodd"/><path stroke="#999999" stroke-width="4.0" stroke-linejoin="round" stroke-linecap="butt" d="m1957.6776 712.1705l0 -31.84253" fill-rule="evenodd"/><path fill="#000000" fill-opacity="0.0" d="m1940.5405 712.1705l0 -31.84253" fill-rule="evenodd"/><path stroke="#999999" stroke-width="4.0" stroke-linejoin="round" stroke-linecap="butt" d="m1940.5405 712.1705l0 -31.84253" fill-rule="evenodd"/><path fill="#000000" fill-opacity="0.0" d="m1993.5082 712.1705l0 -31.84253" fill-rule="evenodd"/><path stroke="#999999" stroke-width="4.0" stroke-linejoin="round" stroke-linecap="butt" d="m1993.5082 712.1705l0 -31.84253" fill-rule="evenodd"/><path fill="#000000" fill-opacity="0.0" d="m1808.7501 712.1705l0 -31.84253" fill-rule="evenodd"/><path stroke="#999999" stroke-width="4.0" stroke-linejoin="round" stroke-linecap="butt" d="m1808.7501 712.1705l0 -31.84253" fill-rule="evenodd"/><path fill="#000000" fill-opacity="0.0" d="m1774.855 712.1705l0 -31.84253" fill-rule="evenodd"/><path stroke="#999999" stroke-width="4.0" stroke-linejoin="round" stroke-linecap="butt" d="m1774.855 712.1705l0 -31.84253" fill-rule="evenodd"/><path fill="#999999" d="m1888.0149 712.1705l-52.692993 0l0 -31.84253l52.692993 0z" fill-rule="evenodd"/><path fill="#999999" d="m1931.524 712.08905l-33.88977 0l0 -31.842468l33.88977 0z" fill-rule="evenodd"/><path fill="#999999" d="m1835.65 707.54315l-20.251953 0l0 -21.322815l20.251953 0z" fill-rule="evenodd"/><path fill="#000000" fill-opacity="0.0" d="m2034.3246 708.9473l-303.81104 2.236267" fill-rule="evenodd"/><path stroke="#999999" stroke-width="4.0" stroke-linejoin="round" stroke-linecap="butt" d="m2034.3246 708.9473l-303.81104 2.236267" fill-rule="evenodd"/><path fill="#999999" d="m1732.3771 712.9972l-33.57483 0l0 -33.574768l33.57483 0z" fill-rule="evenodd"/><path fill="#000000" fill-opacity="0.0" d="m1750.8147 712.1705l0 -31.84253" fill-rule="evenodd"/><path stroke="#999999" stroke-width="4.0" stroke-linejoin="round" stroke-linecap="butt" d="m1750.8147 712.1705l0 -31.84253" fill-rule="evenodd"/><path fill="#999999" d="m2063.7366 711.2282l-33.574707 0l0 -33.57483l33.574707 0z" fill-rule="evenodd"/><path fill="#b7b7b7" d="m2084.1775 1023.60614l-74.45654 0l0 -74.456665l74.45654 0z" fill-rule="evenodd"/><path fill="#b7b7b7" d="m1752.818 1023.60614l-74.456665 0l0 -74.456665l74.456665 0z" fill-rule="evenodd"/><path fill="#000000" fill-opacity="0.0" d="m2011.7825 1004.1075l0 -31.84253" fill-rule="evenodd"/><path stroke="#999999" stroke-width="4.0" stroke-linejoin="round" stroke-linecap="butt" d="m2011.7825 1004.1075l0 -31.84253" fill-rule="evenodd"/><path fill="#000000" fill-opacity="0.0" d="m2034.8915 972.07855l-303.4961 1.4173584" fill-rule="evenodd"/><path stroke="#999999" stroke-width="4.0" stroke-linejoin="round" stroke-linecap="butt" d="m2034.8915 972.07855l-303.4961 1.4173584" fill-rule="evenodd"/><path fill="#000000" fill-opacity="0.0" d="m1975.9519 1004.1075l0 -31.84253" fill-rule="evenodd"/><path stroke="#999999" stroke-width="4.0" stroke-linejoin="round" stroke-linecap="butt" d="m1975.9519 1004.1075l0 -31.84253" fill-rule="evenodd"/><path fill="#000000" fill-opacity="0.0" d="m1957.6776 1004.1075l0 -31.84253" fill-rule="evenodd"/><path stroke="#999999" stroke-width="4.0" stroke-linejoin="round" stroke-linecap="butt" d="m1957.6776 1004.1075l0 -31.84253" fill-rule="evenodd"/><path fill="#000000" fill-opacity="0.0" d="m1940.5405 1004.1075l0 -31.84253" fill-rule="evenodd"/><path stroke="#999999" stroke-width="4.0" stroke-linejoin="round" stroke-linecap="butt" d="m1940.5405 1004.1075l0 -31.84253" fill-rule="evenodd"/><path fill="#000000" fill-opacity="0.0" d="m1993.5082 1004.1075l0 -31.84253" fill-rule="evenodd"/><path stroke="#999999" stroke-width="4.0" stroke-linejoin="round" stroke-linecap="butt" d="m1993.5082 1004.1075l0 -31.84253" fill-rule="evenodd"/><path fill="#000000" fill-opacity="0.0" d="m1808.7501 1004.1075l0 -31.84253" fill-rule="evenodd"/><path stroke="#999999" stroke-width="4.0" stroke-linejoin="round" stroke-linecap="butt" d="m1808.7501 1004.1075l0 -31.84253" fill-rule="evenodd"/><path fill="#000000" fill-opacity="0.0" d="m1774.855 1004.1075l0 -31.84253" fill-rule="evenodd"/><path stroke="#999999" stroke-width="4.0" stroke-linejoin="round" stroke-linecap="butt" d="m1774.855 1004.1075l0 -31.84253" fill-rule="evenodd"/><path fill="#999999" d="m1888.0149 1004.1075l-52.692993 0l0 -31.84253l52.692993 0z" fill-rule="evenodd"/><path fill="#999999" d="m1931.524 1004.02606l-33.88977 0l0 -31.842468l33.88977 0z" fill-rule="evenodd"/><path fill="#999999" d="m1835.65 999.48016l-20.251953 0l0 -21.322815l20.251953 0z" fill-rule="evenodd"/><path fill="#000000" fill-opacity="0.0" d="m2034.3246 1000.88434l-303.81104 2.236267" fill-rule="evenodd"/><path stroke="#999999" stroke-width="4.0" stroke-linejoin="round" stroke-linecap="butt" d="m2034.3246 1000.88434l-303.81104 2.236267" fill-rule="evenodd"/><path fill="#999999" d="m1732.3771 1004.9342l-33.57483 0l0 -33.574768l33.57483 0z" fill-rule="evenodd"/><path fill="#000000" fill-opacity="0.0" d="m1750.8147 1004.1075l0 -31.84253" fill-rule="evenodd"/><path stroke="#999999" stroke-width="4.0" stroke-linejoin="round" stroke-linecap="butt" d="m1750.8147 1004.1075l0 -31.84253" fill-rule="evenodd"/><path fill="#999999" d="m2063.7366 1003.1652l-33.574707 0l0 -33.57483l33.574707 0z" fill-rule="evenodd"/><path fill="#000000" fill-opacity="0.0" d="m1690.5371 1023.4382l0 -351.74805" fill-rule="evenodd"/><path stroke="#9c6cff" stroke-width="8.0" stroke-linejoin="round" stroke-linecap="butt" d="m1690.5371 1023.4382l0 -351.74805" fill-rule="evenodd"/><path fill="#000000" fill-opacity="0.0" d="m1686.3691 671.5002l397.60645 0" fill-rule="evenodd"/><path stroke="#9c6cff" stroke-width="8.0" stroke-linejoin="round" stroke-linecap="butt" d="m1686.3691 671.5002l397.60645 0" fill-rule="evenodd"/><path fill="#000000" fill-opacity="0.0" d="m103.855644 25.015749l770.2047 0" fill-rule="evenodd"/><path stroke="#f3f3f3" stroke-width="8.0" stroke-linejoin="round" stroke-linecap="butt" d="m103.855644 25.015749l770.2047 0" fill-rule="evenodd"/><path fill="#000000" fill-opacity="0.0" d="m874.06036 25.015749l994.5827 0" fill-rule="evenodd"/><path stroke="#f3f3f3" stroke-width="8.0" stroke-linejoin="round" stroke-linecap="butt" d="m874.06036 25.015749l994.5827 0" fill-rule="evenodd"/><path fill="#000000" fill-opacity="0.0" d="m317.63254 1027.9448l997.6378 0" fill-rule="evenodd"/><path stroke="#ffffff" stroke-width="8.0" stroke-linejoin="round" stroke-linecap="butt" d="m317.63254 1027.9448l997.6378 0" fill-rule="evenodd"/><path fill="#000000" fill-opacity="0.0" d="m1314.6002 1027.9448l770.1102 0" fill-rule="evenodd"/><path stroke="#ffffff" stroke-width="8.0" stroke-linejoin="round" stroke-linecap="butt" d="m1314.6002 1027.9448l770.1102 0" fill-rule="evenodd"/><path fill="#000000" fill-opacity="0.0" d="m1027.6439 377.5681l-154.33069 -352.56693" fill-rule="evenodd"/><path stroke="#ffffff" stroke-width="8.0" stroke-linejoin="round" stroke-linecap="butt" d="m1027.6439 377.5681l-154.33069 -352.56693" fill-rule="evenodd"/><path fill="#000000" fill-opacity="0.0" d="m1318.7137 1028.7947l-159.87402 -358.96063" fill-rule="evenodd"/><path stroke="#ffffff" stroke-width="8.0" stroke-linejoin="round" stroke-linecap="butt" d="m1318.7137 1028.7947l-159.87402 -358.96063" fill-rule="evenodd"/><path fill="#666666" d="m1035.5089 399.3648l185.10242 67.68506l-67.68506 185.10236l-185.10236 -67.68506z" fill-rule="evenodd"/><path stroke="#b7b7b7" stroke-width="4.0" stroke-linejoin="round" stroke-linecap="butt" d="m1035.5089 399.3648l185.10242 67.68506l-67.68506 185.10236l-185.10236 -67.68506z" fill-rule="evenodd"/><path fill="#000000" fill-opacity="0.0" d="m762.4168 641.7022l200.70624 -88.240845l51.32599 -132.71738l-90.51941 -204.4945l-170.24536 179.901z" fill-rule="evenodd"/><path stroke="#ab65ff" stroke-width="8.0" stroke-linejoin="round" stroke-linecap="butt" d="m762.4168 641.7022l200.70624 -88.240845l51.32599 -132.71738l-90.51941 -204.4945l-170.24536 179.901z" fill-rule="evenodd"/><path fill="#000000" fill-opacity="0.0" d="m1039.0498 526.3858l0 0c0 -30.127777 24.423462 -54.551147 54.55127 -54.551147l0 0c14.4678955 0 28.34314 5.747345 38.573486 15.977661c10.230347 10.230316 15.977661 24.105652 15.977661 38.573486l0 0c0 30.127808 -24.42334 54.55121 -54.551147 54.55121l0 0c-30.127808 0 -54.55127 -24.4234 -54.55127 -54.55121z" fill-rule="evenodd"/><path stroke="#b7b7b7" stroke-width="8.0" stroke-linejoin="round" stroke-linecap="butt" d="m1039.0498 526.3858l0 0c0 -30.127777 24.423462 -54.551147 54.55127 -54.551147l0 0c14.4678955 0 28.34314 5.747345 38.573486 15.977661c10.230347 10.230316 15.977661 24.105652 15.977661 38.573486l0 0c0 30.127808 -24.42334 54.55121 -54.551147 54.55121l0 0c-30.127808 0 -54.55127 -24.4234 -54.55127 -54.55121z" fill-rule="evenodd"/><path fill="#000000" fill-opacity="0.0" d="m976.9593 197.41144l91.434875 199.30807l133.53699 49.216644l203.06018 -93.7738l-182.61304 -167.3887z" fill-rule="evenodd"/><path stroke="#9c6cff" stroke-width="8.0" stroke-linejoin="round" stroke-linecap="butt" d="m976.9593 197.41144l91.434875 199.30807l133.53699 49.216644l203.06018 -93.7738l-182.61304 -167.3887z" fill-rule="evenodd"/><path fill="#000000" fill-opacity="0.0" d="m1426.4518 412.81433l-200.86707 87.92822l-51.543335 132.64813l90.20093 204.65936l170.54993 -179.64612z" fill-rule="evenodd"/><path stroke="#9c6cff" stroke-width="8.0" stroke-linejoin="round" stroke-linecap="butt" d="m1426.4518 412.81433l-200.86707 87.92822l-51.543335 132.64813l90.20093 204.65936l170.54993 -179.64612z" fill-rule="evenodd"/><path fill="#000000" fill-opacity="0.0" d="m1210.1699 853.3098l-91.43494 -199.30804l-133.53699 -49.216675l-203.06018 93.773865l182.61304 167.38867z" fill-rule="evenodd"/><path stroke="#9c6cff" stroke-width="8.0" stroke-linejoin="round" stroke-linecap="butt" d="m1210.1699 853.3098l-91.43494 -199.30804l-133.53699 -49.216675l-203.06018 93.773865l182.61304 167.38867z" fill-rule="evenodd"/><path fill="#1e1e1e" d="m1119.5377 435.48297l13.070923 5.039398l-26.2677 68.15747l-13.070923 -5.0393677z" fill-rule="evenodd"/><path fill="#1e1e1e" d="m1183.2572 550.7671l-4.7244873 13.196838l-80.47241 -28.881897l4.724365 -13.196838z" fill-rule="evenodd"/><path fill="#1e1e1e" d="m1066.6448 614.23706l-13.165405 -4.8189087l29.417358 -80.28345l13.165283 4.8188477z" fill-rule="evenodd"/><path fill="#1e1e1e" d="m1004.36743 499.59155l4.850403 -13.165344l80.22052 29.543335l-4.850464 13.165344z" fill-rule="evenodd"/><path fill="#000000" fill-opacity="0.0" d="m1000.48816 526.9042l0 0c0 -51.54944 41.789185 -93.33856 93.33862 -93.33856l0 0c24.754883 0 48.49597 9.833862 66.00037 27.338257c17.504395 17.504364 27.338257 41.24539 27.338257 66.000305l0 0c0 51.5495 -41.789185 93.33862 -93.33862 93.33862l0 0c-51.54944 0 -93.33862 -41.789124 -93.33862 -93.33862z" fill-rule="evenodd"/><path stroke="#b7b7b7" stroke-width="8.0" stroke-linejoin="round" stroke-linecap="butt" d="m1000.48816 526.9042l0 0c0 -51.54944 41.789185 -93.33856 93.33862 -93.33856l0 0c24.754883 0 48.49597 9.833862 66.00037 27.338257c17.504395 17.504364 27.338257 41.24539 27.338257 66.000305l0 0c0 51.5495 -41.789185 93.33862 -93.33862 93.33862l0 0c-51.54944 0 -93.33862 -41.789124 -93.33862 -93.33862z" fill-rule="evenodd"/><path fill="#999999" d="m1093.0673 495.19l0 0c3.4230957 7.3572693 12.162231 10.546631 19.519531 7.1236267l9.74585 20.94748l0 0c-7.3573 3.4229736 -10.546631 12.16217 -7.123657 19.51941l-20.947388 9.745911l0 0c-3.4229736 -7.3573 -12.162231 -10.546631 -19.519531 -7.123596l-9.74585 -20.947449c7.3573 -3.4230347 10.546631 -12.162231 7.123657 -19.5195z" fill-rule="evenodd"/><path fill="#1e1e1e" d="m1080.1995 523.8571l0 0c0 -7.4362793 6.0283203 -13.4646 13.4646 -13.4646l0 0c3.571045 0 6.9957275 1.4185791 9.520874 3.9436646c2.5251465 2.5250854 3.9437256 5.94989 3.9437256 9.520935l0 0c0 7.4362183 -6.0283203 13.464539 -13.4646 13.464539l0 0c-7.4362793 0 -13.4646 -6.0283203 -13.4646 -13.464539z" fill-rule="evenodd"/><path fill="#999999" d="m1017.8399 380.98788l20.535461 -9.007874l54.677124 124.59842l-20.5354 9.007874z" fill-rule="evenodd"/><path fill="#999999" d="m969.541 359.37814l82.56079 -37.56552l0.3104248 44.48584l-49.53656 22.539307z" fill-rule="evenodd"/><path fill="#999999" d="m1236.5892 448.46204l9.007935 20.53543l-124.59839 54.677155l-9.007935 -20.53543z" fill-rule="evenodd"/><path fill="#999999" d="m1258.578 399.78412l37.56555 82.56082l-44.48584 0.31036377l-22.539307 -49.5365z" fill-rule="evenodd"/><path fill="#999999" d="m1168.6438 666.4143l-20.5354 9.007874l-54.677246 -124.59845l20.535522 -9.007874z" fill-rule="evenodd"/><path fill="#999999" d="m1216.9426 688.02405l-82.56079 37.56549l-0.31030273 -44.48584l49.5365 -22.539307z" fill-rule="evenodd"/><path fill="#999999" d="m950.685 599.53864l-9.007874 -20.535461l124.59839 -54.677185l9.007935 20.535461z" fill-rule="evenodd"/><path fill="#999999" d="m929.07526 647.83746l-37.56549 -82.56079l44.48584 -0.31036377l22.539307 49.5365z" fill-rule="evenodd"/></g></svg>