<svg version="1.1" id="Layer_1" xmlns="http://www.w3.org/2000/svg" xmlns:xlink="http://www.w3.org/1999/xlink" x="0px" y="0px"
	 width="100%" viewBox="0 0 737 685" enable-background="new 0 0 737 685" xml:space="preserve">
<path fill="#FDFDFD" opacity="1.000000" stroke="none" 
	d="
M738.000000,628.000000 
	C738.000000,647.329773 738.000000,666.659485 738.000000,685.991943 
	C492.382538,685.994629 246.765106,685.994629 1.073827,685.994629 
	C1.073827,457.758301 1.073827,229.516602 1.073827,1.137439 
	C246.666611,1.137439 492.333282,1.137439 738.000000,1.137439 
	C738.000000,28.749510 738.000000,56.410873 737.531250,84.523773 
	C685.654541,84.903488 634.246582,84.790207 582.838562,84.777687 
	C557.894348,84.771614 532.950134,84.954247 507.550354,84.929771 
	C500.396790,84.893929 493.698822,84.979759 486.539490,84.976395 
	C475.054993,84.949295 464.031830,85.011383 452.550293,84.965988 
	C366.119843,84.800690 280.147705,84.770462 194.175827,84.619164 
	C188.795959,84.609695 184.345047,85.425072 181.712219,90.988373 
	C179.565857,90.987061 177.849167,90.977287 175.876312,90.621277 
	C173.322479,90.174232 171.011963,90.191681 168.730209,89.944016 
	C165.556168,89.599510 164.482880,90.964027 165.029343,94.421127 
	C165.024445,129.942688 165.066757,164.994583 165.087692,200.269653 
	C165.066299,200.492844 165.153671,200.932648 165.100861,201.402802 
	C165.033401,241.671494 165.017639,281.470032 165.004715,321.268585 
	C165.000580,334.043701 165.132080,334.154449 178.674927,332.761200 
	C180.698288,333.161469 182.353226,333.571869 184.073120,334.448151 
	C183.684723,362.252319 183.231400,389.590576 182.323761,416.917419 
	C176.424530,416.906036 170.979584,416.906036 164.990692,416.906036 
	C164.990692,419.752869 164.990692,421.706421 164.990692,423.659943 
	C164.990692,454.317230 164.989349,484.974487 164.992020,515.631775 
	C164.992477,520.796814 165.266876,525.981323 164.875854,531.115845 
	C164.745148,532.832153 163.007294,535.787537 161.880234,535.847473 
	C154.046890,536.264038 146.180954,536.067383 137.904144,536.067383 
	C137.904144,521.960388 137.904160,508.657532 137.904160,495.354675 
	C137.904160,481.858795 137.904160,468.362946 137.904160,454.867065 
	C137.904160,441.537811 137.904160,428.208588 137.904160,414.879333 
	C137.904160,401.383453 137.904160,387.887604 137.904160,374.391724 
	C137.904160,361.062469 137.904160,347.733215 137.904160,334.403961 
	C137.904160,320.908112 137.904160,307.412231 137.904160,293.916382 
	C137.904160,280.587128 137.904160,267.257874 137.904160,253.928619 
	C137.904160,240.432755 137.904160,226.936890 137.904160,213.441025 
	C137.904160,200.111771 137.904144,186.782532 137.904160,173.453278 
	C137.904160,159.957413 137.904160,146.461533 137.904160,132.965668 
	C137.904160,119.636421 138.054504,106.304993 137.861588,92.978539 
	C137.671066,79.818489 138.694595,66.591217 137.259842,53.482552 
	C136.481003,53.480255 135.702148,53.477959 134.923294,53.475662 
	C134.923294,57.002895 134.923294,60.530125 134.923294,64.057358 
	C134.923279,217.843597 134.923279,371.629822 134.923264,525.416077 
	C134.923264,536.881897 134.923157,536.882812 123.154198,536.883057 
	C86.831985,536.883728 50.509769,536.871704 14.187605,536.911133 
	C11.815771,536.913696 9.444362,537.307007 7.072755,537.518555 
	C7.110193,538.295837 7.147630,539.073059 7.185068,539.850281 
	C15.829777,539.850281 24.474485,539.850281 33.574806,539.905762 
	C63.496216,540.249451 92.961678,540.580933 122.427933,540.810120 
	C140.586868,540.951416 158.747025,540.960388 176.906601,540.953918 
	C178.650391,540.953308 180.393982,540.420776 182.334076,540.113831 
	C182.530472,540.092468 182.912994,539.993530 182.978363,540.265747 
	C183.358444,540.700378 183.673187,540.862732 184.061630,541.470703 
	C183.899338,544.892029 183.663345,547.867737 183.168762,550.820068 
	C182.579163,550.896912 182.248154,550.997253 181.456573,551.070068 
	C168.110153,551.035950 155.224182,550.997986 142.338745,551.063782 
	C140.786057,551.071716 139.236237,551.641541 137.315292,551.978394 
	C135.970291,554.977478 134.263412,557.925903 134.168640,560.925354 
	C133.955948,567.656799 134.734772,574.413147 134.746994,581.160095 
	C134.757126,586.749023 133.936371,592.347046 134.080246,597.925598 
	C134.172714,601.511047 133.976212,605.845886 139.530426,606.954224 
	C148.053253,606.942139 156.115067,606.891907 164.618103,606.871033 
	C171.357239,607.212769 177.655136,607.525208 184.175018,608.252563 
	C184.915024,614.117493 185.433060,619.567505 185.999969,625.394531 
	C188.990128,626.426392 191.928757,627.636658 194.873184,627.650879 
	C228.667358,627.814148 262.462402,627.812256 296.257233,627.822327 
	C360.517395,627.841431 424.777557,627.839783 489.493347,627.937256 
	C494.308777,627.888489 498.668640,627.749207 503.487183,627.700195 
	C533.556702,627.817932 563.167419,627.846069 592.778198,627.872437 
	C641.185486,627.915588 689.592712,627.957581 738.000000,628.000000 
z"/>
<path fill="#FFFFFF" opacity="1.000000" stroke="none" 
	d="
M738.000000,122.000000 
	C738.000000,147.020889 738.000000,172.041794 737.666321,197.562592 
	C736.932312,198.753357 736.532043,199.444229 736.110352,200.594635 
	C736.106140,238.322998 736.123352,275.591827 736.097351,313.228210 
	C736.702759,314.397156 737.351379,315.198578 738.000000,316.000000 
	C738.000000,332.354218 738.000000,348.708466 737.630554,365.584961 
	C736.887634,367.451416 736.514099,368.795563 736.119080,370.598938 
	C736.109009,389.661285 736.120422,408.264374 736.086792,427.302856 
	C736.694519,429.825470 737.347290,431.912720 738.000000,434.000000 
	C738.000000,463.687561 738.000000,493.375122 737.621155,523.590637 
	C736.874878,525.792175 736.507446,527.465698 736.118713,529.598572 
	C736.156982,548.384399 736.216553,566.710938 736.188232,585.496277 
	C736.071899,596.749939 736.002502,607.544983 736.056091,618.339478 
	C736.064758,620.087341 736.619202,621.832520 736.866882,623.734314 
	C736.776855,624.124878 736.821716,624.343872 736.532349,624.560425 
	C731.136230,624.421814 726.154968,624.139282 721.173523,624.137146 
	C665.757324,624.113342 610.341125,624.149475 554.924927,624.130920 
	C537.955017,624.125183 520.985107,624.001587 503.916138,623.472046 
	C503.658600,621.868713 503.362701,620.725403 503.361633,619.581787 
	C503.336029,591.961975 503.336029,564.342102 503.363922,536.722290 
	C503.365021,535.636841 503.686584,534.551697 503.917297,533.097900 
	C513.274170,533.097900 522.361206,533.097900 531.965576,533.097900 
	C531.965576,530.900513 531.965576,529.119690 531.965576,527.338806 
	C531.965576,491.066986 531.946350,454.795105 532.007202,418.523376 
	C532.011414,416.007324 532.610962,413.492279 533.407227,410.988586 
	C538.207092,411.007019 542.533447,410.995117 546.859619,411.024292 
	C554.504578,411.075867 555.040405,410.579590 555.043335,402.862854 
	C555.055176,371.913269 555.050903,340.963715 555.041077,310.014130 
	C555.040649,308.686890 555.416931,306.991058 554.757568,306.112183 
	C553.529907,304.475769 551.804016,302.387238 550.045166,302.129974 
	C544.736755,301.353546 539.312927,301.365631 533.957520,300.595734 
	C533.946777,290.018433 533.912659,279.915649 533.899780,269.362640 
	C533.952454,238.299835 533.999878,207.687256 533.972473,177.074768 
	C533.970947,175.373993 533.350220,173.673767 532.998840,171.947205 
	C532.979980,171.921127 532.918274,171.939606 532.849487,171.714493 
	C532.587830,171.217392 532.327087,171.052841 531.999268,170.998138 
	C532.000000,171.000565 532.003479,171.003632 531.964233,170.675476 
	C530.488220,169.903091 529.332581,166.936142 527.298706,169.780701 
	C526.751953,169.659988 526.450317,169.723740 525.781494,169.751328 
	C518.037964,169.606659 510.684509,169.606659 503.108551,169.606659 
	C503.108551,166.225113 503.112854,163.908875 503.107880,161.592667 
	C503.056641,137.678024 503.003845,113.763374 503.025330,89.686119 
	C503.263672,89.326492 503.311646,89.104401 503.642792,88.759308 
	C505.364929,88.411438 506.687317,88.161491 508.473297,87.981308 
	C585.291260,88.034050 661.645630,88.017021 738.000000,88.000000 
	C738.000000,94.021156 738.000000,100.042305 737.598999,106.608658 
	C736.845459,111.678581 736.445007,116.200966 736.225281,120.732124 
	C736.206238,121.125153 737.380188,121.576012 738.000000,122.000000 
M504.993744,100.654129 
	C504.993744,98.432076 504.993744,96.210022 504.993744,93.987968 
	C504.754456,93.992416 504.515167,93.996872 504.275879,94.001320 
	C504.275879,116.272186 504.275879,138.543045 504.275879,160.813904 
	C504.515167,160.813446 504.754425,160.813004 504.993713,160.812546 
	C504.993713,141.079224 504.993713,121.345917 504.993744,100.654129 
z"/>
<path fill="#1C1C1C" opacity="1.000000" stroke="none" 
	d="
M504.015198,623.931946 
	C520.985107,624.001587 537.955017,624.125183 554.924927,624.130920 
	C610.341125,624.149475 665.757324,624.113342 721.173523,624.137146 
	C726.154968,624.139282 731.136230,624.421814 736.768433,624.736694 
	C737.612854,624.932800 737.806458,624.966370 738.000000,625.000000 
	C738.000000,625.750000 738.000000,626.500000 738.000000,627.625000 
	C689.592712,627.957581 641.185486,627.915588 592.778198,627.872437 
	C563.167419,627.846069 533.556702,627.817932 503.496460,627.373291 
	C503.369720,625.947998 503.692474,624.940002 504.015198,623.931946 
z"/>
<path fill="#070607" opacity="1.000000" stroke="none" 
	d="
M738.000000,87.625000 
	C661.645630,88.017021 585.291260,88.034050 508.468933,87.623810 
	C508.002655,86.481514 508.004303,85.766479 508.005920,85.051437 
	C532.950134,84.954247 557.894348,84.771614 582.838562,84.777687 
	C634.246582,84.790207 685.654541,84.903488 737.531250,84.987656 
	C738.000000,85.750000 738.000000,86.500000 738.000000,87.625000 
z"/>
<path fill="#BCBCBC" opacity="1.000000" stroke="none" 
	d="
M736.140625,312.860687 
	C736.123352,275.591827 736.106140,238.322998 736.420654,200.569733 
	C737.168274,200.056870 737.584167,200.028442 738.000000,200.000000 
	C738.000000,237.354233 738.000000,274.708466 737.690552,312.495117 
	C736.967529,312.905273 736.554077,312.882996 736.140625,312.860687 
z"/>
<path fill="#BCBCBC" opacity="1.000000" stroke="none" 
	d="
M736.131897,426.867493 
	C736.120422,408.264374 736.109009,389.661285 736.427856,370.573181 
	C737.172058,370.058807 737.585999,370.029419 738.000000,370.000000 
	C738.000000,388.687561 738.000000,407.375122 737.689087,426.496002 
	C736.962769,426.908722 736.547302,426.888123 736.131897,426.867493 
z"/>
<path fill="#BCBCBC" opacity="1.000000" stroke="none" 
	d="
M736.276123,585.037476 
	C736.216553,566.710938 736.156982,548.384399 736.427551,529.572754 
	C737.171814,529.058350 737.585876,529.029175 738.000000,529.000000 
	C738.000000,547.020874 738.000000,565.041809 737.740601,583.623108 
	C737.250183,584.467712 737.019104,584.751953 736.660034,585.037354 
	C736.532104,585.038452 736.276123,585.037476 736.276123,585.037476 
z"/>
<path fill="#B3B3B3" opacity="1.000000" stroke="none" 
	d="
M736.188232,585.496277 
	C736.276123,585.037476 736.532104,585.038452 736.725891,585.436890 
	C737.279785,587.556824 737.639893,589.278442 738.000000,591.000000 
	C738.000000,593.700012 738.000000,596.400024 737.675415,599.818237 
	C737.207642,608.217285 737.064453,615.898071 736.921326,623.578918 
	C736.619202,621.832520 736.064758,620.087341 736.056091,618.339478 
	C736.002502,607.544983 736.071899,596.749939 736.188232,585.496277 
z"/>
<path fill="#E5E2E2" opacity="1.000000" stroke="none" 
	d="
M738.000000,121.533890 
	C737.380188,121.576012 736.206238,121.125153 736.225281,120.732124 
	C736.445007,116.200966 736.845459,111.678581 737.598999,107.076935 
	C738.000000,111.689255 738.000000,116.378510 738.000000,121.533890 
z"/>
<path fill="#E5E2E2" opacity="1.000000" stroke="none" 
	d="
M736.866882,623.734314 
	C737.064453,615.898071 737.207642,608.217285 737.675415,600.268188 
	C738.000000,608.020935 738.000000,616.041809 738.000000,624.531372 
	C737.806458,624.966370 737.612854,624.932800 737.183167,624.722900 
	C736.821716,624.343872 736.776855,624.124878 736.866882,623.734314 
z"/>
<path fill="#E5E2E2" opacity="1.000000" stroke="none" 
	d="
M736.086792,427.302856 
	C736.547302,426.888123 736.962769,426.908722 737.689087,426.964661 
	C738.000000,429.041656 738.000000,431.083344 738.000000,433.562500 
	C737.347290,431.912720 736.694519,429.825470 736.086792,427.302856 
z"/>
<path fill="#E5E2E2" opacity="1.000000" stroke="none" 
	d="
M738.000000,528.583313 
	C737.585876,529.029175 737.171814,529.058350 736.448853,529.113403 
	C736.507446,527.465698 736.874878,525.792175 737.621155,524.059326 
	C738.000000,525.388916 738.000000,526.777771 738.000000,528.583313 
z"/>
<path fill="#E5E2E2" opacity="1.000000" stroke="none" 
	d="
M738.000000,369.600037 
	C737.585999,370.029419 737.172058,370.058807 736.449341,370.113953 
	C736.514099,368.795563 736.887634,367.451416 737.630554,366.053650 
	C738.000000,367.066681 738.000000,368.133331 738.000000,369.600037 
z"/>
<path fill="#E5E2E2" opacity="1.000000" stroke="none" 
	d="
M738.000000,590.562500 
	C737.639893,589.278442 737.279785,587.556824 736.853882,585.435730 
	C737.019104,584.751953 737.250183,584.467712 737.740601,584.091797 
	C738.000000,586.041687 738.000000,588.083313 738.000000,590.562500 
z"/>
<path fill="#E5E2E2" opacity="1.000000" stroke="none" 
	d="
M736.097290,313.228210 
	C736.554077,312.882996 736.967529,312.905273 737.690552,312.963776 
	C738.000000,313.750000 738.000000,314.500000 738.000000,315.625000 
	C737.351379,315.198578 736.702759,314.397156 736.097290,313.228210 
z"/>
<path fill="#E5E2E2" opacity="1.000000" stroke="none" 
	d="
M738.000000,199.666672 
	C737.584167,200.028442 737.168274,200.056870 736.442139,200.110199 
	C736.532043,199.444229 736.932312,198.753357 737.666321,198.031250 
	C738.000000,198.444443 738.000000,198.888901 738.000000,199.666672 
z"/>
<path fill="#B3B3B3" opacity="1.000000" stroke="none" 
	d="
M165.109085,200.046478 
	C165.066757,164.994583 165.024445,129.942688 165.308075,94.177124 
	C166.831650,92.645874 167.943726,91.350250 169.245941,91.117165 
	C171.478867,90.717529 173.830612,90.981918 176.132477,90.967514 
	C177.849167,90.977287 179.565857,90.987061 182.122986,91.027832 
	C183.283371,92.932312 183.881393,94.805504 183.883224,96.679291 
	C183.959686,175.126785 183.982819,253.574326 183.669586,332.193604 
	C181.653214,332.500671 179.979858,332.635986 178.306519,332.771332 
	C165.132080,334.154449 165.000580,334.043701 165.004715,321.268585 
	C165.017639,281.470032 165.033401,241.671494 165.243134,201.319824 
	C165.438202,200.766693 165.492554,200.331619 165.492554,200.331619 
	C165.492554,200.331619 165.109085,200.046478 165.109085,200.046478 
z"/>
<path fill="#BCBCBC" opacity="1.000000" stroke="none" 
	d="
M182.912994,539.993530 
	C182.912994,539.993530 182.530472,540.092468 182.042725,539.790955 
	C180.253296,539.325134 178.951691,539.017822 177.649918,539.017090 
	C130.884171,538.992126 84.118408,538.988403 37.352695,539.031372 
	C35.941277,539.032715 34.530350,539.565369 33.119194,539.850281 
	C24.474485,539.850281 15.829777,539.850281 7.185068,539.850281 
	C7.147630,539.073059 7.110193,538.295837 7.072755,537.518555 
	C9.444362,537.307007 11.815771,536.913696 14.187605,536.911133 
	C50.509769,536.871704 86.831985,536.883728 123.154198,536.883057 
	C134.923157,536.882812 134.923264,536.881897 134.923264,525.416077 
	C134.923279,371.629822 134.923279,217.843597 134.923294,64.057358 
	C134.923294,60.530125 134.923294,57.002895 134.923294,53.475662 
	C135.702148,53.477959 136.481003,53.480255 137.259842,53.482552 
	C138.694595,66.591217 137.671066,79.818489 137.861588,92.978539 
	C138.054504,106.304993 137.904160,119.636421 137.904160,132.965668 
	C137.904160,146.461533 137.904160,159.957413 137.904160,173.453278 
	C137.904144,186.782532 137.904160,200.111771 137.904160,213.441025 
	C137.904160,226.936890 137.904160,240.432755 137.904160,253.928619 
	C137.904160,267.257874 137.904160,280.587128 137.904160,293.916382 
	C137.904160,307.412231 137.904160,320.908112 137.904160,334.403961 
	C137.904160,347.733215 137.904160,361.062469 137.904160,374.391724 
	C137.904160,387.887604 137.904160,401.383453 137.904160,414.879333 
	C137.904160,428.208588 137.904160,441.537811 137.904160,454.867065 
	C137.904160,468.362946 137.904160,481.858795 137.904160,495.354675 
	C137.904160,508.657532 137.904144,521.960388 137.904144,536.067383 
	C146.180954,536.067383 154.046890,536.264038 161.880234,535.847473 
	C163.007294,535.787537 164.745148,532.832153 164.875854,531.115845 
	C165.266876,525.981323 164.992477,520.796814 164.992020,515.631775 
	C164.989349,484.974487 164.990692,454.317230 164.990692,423.659943 
	C164.990692,421.706421 164.990692,419.752869 164.990692,416.906036 
	C170.979584,416.906036 176.424530,416.906036 182.465240,417.322754 
	C183.347336,424.994781 183.859741,432.249481 183.881256,439.505615 
	C183.980453,472.976715 183.942932,506.448242 183.693726,539.933350 
	C183.259689,539.962524 183.086349,539.978027 182.912994,539.993530 
z"/>
<path fill="#1C1C1C" opacity="1.000000" stroke="none" 
	d="
M183.954422,539.919617 
	C183.942932,506.448242 183.980453,472.976715 183.881256,439.505615 
	C183.859741,432.249481 183.347336,424.994781 182.919540,417.334137 
	C183.231400,389.590576 183.684723,362.252319 184.114166,334.122131 
	C184.064377,332.894104 184.038483,332.457977 184.012604,332.021851 
	C183.982819,253.574326 183.959686,175.126785 183.883224,96.679291 
	C183.881393,94.805504 183.283371,92.932312 182.552673,91.019379 
	C184.345047,85.425072 188.795959,84.609695 194.175827,84.619164 
	C280.147705,84.770462 366.119843,84.800690 452.545685,85.353485 
	C452.992035,86.623451 452.984589,87.398445 452.881348,88.338913 
	C452.785522,88.504395 452.414581,88.597412 452.072510,88.366302 
	C450.172943,88.468765 448.615448,88.802338 446.592743,89.048401 
	C360.191284,88.960892 274.255066,88.960892 187.937042,88.960892 
	C187.937042,90.693230 187.933044,92.840317 187.937637,94.987389 
	C188.005417,126.642021 188.074326,158.296661 187.879059,190.166260 
	C187.501755,191.258957 187.388382,192.136688 187.190125,193.255234 
	C187.100388,193.666168 187.095490,193.836304 186.983643,194.464417 
	C186.858826,207.017822 186.788162,219.113495 186.840576,231.208633 
	C186.879272,240.137741 187.078537,249.066177 187.224289,258.315308 
	C187.543640,259.437439 187.844955,260.239136 188.082977,261.459778 
	C188.019714,288.264221 188.019714,314.649780 188.019714,341.325134 
	C211.306763,341.325134 235.088959,341.325134 258.916077,341.707947 
	C258.691132,343.275208 258.421265,344.459625 257.731812,345.598816 
	C234.294983,345.553528 211.277771,345.553528 188.403168,345.553528 
	C188.403168,363.234650 188.403168,380.766724 188.403168,398.509918 
	C211.797287,398.509918 234.869019,398.509918 258.003387,398.933441 
	C258.329895,400.456360 258.593781,401.555786 258.414581,402.528259 
	C234.728043,402.401337 211.484573,402.401337 188.077850,402.401337 
	C188.027557,403.510193 187.944122,404.492188 187.944031,405.474182 
	C187.937531,476.616943 187.930328,547.759705 187.979462,618.902466 
	C187.980698,620.677307 188.610428,622.451721 188.713257,624.446350 
	C187.636688,624.783386 186.793900,624.900452 185.951111,625.017578 
	C185.433060,619.567505 184.915024,614.117493 184.289062,608.035767 
	C184.308838,607.082336 184.304962,606.762207 184.460281,606.203247 
	C184.849518,605.235901 184.947937,604.509033 185.164230,603.551636 
	C185.304581,602.980164 185.327057,602.639038 185.410522,601.860596 
	C185.209137,585.952087 184.946777,570.480835 184.728317,554.737122 
	C184.753601,554.281494 184.735001,554.098450 184.789642,553.564575 
	C184.384354,552.423645 183.905838,551.633606 183.427338,550.843506 
	C183.663345,547.867737 183.899338,544.892029 184.069702,541.193848 
	C183.987518,540.287476 183.970978,540.103516 183.954422,539.919617 
z"/>
<path fill="#8C534C" opacity="1.000000" stroke="none" 
	d="
M503.916138,623.472046 
	C503.692474,624.940002 503.369720,625.947998 503.037720,627.282959 
	C498.668640,627.749207 494.308777,627.888489 489.453918,627.619995 
	C488.285034,626.144531 487.611237,625.076904 487.016113,623.592163 
	C487.362152,621.051331 487.852142,618.928833 487.862762,616.803894 
	C487.985779,592.193909 488.036346,567.583435 488.379974,543.242554 
	C489.098938,545.747681 489.919312,547.981567 489.930573,550.219482 
	C490.031952,570.365295 490.000244,590.511780 489.976166,610.658081 
	C489.974182,612.307983 489.478119,613.990173 489.676971,615.599854 
	C489.974243,618.006104 489.963867,621.121399 491.432159,622.514282 
	C492.772430,623.785645 496.380737,624.051758 498.107819,623.122498 
	C499.693329,622.269470 500.883575,619.239258 500.907654,617.152771 
	C501.119049,598.840393 501.030914,580.524536 501.029755,562.209717 
	C501.029297,554.883789 501.236572,547.547546 500.880463,540.238831 
	C500.784943,538.278625 499.369751,535.337891 497.836700,534.757019 
	C495.920624,534.031006 493.141022,534.970520 490.961731,535.793579 
	C489.745667,536.252808 488.991058,537.933899 487.945251,538.661865 
	C488.247650,534.426514 486.557251,532.843079 482.679382,532.921814 
	C475.097198,533.075745 467.509674,532.966980 459.471619,532.966980 
	C459.471619,517.343079 459.471619,502.260681 459.605286,487.025879 
	C459.624603,486.516052 459.510284,486.158569 459.400818,485.450989 
	C459.399292,474.123505 459.392914,463.146149 459.589661,451.802277 
	C459.599854,442.233704 459.406952,433.031647 459.222046,423.425720 
	C459.225281,421.405304 459.220520,419.788757 459.413574,417.901855 
	C459.474091,416.361786 459.336731,415.092102 459.200806,413.367706 
	C459.183289,408.023499 459.164337,403.134003 459.400482,398.511169 
	C462.446045,399.150330 465.236542,399.522888 468.436096,399.942780 
	C470.205078,399.875397 471.565033,399.760712 473.383789,399.769043 
	C490.065216,399.938263 506.288666,400.081207 522.509399,399.930115 
	C525.047485,399.906494 528.880493,400.787659 529.116394,396.101562 
	C529.086548,396.042633 529.192383,396.120361 529.374146,396.365112 
	C530.321289,397.127533 531.086670,397.645172 531.858398,398.594421 
	C531.932556,401.355316 532.000244,403.684631 531.986084,406.380188 
	C532.247314,408.156525 532.590454,409.566650 532.933655,410.976746 
	C532.610962,413.492279 532.011414,416.007324 532.007202,418.523376 
	C531.946350,454.795105 531.965576,491.066986 531.965576,527.338806 
	C531.965576,529.119690 531.965576,530.900513 531.965576,533.097900 
	C522.361206,533.097900 513.274170,533.097900 503.917297,533.097900 
	C503.686584,534.551697 503.365021,535.636841 503.363922,536.722290 
	C503.336029,564.342102 503.336029,591.961975 503.361633,619.581787 
	C503.362701,620.725403 503.658600,621.868713 503.916138,623.472046 
M529.614380,525.410767 
	C529.739258,524.764893 529.973083,524.119141 529.973389,523.473206 
	C529.992798,485.210907 530.001770,446.948639 529.954224,408.686401 
	C529.952698,407.451569 529.353760,406.217438 528.924744,404.193054 
	C527.445129,403.452820 525.970337,402.079620 524.485168,402.068298 
	C505.403534,401.922974 486.318878,401.866394 467.240265,402.146973 
	C465.470093,402.173035 463.735962,404.652191 461.410339,406.595825 
	C461.296173,421.387604 461.181976,436.179352 461.020782,451.830078 
	C461.330261,456.110687 461.920166,460.393585 461.885223,464.671387 
	C461.829193,471.532806 461.107727,478.391663 461.129669,485.250122 
	C461.155884,493.441010 461.689240,501.629639 461.952148,509.820923 
	C461.999817,511.305481 461.712128,512.799377 461.736298,514.286438 
	C461.813416,519.032104 461.768036,523.796814 462.252533,528.504517 
	C462.349518,529.446960 464.533295,530.808044 465.825012,530.891602 
	C474.172668,531.431458 482.540741,531.963623 490.900238,531.935486 
	C501.837708,531.898621 512.772278,531.291626 523.710571,531.036438 
	C527.136719,530.956543 529.074036,529.617920 529.614380,525.410767 
z"/>
<path fill="#212020" opacity="1.000000" stroke="none" 
	d="
M486.937408,624.009277 
	C487.611237,625.076904 488.285034,626.144531 488.998291,627.529419 
	C424.777557,627.839783 360.517395,627.841431 296.257233,627.822327 
	C262.462402,627.812256 228.667358,627.814148 194.873184,627.650879 
	C191.928757,627.636658 188.990128,626.426392 185.999969,625.394592 
	C186.793900,624.900452 187.636688,624.783386 189.185150,624.461792 
	C252.387222,624.214294 314.883667,624.189270 377.380035,624.118958 
	C400.872772,624.092529 424.365417,623.961182 448.285400,623.976379 
	C449.870636,623.965088 451.028534,623.855103 452.626282,623.878174 
	C464.356567,624.010559 475.647003,624.009949 486.937408,624.009277 
z"/>
<path fill="#BCBCBC" opacity="1.000000" stroke="none" 
	d="
M183.168732,550.820068 
	C183.905838,551.633606 184.384354,552.423645 184.341858,553.551819 
	C171.657547,553.929260 159.493912,553.931519 147.331406,554.049622 
	C145.592041,554.066528 143.858124,554.643799 141.720963,555.013916 
	C140.539200,556.529480 139.100906,557.983643 139.080170,559.457703 
	C138.900162,572.255127 138.820557,585.059998 139.151855,597.851318 
	C139.197632,599.619080 141.651749,601.324463 143.304352,603.328979 
	C157.427307,603.660156 171.236832,603.721130 185.046356,603.782104 
	C184.947937,604.509033 184.849518,605.235901 184.011017,606.035034 
	C176.905960,606.104858 170.540970,606.102417 163.692322,606.051392 
	C160.382828,605.991150 157.552048,605.867188 154.732285,605.992004 
	C149.507919,606.223267 144.290009,606.599976 139.069412,606.916138 
	C133.976212,605.845886 134.172714,601.511047 134.080246,597.925598 
	C133.936371,592.347046 134.757126,586.749023 134.746994,581.160095 
	C134.734772,574.413147 133.955948,567.656799 134.168640,560.925354 
	C134.263412,557.925903 135.970291,554.977478 137.813660,551.998901 
	C151.537811,551.993042 164.393982,552.024536 177.249588,551.955505 
	C178.806931,551.947144 180.361374,551.396729 181.917160,551.097534 
	C182.248154,550.997253 182.579163,550.896912 183.168732,550.820068 
z"/>
<path fill="#A4A3A3" opacity="1.000000" stroke="none" 
	d="
M33.574806,539.905762 
	C34.530350,539.565369 35.941277,539.032715 37.352695,539.031372 
	C84.118408,538.988403 130.884171,538.992126 177.649918,539.017090 
	C178.951691,539.017822 180.253296,539.325134 181.846313,539.812317 
	C180.393982,540.420776 178.650391,540.953308 176.906601,540.953918 
	C158.747025,540.960388 140.586868,540.951416 122.427933,540.810120 
	C92.961678,540.580933 63.496216,540.249451 33.574806,539.905762 
z"/>
<path fill="#070607" opacity="1.000000" stroke="none" 
	d="
M452.977173,88.173439 
	C452.984589,87.398445 452.992035,86.623451 453.004089,85.460968 
	C464.031830,85.011383 475.054993,84.949295 486.641815,85.226456 
	C487.144775,86.409721 487.084106,87.253731 486.982483,88.337524 
	C486.941528,88.577309 487.135345,89.023537 486.685791,88.915688 
	C475.149872,88.596367 464.063507,88.384903 452.977173,88.173439 
z"/>
<path fill="#1C1C1C" opacity="1.000000" stroke="none" 
	d="
M487.023407,88.097748 
	C487.084106,87.253731 487.144775,86.409721 487.103149,85.315643 
	C493.698822,84.979759 500.396790,84.893929 507.550354,84.929771 
	C508.004303,85.766479 508.002655,86.481514 508.005371,87.554047 
	C506.687317,88.161491 505.364929,88.411438 503.206879,88.555237 
	C497.255310,88.331978 492.139343,88.214867 487.023407,88.097748 
z"/>
<path fill="#A4A3A3" opacity="1.000000" stroke="none" 
	d="
M181.456573,551.070068 
	C180.361374,551.396729 178.806931,551.947144 177.249588,551.955505 
	C164.393982,552.024536 151.537811,551.993042 138.183456,551.971497 
	C139.236237,551.641541 140.786057,551.071716 142.338745,551.063782 
	C155.224182,550.997986 168.110153,551.035950 181.456573,551.070068 
z"/>
<path fill="#A3665E" opacity="1.000000" stroke="none" 
	d="
M164.175980,606.099976 
	C170.540970,606.102417 176.905960,606.104858 183.720215,606.275513 
	C184.304962,606.762207 184.308838,607.082336 184.067078,607.620911 
	C177.655136,607.525208 171.357239,607.212769 164.597351,606.685547 
	C164.135345,606.470703 164.175980,606.099976 164.175980,606.099976 
z"/>
<path fill="#A4A3A3" opacity="1.000000" stroke="none" 
	d="
M163.692322,606.051392 
	C164.175980,606.099976 164.135345,606.470703 164.156113,606.656250 
	C156.115067,606.891907 148.053253,606.942139 139.530426,606.954224 
	C144.290009,606.599976 149.507919,606.223267 154.732285,605.992004 
	C157.552048,605.867188 160.382828,605.991150 163.692322,606.051392 
z"/>
<path fill="#A4A3A3" opacity="1.000000" stroke="none" 
	d="
M175.876312,90.621277 
	C173.830612,90.981918 171.478867,90.717529 169.245941,91.117165 
	C167.943726,91.350250 166.831650,92.645874 165.355286,93.707451 
	C164.482880,90.964027 165.556168,89.599510 168.730209,89.944016 
	C171.011963,90.191681 173.322479,90.174232 175.876312,90.621277 
z"/>
<path fill="#3F3E3E" opacity="1.000000" stroke="none" 
	d="
M183.669571,332.193604 
	C184.038483,332.457977 184.064377,332.894104 184.049225,333.656250 
	C182.353226,333.571869 180.698288,333.161469 178.674927,332.761200 
	C179.979858,332.635986 181.653214,332.500671 183.669571,332.193604 
z"/>
<path fill="#3F3E3E" opacity="1.000000" stroke="none" 
	d="
M183.693726,539.933350 
	C183.970978,540.103516 183.987518,540.287476 183.995987,540.748291 
	C183.673187,540.862732 183.358444,540.700378 182.978363,540.265747 
	C183.086349,539.978027 183.259689,539.962524 183.693726,539.933350 
z"/>
<path fill="#A4A3A3" opacity="1.000000" stroke="none" 
	d="
M165.087692,200.269653 
	C165.109085,200.046478 165.492554,200.331619 165.492554,200.331619 
	C165.492554,200.331619 165.438202,200.766693 165.295929,200.849670 
	C165.153671,200.932648 165.066299,200.492844 165.087692,200.269653 
z"/>
<path fill="#AD3D2B" opacity="1.000000" stroke="none" 
	d="
M486.982483,88.337524 
	C492.139343,88.214867 497.255310,88.331978 502.807159,88.653160 
	C503.311646,89.104401 503.263672,89.326492 502.747864,90.016747 
	C502.281921,116.098640 502.128387,141.687408 502.207977,167.275452 
	C502.210907,168.206421 504.478607,169.891479 505.731354,169.930695 
	C512.537720,170.143723 519.356873,169.949814 526.171631,169.895996 
	C526.450317,169.723740 526.751953,169.659988 527.686646,169.836945 
	C529.532410,170.313965 530.767944,170.658798 532.003479,171.003632 
	C532.003479,171.003632 532.000000,171.000565 531.973633,171.260132 
	C531.958313,171.694824 531.969299,171.869934 531.965332,172.283325 
	C531.950439,172.521591 531.841980,172.986588 531.587646,173.313873 
	C531.261597,210.156448 531.189941,246.671753 531.126404,283.643677 
	C531.134521,289.855469 531.134521,295.610657 531.134521,301.695709 
	C529.025757,301.798279 527.415344,301.941803 525.804810,301.944000 
	C517.851318,301.954742 509.897858,301.913818 501.944366,301.918823 
	C494.764954,301.923370 493.373901,303.296417 493.137299,310.642609 
	C493.035980,313.788422 493.034210,316.937469 492.611694,320.161011 
	C491.744324,320.371521 491.252502,320.506073 490.348328,320.494690 
	C486.638641,320.327759 483.341339,320.306732 479.714661,320.212463 
	C478.937775,320.165771 478.490173,320.192352 477.614227,320.139954 
	C475.449280,320.096649 473.712677,320.132294 471.535034,320.106598 
	C468.153931,319.990814 465.213959,319.936310 462.036224,319.674164 
	C460.999634,319.229004 460.200806,318.991455 459.423157,318.301819 
	C459.444336,268.708710 459.444336,219.567703 459.444336,169.915207 
	C469.356476,169.915207 478.417023,169.915207 487.911835,169.915207 
	C487.911835,154.967026 487.911835,140.531677 487.990143,125.627106 
	C488.059937,116.996574 488.137756,108.833870 488.003265,100.674667 
	C487.943970,97.076332 487.453461,93.485115 487.111328,89.675003 
	C487.063934,89.459343 487.135345,89.023537 487.135345,89.023537 
	C487.135345,89.023537 486.941528,88.577309 486.982483,88.337524 
z"/>
<path fill="#BCBCBC" opacity="1.000000" stroke="none" 
	d="
M533.407227,410.988586 
	C532.590454,409.566650 532.247314,408.156525 532.258179,406.657806 
	C538.165527,407.232330 543.718872,407.895477 550.124817,408.660431 
	C550.124817,400.456482 550.059875,393.448547 550.136719,386.442108 
	C550.393066,363.054047 550.753601,339.667023 550.963013,316.278595 
	C551.054016,306.108429 550.747314,305.782898 540.759277,306.145416 
	C537.888855,306.249573 535.058594,307.462799 532.129517,307.755402 
	C532.053467,306.512146 532.057922,305.681030 532.063721,304.449768 
	C532.104980,302.981110 532.144775,301.912628 532.473755,300.900208 
	C533.153320,300.994293 533.543701,301.032288 533.934143,301.070282 
	C539.312927,301.365631 544.736755,301.353546 550.045166,302.129974 
	C551.804016,302.387238 553.529907,304.475769 554.757568,306.112183 
	C555.416931,306.991058 555.040649,308.686890 555.041077,310.014130 
	C555.050903,340.963715 555.055176,371.913269 555.043335,402.862854 
	C555.040405,410.579590 554.504578,411.075867 546.859619,411.024292 
	C542.533447,410.995117 538.207092,411.007019 533.407227,410.988586 
z"/>
<path fill="#E5E2E2" opacity="1.000000" stroke="none" 
	d="
M533.957520,300.595734 
	C533.543701,301.032288 533.153320,300.994293 532.451904,300.446136 
	C532.056641,294.256042 531.972473,288.576111 531.904785,282.435791 
	C531.922302,273.016357 531.930847,264.057343 531.923157,255.098312 
	C531.899475,227.727737 531.869507,200.357162 531.841980,172.986588 
	C531.841980,172.986588 531.950439,172.521591 532.195801,172.218414 
	C532.441162,171.915253 532.918274,171.939606 532.918274,171.939606 
	C532.918274,171.939606 532.979980,171.921127 532.982544,172.417206 
	C533.005981,203.473648 533.013306,234.034042 533.082947,264.594269 
	C533.086914,266.334412 533.601562,268.073395 533.878540,269.812897 
	C533.912659,279.915649 533.946777,290.018433 533.957520,300.595734 
z"/>
<path fill="#8C534C" opacity="1.000000" stroke="none" 
	d="
M525.781494,169.751328 
	C519.356873,169.949814 512.537720,170.143723 505.731354,169.930695 
	C504.478607,169.891479 502.210907,168.206421 502.207977,167.275452 
	C502.128387,141.687408 502.281921,116.098640 502.674072,90.179359 
	C503.003845,113.763374 503.056641,137.678024 503.107880,161.592667 
	C503.112854,163.908875 503.108551,166.225113 503.108551,169.606659 
	C510.684509,169.606659 518.037964,169.606659 525.781494,169.751328 
z"/>
<path fill="#BCBCBC" opacity="1.000000" stroke="none" 
	d="
M533.899780,269.362640 
	C533.601562,268.073395 533.086914,266.334412 533.082947,264.594269 
	C533.013306,234.034042 533.005981,203.473648 533.001465,172.443298 
	C533.350220,173.673767 533.970947,175.373993 533.972473,177.074768 
	C533.999878,207.687256 533.952454,238.299835 533.899780,269.362640 
z"/>
<path fill="#BCBCBC" opacity="1.000000" stroke="none" 
	d="
M504.993713,101.133369 
	C504.993713,121.345917 504.993713,141.079224 504.993713,160.812546 
	C504.754425,160.813004 504.515167,160.813446 504.275879,160.813904 
	C504.275879,138.543045 504.275879,116.272186 504.275879,94.001320 
	C504.515167,93.996872 504.754456,93.992416 504.993744,93.987968 
	C504.993744,96.210022 504.993744,98.432076 504.993713,101.133369 
z"/>
<path fill="#8C534C" opacity="1.000000" stroke="none" 
	d="
M531.964233,170.675476 
	C530.767944,170.658798 529.532410,170.313965 527.908936,169.912888 
	C529.332581,166.936142 530.488220,169.903091 531.964233,170.675476 
z"/>
<path fill="#8C534C" opacity="1.000000" stroke="none" 
	d="
M532.849487,171.714493 
	C532.918274,171.939606 532.441162,171.915253 532.210693,171.980164 
	C531.969299,171.869934 531.958313,171.694824 531.972900,171.257706 
	C532.327087,171.052841 532.587830,171.217392 532.849487,171.714493 
z"/>
<path fill="#FFFEFE" opacity="1.000000" stroke="none" 
	d="
M447.858093,623.877686 
	C424.365417,623.961182 400.872772,624.092529 377.380035,624.118958 
	C314.883667,624.189270 252.387222,624.214294 189.418915,624.241821 
	C188.610428,622.451721 187.980698,620.677307 187.979462,618.902466 
	C187.930328,547.759705 187.937531,476.616943 187.944031,405.474182 
	C187.944122,404.492188 188.027557,403.510193 188.077850,402.401337 
	C211.484573,402.401337 234.728043,402.401337 258.382568,402.912292 
	C259.339539,406.277069 259.885468,409.130859 260.694794,413.361633 
	C261.976776,411.546661 262.845245,410.851227 262.992310,410.027069 
	C264.629913,400.848389 263.051270,334.981171 260.079803,331.543152 
	C259.583679,335.558411 259.227386,338.441772 258.871155,341.325134 
	C235.088959,341.325134 211.306763,341.325134 188.019714,341.325134 
	C188.019714,314.649780 188.019714,288.264221 188.539917,261.442993 
	C200.204849,260.969086 211.349686,260.952698 222.494217,260.884857 
	C229.621140,260.841492 230.999588,259.457184 231.000839,252.541061 
	C231.004227,233.900940 230.934708,215.260361 231.055481,196.621017 
	C231.085495,191.988693 229.233734,189.931793 224.587555,189.961166 
	C212.439880,190.037964 200.291229,189.964706 188.142975,189.951294 
	C188.074326,158.296661 188.005417,126.642021 187.937637,94.987389 
	C187.933044,92.840317 187.937042,90.693230 187.937042,88.960892 
	C274.255066,88.960892 360.191284,88.960892 446.702515,89.437904 
	C447.508270,92.048241 447.941193,94.181572 447.941101,96.314896 
	C447.935059,272.169159 447.895355,448.023438 447.858093,623.877686 
z"/>
<path fill="#FEFAFA" opacity="1.000000" stroke="none" 
	d="
M486.685791,88.915688 
	C487.135345,89.023537 487.063934,89.459343 487.020386,90.147308 
	C487.288513,102.588966 487.600159,114.342659 487.911835,126.096344 
	C487.911835,140.531677 487.911835,154.967026 487.911835,169.915207 
	C478.417023,169.915207 469.356476,169.915207 459.444336,169.915207 
	C459.444336,219.567703 459.444336,268.708710 459.233826,318.642731 
	C459.022888,319.953217 459.022491,320.470673 458.989197,321.190552 
	C458.956360,321.392914 458.955200,321.802979 458.638672,322.105835 
	C458.200592,323.057831 457.973175,323.706909 457.972839,324.356110 
	C457.961426,347.490753 457.956604,370.625397 458.018799,393.759888 
	C458.022125,394.997559 458.614807,396.233612 458.919434,397.682251 
	C458.905731,397.894104 459.145386,398.244537 459.145386,398.244537 
	C459.164337,403.134003 459.183289,408.023499 459.093048,413.796417 
	C459.061127,415.843994 459.138428,417.008118 459.215729,418.172241 
	C459.220520,419.788757 459.225281,421.405304 459.105408,423.896484 
	C459.115997,433.903717 459.251251,443.036285 459.386536,452.168823 
	C459.392914,463.146149 459.399292,474.123505 459.310059,485.801392 
	C459.300201,486.727356 459.385895,486.952820 459.471619,487.178253 
	C459.471619,502.260681 459.471619,517.343079 459.471619,532.966980 
	C467.509674,532.966980 475.097198,533.075745 482.679382,532.921814 
	C486.557251,532.843079 488.247650,534.426514 487.912079,539.051147 
	C488.010132,540.886292 488.058136,541.929749 488.106140,542.973145 
	C488.036346,567.583435 487.985779,592.193909 487.862762,616.803894 
	C487.852142,618.928833 487.362152,621.051331 487.016113,623.592163 
	C475.647003,624.009949 464.356567,624.010559 452.645966,623.427490 
	C452.111908,618.848694 451.898834,614.853577 451.898468,610.858459 
	C451.882233,439.923889 451.882080,268.989319 451.907288,98.054726 
	C451.907745,94.902267 452.238129,91.749847 452.414551,88.597412 
	C452.414581,88.597412 452.785522,88.504395 452.881348,88.338913 
	C464.063507,88.384903 475.149872,88.596367 486.685791,88.915688 
z"/>
<path fill="#FDFDFD" opacity="1.000000" stroke="none" 
	d="
M257.940796,398.509918 
	C234.869019,398.509918 211.797287,398.509918 188.403168,398.509918 
	C188.403168,380.766724 188.403168,363.234650 188.403168,345.553528 
	C211.277771,345.553528 234.294983,345.553528 257.873291,346.022278 
	C258.610352,362.412476 258.813293,378.333679 258.915894,394.255585 
	C258.925018,395.671539 258.281311,397.091705 257.940796,398.509918 
z"/>
<path fill="#BE9A48" opacity="1.000000" stroke="none" 
	d="
M187.206268,257.994904 
	C187.078537,249.066177 186.879272,240.137741 186.840576,231.208633 
	C186.788162,219.113495 186.858826,207.017822 187.444244,194.469147 
	C200.872803,194.015915 213.733795,194.015915 227.040085,194.015915 
	C227.040085,215.197357 227.040085,235.578918 226.820435,256.287109 
	C224.555298,257.071228 222.514282,257.899658 220.463608,257.924316 
	C209.379150,258.057678 198.292297,257.992004 187.206268,257.994904 
z"/>
<path fill="#BD9B4B" opacity="1.000000" stroke="none" 
	d="
M142.990936,603.058716 
	C141.651749,601.324463 139.197632,599.619080 139.151855,597.851318 
	C138.820557,585.059998 138.900162,572.255127 139.080170,559.457703 
	C139.100906,557.983643 140.539200,556.529480 142.176086,555.015869 
	C156.916107,554.980347 170.800262,554.994995 184.684418,555.009644 
	C184.946777,570.480835 185.209137,585.952087 184.946716,601.780884 
	C170.611603,602.445190 156.801270,602.751953 142.990936,603.058716 
z"/>
<path fill="#A3665E" opacity="1.000000" stroke="none" 
	d="
M452.072510,88.366302 
	C452.238129,91.749847 451.907745,94.902267 451.907288,98.054726 
	C451.882080,268.989319 451.882233,439.923889 451.898468,610.858459 
	C451.898834,614.853577 452.111908,618.848694 452.206116,623.294434 
	C451.028534,623.855103 449.870636,623.965088 448.285400,623.976379 
	C447.895355,448.023438 447.935059,272.169159 447.941101,96.314896 
	C447.941193,94.181572 447.508270,92.048241 447.167725,89.525414 
	C448.615448,88.802338 450.172943,88.468765 452.072510,88.366302 
z"/>
<path fill="#AD3D2B" opacity="1.000000" stroke="none" 
	d="
M187.224304,258.315308 
	C198.292297,257.992004 209.379150,258.057678 220.463608,257.924316 
	C222.514282,257.899658 224.555298,257.071228 227.102722,255.989090 
	C227.723633,235.620148 227.811050,215.875580 227.991821,196.131851 
	C228.022751,192.754761 225.854935,193.017670 223.645126,193.018936 
	C211.521744,193.025879 199.398376,193.017532 187.274994,193.014435 
	C187.388382,192.136688 187.501755,191.258957 187.879059,190.166260 
	C200.291229,189.964706 212.439880,190.037964 224.587555,189.961166 
	C229.233734,189.931793 231.085495,191.988693 231.055481,196.621017 
	C230.934708,215.260361 231.004227,233.900940 231.000839,252.541061 
	C230.999588,259.457184 229.621140,260.841492 222.494217,260.884857 
	C211.349686,260.952698 200.204849,260.969086 188.603195,261.024048 
	C187.844955,260.239136 187.543640,259.437439 187.224304,258.315308 
z"/>
<path fill="#6B52A2" opacity="1.000000" stroke="none" 
	d="
M258.003418,398.933441 
	C258.281311,397.091705 258.925018,395.671539 258.915894,394.255585 
	C258.813293,378.333679 258.610352,362.412476 258.292877,346.067566 
	C258.421265,344.459625 258.691132,343.275208 258.916077,341.707947 
	C259.227386,338.441772 259.583679,335.558411 260.079803,331.543152 
	C263.051270,334.981171 264.629913,400.848389 262.992310,410.027069 
	C262.845245,410.851227 261.976776,411.546661 260.694794,413.361633 
	C259.885468,409.130859 259.339539,406.277069 258.825623,403.039215 
	C258.593781,401.555786 258.329895,400.456360 258.003418,398.933441 
z"/>
<path fill="#8C534C" opacity="1.000000" stroke="none" 
	d="
M187.190125,193.255234 
	C199.398376,193.017532 211.521744,193.025879 223.645126,193.018936 
	C225.854935,193.017670 228.022751,192.754761 227.991821,196.131851 
	C227.811050,215.875580 227.723633,235.620148 227.322388,255.662476 
	C227.040085,235.578918 227.040085,215.197357 227.040085,194.015915 
	C213.733795,194.015915 200.872803,194.015915 187.551178,194.011185 
	C187.095490,193.836304 187.100388,193.666168 187.190125,193.255234 
z"/>
<path fill="#A3665E" opacity="1.000000" stroke="none" 
	d="
M143.304352,603.328979 
	C156.801270,602.751953 170.611603,602.445190 184.885742,602.218201 
	C185.327057,602.639038 185.304581,602.980164 185.164230,603.551636 
	C171.236832,603.721130 157.427307,603.660156 143.304352,603.328979 
z"/>
<path fill="#A3665E" opacity="1.000000" stroke="none" 
	d="
M184.728317,554.737122 
	C170.800262,554.994995 156.916107,554.980347 142.576813,554.963684 
	C143.858124,554.643799 145.592041,554.066528 147.331406,554.049622 
	C159.493912,553.931519 171.657547,553.929260 184.268616,553.902710 
	C184.735001,554.098450 184.753601,554.281494 184.728317,554.737122 
z"/>
<path fill="#AE3927" opacity="1.000000" stroke="none" 
	d="
M461.985077,405.992310 
	C463.735962,404.652191 465.470093,402.173035 467.240265,402.146973 
	C486.318878,401.866394 505.403534,401.922974 524.485168,402.068298 
	C525.970337,402.079620 527.445129,403.452820 528.966797,405.058075 
	C529.021667,445.956329 529.034546,485.989532 529.047424,526.022766 
	C529.074036,529.617920 527.136719,530.956543 523.710571,531.036438 
	C512.772278,531.291626 501.837708,531.898621 490.900238,531.935486 
	C482.540741,531.963623 474.172668,531.431458 465.825012,530.891602 
	C464.533295,530.808044 462.349518,529.446960 462.252533,528.504517 
	C461.768036,523.796814 461.813416,519.032104 461.736298,514.286438 
	C461.712128,512.799377 461.999817,511.305481 461.952148,509.820923 
	C461.689240,501.629639 461.155884,493.441010 461.129669,485.250122 
	C461.107727,478.391663 461.829193,471.532806 461.885223,464.671387 
	C461.920166,460.393585 461.330261,456.110687 461.327026,451.102417 
	C461.750519,435.580627 461.867798,420.786469 461.985077,405.992310 
z"/>
<path fill="#B6B3B4" opacity="1.000000" stroke="none" 
	d="
M459.400482,398.511169 
	C459.145386,398.244537 458.905731,397.894104 458.939819,397.168884 
	C458.967712,371.563446 458.961456,346.683197 458.955200,321.802979 
	C458.955200,321.802979 458.956360,321.392914 459.311035,321.072144 
	C460.535126,320.461517 461.404541,320.171661 462.273956,319.881805 
	C465.213959,319.936310 468.153931,319.990814 471.626282,320.456238 
	C474.308594,322.363190 476.386688,323.206879 478.042603,320.218903 
	C478.490173,320.192352 478.937775,320.165771 480.027405,320.448669 
	C484.033173,320.718964 487.396942,320.679779 490.760681,320.640625 
	C491.252502,320.506073 491.744324,320.371521 492.915894,320.444733 
	C506.511139,320.741638 519.426636,320.830780 532.569458,321.271210 
	C532.872253,345.897217 532.965027,370.171967 532.972778,394.446716 
	C532.973145,395.685272 532.242371,396.924133 531.851990,398.162842 
	C531.086670,397.645172 530.321289,397.127533 529.314331,395.890808 
	C529.072693,386.758484 529.072693,378.345245 529.072693,369.932007 
	C528.770752,369.932953 528.468750,369.933868 528.166809,369.934814 
	C523.551331,378.871979 518.935913,387.809143 513.829712,396.811768 
	C500.811676,396.602905 488.284393,396.328613 475.506165,395.825500 
	C470.976227,387.174469 466.697296,378.752258 462.418365,370.330078 
	C461.951813,370.470215 461.485260,370.610352 461.018707,370.750488 
	C461.018707,378.759216 460.901642,386.772247 461.195648,394.770172 
	C461.225800,395.589966 463.716156,396.319336 465.357483,397.377075 
	C485.177734,397.765350 504.705322,397.874695 524.233093,397.932068 
	C524.800293,397.933746 525.369080,397.385437 526.268677,397.033417 
	C527.448853,396.702332 528.297546,396.431396 529.146240,396.160461 
	C528.880493,400.787659 525.047485,399.906494 522.509399,399.930115 
	C506.288666,400.081207 490.065216,399.938263 473.131317,399.561646 
	C470.955658,399.452667 469.491333,399.674072 468.027008,399.895477 
	C465.236542,399.522888 462.446045,399.150330 459.400482,398.511169 
M466.874695,341.357025 
	C469.638489,335.816467 472.402283,330.275909 475.355591,324.355469 
	C470.204895,324.355469 465.840363,324.355469 461.513428,324.355469 
	C461.513428,333.018555 461.513428,341.286896 461.513428,349.555206 
	C461.808441,349.623871 462.103455,349.692535 462.398468,349.761169 
	C463.771667,347.178436 465.144897,344.595673 466.874695,341.357025 
M528.834473,349.846802 
	C528.834473,341.309662 528.834473,332.772522 528.834473,324.371826 
	C523.856262,324.371826 519.658386,324.371826 514.533630,324.371826 
	C519.324036,333.329224 523.749817,341.604889 528.834473,349.846802 
z"/>
<path fill="#FCFCFC" opacity="1.000000" stroke="none" 
	d="
M531.858398,398.594421 
	C532.242371,396.924133 532.973145,395.685272 532.972778,394.446716 
	C532.965027,370.171967 532.872253,345.897217 532.518921,320.990906 
	C532.175720,320.181000 532.110596,320.002716 532.048218,319.383911 
	C532.103882,315.351440 532.156921,311.759460 532.209961,308.167511 
	C535.058594,307.462799 537.888855,306.249573 540.759277,306.145416 
	C550.747314,305.782898 551.054016,306.108429 550.963013,316.278595 
	C550.753601,339.667023 550.393066,363.054047 550.136719,386.442108 
	C550.059875,393.448547 550.124817,400.456482 550.124817,408.660431 
	C543.718872,407.895477 538.165527,407.232330 532.340088,406.291565 
	C532.000244,403.684631 531.932556,401.355316 531.858398,398.594421 
z"/>
<path fill="#AE3927" opacity="1.000000" stroke="none" 
	d="
M488.380005,543.242554 
	C488.058136,541.929749 488.010132,540.886292 487.995300,539.453613 
	C488.991058,537.933899 489.745667,536.252808 490.961731,535.793579 
	C493.141022,534.970520 495.920624,534.031006 497.836700,534.757019 
	C499.369751,535.337891 500.784943,538.278625 500.880463,540.238831 
	C501.236572,547.547546 501.029297,554.883789 501.029755,562.209717 
	C501.030914,580.524536 501.119049,598.840393 500.907654,617.152771 
	C500.883575,619.239258 499.693329,622.269470 498.107819,623.122498 
	C496.380737,624.051758 492.772430,623.785645 491.432159,622.514282 
	C489.963867,621.121399 489.974243,618.006104 489.676971,615.599854 
	C489.478119,613.990173 489.974182,612.307983 489.976166,610.658081 
	C490.000244,590.511780 490.031952,570.365295 489.930573,550.219482 
	C489.919312,547.981567 489.098938,545.747681 488.380005,543.242554 
z"/>
<path fill="#AD3D2B" opacity="1.000000" stroke="none" 
	d="
M529.330933,525.716797 
	C529.034546,485.989532 529.021667,445.956329 529.021057,405.453064 
	C529.353760,406.217438 529.952698,407.451569 529.954224,408.686401 
	C530.001770,446.948639 529.992798,485.210907 529.973389,523.473206 
	C529.973083,524.119141 529.739258,524.764893 529.330933,525.716797 
z"/>
<path fill="#AD3D2B" opacity="1.000000" stroke="none" 
	d="
M461.697693,406.294067 
	C461.867798,420.786469 461.750519,435.580627 461.350525,450.672974 
	C461.181976,436.179352 461.296173,421.387604 461.697693,406.294067 
z"/>
<path fill="#B6B3B4" opacity="1.000000" stroke="none" 
	d="
M459.589661,451.802277 
	C459.251251,443.036285 459.115997,433.903717 459.097412,424.300415 
	C459.406952,433.031647 459.599854,442.233704 459.589661,451.802277 
z"/>
<path fill="#A4A3A3" opacity="1.000000" stroke="none" 
	d="
M468.436096,399.942780 
	C469.491333,399.674072 470.955658,399.452667 472.672485,399.438629 
	C471.565033,399.760712 470.205078,399.875397 468.436096,399.942780 
z"/>
<path fill="#B6B3B4" opacity="1.000000" stroke="none" 
	d="
M459.413574,417.901855 
	C459.138428,417.008118 459.061127,415.843994 459.091583,414.251160 
	C459.336731,415.092102 459.474091,416.361786 459.413574,417.901855 
z"/>
<path fill="#B6B3B4" opacity="1.000000" stroke="none" 
	d="
M459.605286,487.025879 
	C459.385895,486.952820 459.300201,486.727356 459.305206,486.151520 
	C459.510284,486.158569 459.624603,486.516052 459.605286,487.025879 
z"/>
<path fill="#A4A3A3" opacity="1.000000" stroke="none" 
	d="
M532.045532,319.824402 
	C532.110596,320.002716 532.175720,320.181000 532.291504,320.639618 
	C519.426636,320.830780 506.511139,320.741638 493.291443,320.368774 
	C493.034210,316.937469 493.035980,313.788422 493.137299,310.642609 
	C493.373901,303.296417 494.764954,301.923370 501.944366,301.918823 
	C509.897858,301.913818 517.851318,301.954742 525.804810,301.944000 
	C527.415344,301.941803 529.025757,301.798279 531.134521,301.695709 
	C531.134521,295.610657 531.134521,289.855469 531.318726,283.570770 
	C531.502991,283.041260 531.888306,282.896179 531.888306,282.896179 
	C531.972473,288.576111 532.056641,294.256042 532.162720,300.390045 
	C532.144775,301.912628 532.104980,302.981110 531.589050,304.448242 
	C519.884277,304.846893 508.655670,304.846893 496.997223,304.846893 
	C496.997223,309.293304 496.723236,312.946045 497.144806,316.516663 
	C497.293671,317.777527 499.123383,319.817352 500.216705,319.837799 
	C510.822540,320.035583 521.434998,319.879517 532.045532,319.824402 
z"/>
<path fill="#8C534C" opacity="1.000000" stroke="none" 
	d="
M531.904785,282.435791 
	C531.888306,282.896179 531.502991,283.041260 531.310669,283.114136 
	C531.189941,246.671753 531.261597,210.156448 531.587646,173.313873 
	C531.869507,200.357162 531.899475,227.727737 531.923157,255.098312 
	C531.930847,264.057343 531.922302,273.016357 531.904785,282.435791 
z"/>
<path fill="#A3665E" opacity="1.000000" stroke="none" 
	d="
M487.990143,125.627106 
	C487.600159,114.342659 487.288513,102.588966 487.067780,90.362976 
	C487.453461,93.485115 487.943970,97.076332 488.003265,100.674667 
	C488.137756,108.833870 488.059937,116.996574 487.990143,125.627106 
z"/>
<path fill="#A4A3A3" opacity="1.000000" stroke="none" 
	d="
M477.614227,320.139954 
	C476.386688,323.206879 474.308594,322.363190 472.067383,320.517578 
	C473.712677,320.132294 475.449280,320.096649 477.614227,320.139954 
z"/>
<path fill="#A4A3A3" opacity="1.000000" stroke="none" 
	d="
M490.348328,320.494690 
	C487.396942,320.679779 484.033173,320.718964 480.356720,320.521912 
	C483.341339,320.306732 486.638641,320.327759 490.348328,320.494690 
z"/>
<path fill="#A4A3A3" opacity="1.000000" stroke="none" 
	d="
M462.036224,319.674164 
	C461.404541,320.171661 460.535126,320.461517 459.343872,320.869751 
	C459.022491,320.470673 459.022888,319.953217 459.212646,319.094849 
	C460.200806,318.991455 460.999634,319.229004 462.036224,319.674164 
z"/>
<path fill="#AD3D2B" opacity="1.000000" stroke="none" 
	d="
M532.048218,319.383911 
	C521.434998,319.879517 510.822540,320.035583 500.216705,319.837799 
	C499.123383,319.817352 497.293671,317.777527 497.144806,316.516663 
	C496.723236,312.946045 496.997223,309.293304 496.997223,304.846893 
	C508.655670,304.846893 519.884277,304.846893 531.587646,304.848389 
	C532.057922,305.681030 532.053467,306.512146 532.129517,307.755402 
	C532.156921,311.759460 532.103882,315.351440 532.048218,319.383911 
z"/>
<path fill="#A4A3A3" opacity="1.000000" stroke="none" 
	d="
M458.638672,322.105835 
	C458.961456,346.683197 458.967712,371.563446 458.953552,396.957031 
	C458.614807,396.233612 458.022125,394.997559 458.018799,393.759888 
	C457.956604,370.625397 457.961426,347.490753 457.972839,324.356110 
	C457.973175,323.706909 458.200592,323.057831 458.638672,322.105835 
z"/>
<path fill="#FEFAFA" opacity="1.000000" stroke="none" 
	d="
M465.064880,397.090698 
	C463.716156,396.319336 461.225800,395.589966 461.195648,394.770172 
	C460.901642,386.772247 461.018707,378.759216 461.018707,370.750488 
	C461.485260,370.610352 461.951813,370.470215 462.418365,370.330078 
	C466.697296,378.752258 470.976227,387.174469 475.289612,396.156311 
	C471.904327,396.840851 468.484589,396.965790 465.064880,397.090698 
z"/>
<path fill="#FCFCFC" opacity="1.000000" stroke="none" 
	d="
M514.320435,396.746307 
	C518.935913,387.809143 523.551331,378.871979 528.166809,369.934814 
	C528.468750,369.933868 528.770752,369.932953 529.072693,369.932007 
	C529.072693,378.345245 529.072693,386.758484 529.132568,395.646057 
	C529.192383,396.120361 529.086548,396.042633 529.116394,396.101562 
	C528.297546,396.431396 527.448853,396.702332 525.818665,396.986877 
	C521.464905,396.915771 517.892700,396.831055 514.320435,396.746307 
z"/>
<path fill="#FCFCFC" opacity="1.000000" stroke="none" 
	d="
M466.696411,341.684998 
	C465.144897,344.595673 463.771667,347.178436 462.398468,349.761169 
	C462.103455,349.692535 461.808441,349.623871 461.513428,349.555206 
	C461.513428,341.286896 461.513428,333.018555 461.513428,324.355469 
	C465.840363,324.355469 470.204895,324.355469 475.355591,324.355469 
	C472.402283,330.275909 469.638489,335.816467 466.696411,341.684998 
z"/>
<path fill="#FCFCFC" opacity="1.000000" stroke="none" 
	d="
M528.505005,349.863647 
	C523.749817,341.604889 519.324036,333.329224 514.533630,324.371826 
	C519.658386,324.371826 523.856262,324.371826 528.834473,324.371826 
	C528.834473,332.772522 528.834473,341.309662 528.505005,349.863647 
z"/>
<path fill="#A4A3A3" opacity="1.000000" stroke="none" 
	d="
M513.829712,396.811768 
	C517.892700,396.831055 521.464905,396.915771 525.487183,397.047058 
	C525.369080,397.385437 524.800293,397.933746 524.233093,397.932068 
	C504.705322,397.874695 485.177734,397.765350 465.357483,397.377075 
	C468.484589,396.965790 471.904327,396.840851 475.540588,396.385132 
	C488.284393,396.328613 500.811676,396.602905 513.829712,396.811768 
z"/>
</svg>