<?xml version="1.0" standalone="no"?>
<!DOCTYPE svg PUBLIC "-//W3C//DTD SVG 20010904//EN"
 "http://www.w3.org/TR/2001/REC-SVG-20010904/DTD/svg10.dtd">
<svg version="1.0" xmlns="http://www.w3.org/2000/svg"
 width="600.000000pt" height="600.000000pt" viewBox="0 0 600.000000 600.000000"
 preserveAspectRatio="xMidYMid meet">
<g transform="translate(0.000000,600.000000) scale(0.050000,-0.050000)"
fill="#000000" stroke="none">
<path d="M5390 11978 c-5146 -534 -7250 -6903 -3439 -10413 3288 -3028 8676
-1461 9847 2865 1097 4052 -2239 7981 -6408 7548z m1260 -516 c66 -11 156 -25
200 -31 2641 -389 4637 -2727 4637 -5431 0 -2700 -1965 -5010 -4617 -5428 -33
-5 -132 -21 -220 -35 -214 -34 -1086 -34 -1300 0 -88 14 -187 30 -220 35
-2652 418 -4617 2728 -4617 5428 0 2790 2054 5108 4837 5458 99 12 216 26 260
30 140 14 915 -6 1040 -26z"/>
<path d="M3960 9879 c-2259 -398 -3132 -3115 -1524 -4746 872 -884 2241 -1090
3320 -499 729 398 1305 1176 1434 1936 8 44 19 103 24 130 23 108 28 644 8
763 -11 70 -26 159 -32 197 -234 1427 -1763 2478 -3230 2219z m850 -422 c543
-79 1033 -361 1456 -836 486 -546 666 -1460 435 -2211 -526 -1710 -2714 -2246
-3962 -970 -1612 1647 -217 4352 2071 4017z"/>
<path d="M4984 8908 c-444 -221 -490 -1045 -70 -1221 209 -88 511 100 604 376
182 538 -137 1043 -534 845z"/>
<path d="M3590 8912 c-251 -109 -362 -593 -207 -899 284 -555 889 -407 886
217 -3 487 -343 829 -679 682z"/>
<path d="M2668 7922 c-220 -100 -320 -491 -207 -811 149 -423 491 -561 749
-303 426 425 -24 1349 -542 1114z"/>
<path d="M5890 7918 c-526 -277 -460 -1238 85 -1238 108 0 150 23 292 158 451
430 131 1348 -377 1080z"/>
<path d="M4280 7542 c-188 -41 -311 -147 -630 -543 -110 -137 -234 -286 -276
-331 -498 -542 -483 -1014 45 -1324 124 -73 423 -75 611 -4 201 76 570 81 817
10 570 -161 1005 90 1029 596 13 260 -14 307 -515 918 -542 662 -701 761
-1081 678z"/>
<path d="M6533 4983 l-214 -215 251 -254 c285 -289 285 -289 357 -156 56 102
164 209 270 266 35 19 63 43 63 54 0 25 -320 359 -432 452 l-81 67 -214 -214z"/>
<path d="M7346 4513 c-229 -80 -339 -243 -320 -470 19 -227 118 -356 715 -933
137 -132 393 -383 569 -557 426 -423 487 -463 698 -463 480 0 619 535 239 917
-465 466 -1456 1425 -1504 1454 -46 28 -264 106 -272 97 0 0 -57 -21 -125 -45z"/>
</g>
</svg>
